<svg width="101" height="64" viewBox="0 0 101 64" fill="none" xmlns="http://www.w3.org/2000/svg">
<g clip-path="url(#clip0_3566_5351)">
<path d="M83.104 7.32012C82.8471 7.07189 82.8682 6.65223 83.1674 6.45696C84.511 5.58009 86.1321 5.0963 87.7546 5.14271C89.2604 5.1609 90.7359 5.64763 91.9863 6.45241C92.2886 6.64701 92.3126 7.06978 92.0543 7.31995C90.6989 8.63273 89.3478 9.95025 87.9896 11.261C87.7623 11.4803 87.4021 11.4803 87.1748 11.261C85.8156 9.94971 84.4623 8.63223 83.104 7.32012Z" fill="#002453"/>
<path d="M83.4493 10.1976C84.1943 9.97399 85.0798 10.3856 85.3106 11.1176C85.5922 11.8532 85.1683 12.7576 84.3846 12.9913C83.5491 13.3052 82.5233 12.7348 82.4018 11.8714C82.2558 11.1614 82.7202 10.3883 83.4493 10.1976Z" fill="#002453"/>
<path d="M90.8109 10.1851C91.7086 9.89119 92.7429 10.5775 92.7787 11.4938C92.8672 12.3581 92.0195 13.1449 91.1369 13.0527C90.3748 13.0098 89.7145 12.3262 89.7494 11.5824C89.7352 10.9599 90.1987 10.363 90.8109 10.1851Z" fill="#002453"/>
<path d="M86.437 14.0285C86.2586 13.8352 86.3948 13.5103 86.6579 13.5102C87.2719 13.5099 87.8858 13.5095 88.4999 13.5101C88.7599 13.5103 88.8938 13.826 88.7166 14.0163C88.4029 14.3528 88.0846 14.7019 87.7701 15.0223C87.6598 15.1347 87.48 15.1368 87.3686 15.0254C87.0547 14.7116 86.7454 14.3625 86.437 14.0285Z" fill="#002453"/>
<path d="M88.4669 18.0884C89.0301 16.7674 89.9672 15.5999 91.1484 14.7454C91.4428 14.5323 91.849 14.6277 92.0461 14.9331C94.7521 19.1261 97.4443 23.3278 100.14 27.527C100.167 27.5689 100.181 27.6175 100.181 27.6672V27.6672C100.181 27.7602 100.131 27.8463 100.05 27.8911C99.158 28.3824 98.1709 28.7117 97.1555 28.857C95.7354 29.0634 94.2766 28.8669 92.941 28.3695C92.7943 28.3148 92.6336 28.3087 92.4839 28.3543C91.5899 28.6269 90.666 28.8237 89.7254 28.8296C88.0675 28.8369 86.388 28.4326 84.9836 27.5665C83.5989 26.7505 82.4789 25.5349 81.7546 24.1339C80.7976 22.2474 80.5884 20.0132 81.213 17.998C81.5465 16.8447 82.1634 15.7782 82.9667 14.8708C83.2057 14.6008 83.6189 14.5985 83.8783 14.849C84.1408 15.1024 84.4015 15.3576 84.6627 15.6124C84.8577 15.8026 84.9172 16.0907 84.8297 16.3486C84.1321 18.4044 84.2209 20.7012 85.0985 22.6937C85.9316 24.6885 87.5554 26.3244 89.5261 27.2944C90.0671 27.5607 90.3899 26.8218 89.9853 26.3745V26.3745C89.1564 25.5139 88.5592 24.4533 88.2013 23.3317C87.6634 21.6222 87.7774 19.7412 88.4669 18.0884Z" fill="#002453"/>
<path d="M88.7746 29.4509C89.6213 29.549 90.4792 29.481 91.3155 29.3311C91.4421 29.3084 91.5729 29.3371 91.6766 29.4132C92.2569 29.839 92.833 30.2698 93.4103 30.6994C93.7555 30.9562 93.594 31.486 93.1637 31.4847C92.3768 31.4823 91.5899 31.4496 90.8037 31.4712C90.7034 31.4739 90.6038 31.4461 90.5253 31.3836C90.3071 31.2097 90.1168 31.0033 89.9183 30.8059C89.7568 30.6454 89.5016 30.6478 89.3386 30.8069C89.1316 31.009 88.9314 31.2177 88.7153 31.4095C88.606 31.5108 88.444 31.4752 88.3112 31.4871C86.8013 31.488 85.2923 31.4442 83.7833 31.4661V31.4661C83.4676 31.485 83.3966 30.9994 83.6971 30.9006C85.1447 30.4249 86.5882 29.9381 88.0371 29.4664C88.2726 29.366 88.5288 29.4318 88.7746 29.4509Z" fill="#002453"/>
<path d="M9.59327 31.7799C7.94495 31.7799 6.46037 31.4845 5.13953 30.8936C3.8296 30.2908 2.74346 29.44 1.88109 28.3409C1.07614 27.3019 0.534614 26.078 0.256502 24.6693C0.229693 24.5335 0.320858 24.4034 0.457075 24.3789L2.43237 24.0224C2.564 23.9987 2.69087 24.0823 2.72546 24.2115C3.13912 25.7562 3.94927 26.9791 5.1559 27.88C6.42216 28.8136 7.93403 29.2804 9.69151 29.2804C10.8486 29.2804 11.8856 29.0854 12.8026 28.6954C13.7195 28.2936 14.44 27.7264 14.964 26.9937C15.4879 26.2609 15.7499 25.3923 15.7499 24.3878C15.7499 23.726 15.6408 23.1647 15.4224 22.7038C15.2041 22.2311 14.9148 21.8411 14.5546 21.5338C14.1944 21.2265 13.8014 20.9724 13.3757 20.7715C12.9499 20.5588 12.5351 20.3875 12.1312 20.2575L6.15472 18.3252C5.43426 18.1007 4.76838 17.8171 4.15708 17.4744C3.54579 17.1198 3.0109 16.7003 2.55243 16.2157C2.10487 15.7194 1.75556 15.1403 1.50449 14.4785C1.25342 13.8167 1.12788 13.0604 1.12788 12.2095C1.12788 10.7677 1.4772 9.52092 2.17582 8.46913C2.87445 7.41734 3.8296 6.60781 5.04128 6.04055C6.25296 5.4733 7.63384 5.19558 9.18392 5.20739C10.7558 5.20739 12.1585 5.50875 13.392 6.11146C14.6365 6.71417 15.6626 7.57688 16.4704 8.69958C17.2351 9.75126 17.7553 10.9883 18.0308 12.4107C18.0568 12.545 17.968 12.6737 17.8338 12.7001L15.8127 13.098C15.6716 13.1258 15.5363 13.0297 15.5106 12.8882C15.3288 11.8867 14.9665 11.0105 14.4236 10.2595C13.8341 9.4441 13.0809 8.81776 12.164 8.38049C11.258 7.93142 10.2591 7.70097 9.16754 7.68915C8.10869 7.68915 7.16445 7.88414 6.33483 8.27413C5.51613 8.65231 4.86663 9.17229 4.38632 9.83409C3.90601 10.4959 3.66586 11.2522 3.66586 12.1031C3.66586 12.9658 3.88418 13.6572 4.32082 14.1772C4.76838 14.6972 5.31418 15.1049 5.95823 15.4003C6.61319 15.6958 7.24632 15.938 7.85762 16.1271L12.4751 17.5984C12.9554 17.7403 13.5176 17.9471 14.1616 18.2189C14.8166 18.4789 15.4497 18.857 16.061 19.3534C16.6832 19.8379 17.1963 20.4761 17.6002 21.2679C18.0041 22.0597 18.206 23.0642 18.206 24.2815C18.206 25.4632 17.9877 26.5209 17.5511 27.4546C17.1253 28.3882 16.5195 29.1741 15.7335 29.8122C14.9585 30.4504 14.047 30.9349 12.9991 31.2658C11.962 31.6085 10.8268 31.7799 9.59327 31.7799Z" fill="#002453"/>
<path d="M26.4717 31.2481C26.3326 31.2481 26.2198 31.1353 26.2198 30.9962V8.47283C26.2198 8.33372 26.1071 8.22095 25.968 8.22095H18.2356C18.0965 8.22095 17.9837 8.10819 17.9837 7.96908V5.97335C17.9837 5.83424 18.0965 5.72147 18.2356 5.72147H36.6111C36.7502 5.72147 36.863 5.83424 36.863 5.97335V7.96908C36.863 8.10819 36.7502 8.22095 36.6111 8.22095H28.8787C28.7396 8.22095 28.6268 8.33372 28.6268 8.47283V30.9962C28.6268 31.1353 28.5141 31.2481 28.3749 31.2481H26.4717Z" fill="#002453"/>
<path d="M38.1032 31.2481C37.9641 31.2481 37.8513 31.1353 37.8513 30.9962V5.97335C37.8513 5.83424 37.9641 5.72147 38.1032 5.72147H52.3361C52.4752 5.72147 52.5879 5.83424 52.5879 5.97335V7.96908C52.5879 8.10819 52.4752 8.22095 52.3361 8.22095H40.5102C40.371 8.22095 40.2583 8.33372 40.2583 8.47283V16.797C40.2583 16.9361 40.371 17.0489 40.5102 17.0489H50.3712C50.5103 17.0489 50.6231 17.1617 50.6231 17.3008V19.2965C50.6231 19.4356 50.5103 19.5484 50.3712 19.5484H40.5102C40.371 19.5484 40.2583 19.6612 40.2583 19.8003V28.4967C40.2583 28.6358 40.371 28.7486 40.5102 28.7486H52.3361C52.4752 28.7486 52.5879 28.8614 52.5879 29.0005V30.9962C52.5879 31.1353 52.4752 31.2481 52.3361 31.2481H38.1032Z" fill="#002453"/>
<path d="M55.1424 31.2481C55.0033 31.2481 54.8905 31.1353 54.8905 30.9962V5.97335C54.8905 5.83424 55.0033 5.72147 55.1424 5.72147H56.9354C57.0359 5.72147 57.1268 5.78123 57.1667 5.87351L66.1369 26.6516C66.2245 26.8545 66.5124 26.8542 66.5996 26.6511L75.5219 5.87396C75.5616 5.78144 75.6526 5.72147 75.7533 5.72147H77.5787C77.7178 5.72147 77.8306 5.83424 77.8306 5.97335V30.9785C77.8306 31.1176 77.7178 31.2304 77.5787 31.2304H75.7901C75.651 31.2304 75.5382 31.1176 75.5382 30.9785V12.7695C75.5382 12.4953 75.1621 12.4185 75.0546 12.6707L67.2036 31.095C67.164 31.1878 67.0728 31.2481 66.9719 31.2481H65.7494C65.6484 31.2481 65.5571 31.1878 65.5176 31.0948L57.6829 12.6731C57.5756 12.4207 57.1993 12.4974 57.1993 12.7717V30.9962C57.1993 31.1353 57.0865 31.2481 56.9474 31.2481H55.1424Z" fill="#002453"/>
<mask id="path-8-inside-1_3566_5351" fill="white">
<path d="M2.37799 54.3175H0V35.9777H12.7695V38.095H2.37799V43.6002H10.4892V45.6199H2.37799V54.3175Z"/>
<path d="M16.9895 54.6432C15.5127 54.6432 14.2966 54.3175 13.3411 53.666C12.3855 52.9928 11.6797 52.1349 11.2237 51.0925C10.7676 50.0284 10.5396 48.9317 10.5396 47.8024C10.5396 46.5429 10.7893 45.3919 11.2888 44.3495C11.7883 43.3071 12.5158 42.4927 13.4714 41.9063C14.4269 41.2983 15.567 40.9942 16.8917 40.9942C18.0645 40.9942 19.096 41.244 19.9864 41.7435C20.8985 42.243 21.6151 42.9487 22.1363 43.8609C22.6793 44.773 22.9833 45.8588 23.0485 47.1184C23.0485 47.1835 23.0485 47.303 23.0485 47.4767C23.0485 47.6504 23.0485 47.8024 23.0485 47.9327H12.8524C12.8524 49.3878 13.2108 50.5279 13.9274 51.3531C14.6441 52.1784 15.643 52.591 16.9243 52.591C17.9016 52.591 18.7268 52.3521 19.4 51.8743C20.095 51.3749 20.5185 50.7016 20.6705 49.8547H23.0159C22.8856 50.7668 22.5598 51.592 22.0386 52.3304C21.5174 53.047 20.8225 53.6117 19.9538 54.0243C19.1069 54.4369 18.1187 54.6432 16.9895 54.6432ZM12.9176 46.6949H20.6053C20.6053 46.4126 20.5402 46.0651 20.4099 45.6525C20.3013 45.2181 20.1058 44.8055 19.8235 44.4146C19.5412 44.002 19.1612 43.6654 18.6834 43.4048C18.2056 43.1225 17.5975 42.9813 16.8592 42.9813C16.186 42.9813 15.6105 43.1008 15.1327 43.3396C14.6549 43.5568 14.264 43.85 13.96 44.2192C13.6559 44.5884 13.4171 44.9901 13.2433 45.4245C13.0913 45.8588 12.9827 46.2823 12.9176 46.6949Z"/>
<path d="M23.8336 54.3175V35.9777H26.179V54.3175H23.8336Z"/>
<path d="M27.2158 54.3175V35.9777H29.5612V54.3175H27.2158Z"/>
<path d="M36.2335 54.6432C34.8002 54.6432 33.6058 54.3501 32.6502 53.7637C31.6947 53.1773 30.978 52.3738 30.5003 51.3531C30.0225 50.3325 29.7836 49.1597 29.7836 47.835C29.7836 46.5103 30.0225 45.3376 30.5003 44.3169C30.978 43.2745 31.6947 42.4601 32.6502 41.8738C33.6275 41.2874 34.8328 40.9942 36.2661 40.9942C38.3509 40.9942 39.9362 41.624 41.0221 42.8836C42.1296 44.1432 42.6834 45.8045 42.6834 47.8676C42.6834 49.1272 42.4554 50.2782 41.9993 51.3206C41.5433 52.3413 40.8375 53.1556 39.8819 53.7637C38.9264 54.3501 37.7102 54.6432 36.2335 54.6432ZM36.2335 52.5584C37.3411 52.5584 38.188 52.3195 38.7744 51.8418C39.3607 51.364 39.7625 50.7668 39.9797 50.0501C40.2185 49.3118 40.338 48.5517 40.338 47.7699C40.338 46.9881 40.2185 46.228 39.9797 45.4896C39.7625 44.7512 39.3607 44.1432 38.7744 43.6654C38.188 43.1876 37.3411 42.9487 36.2335 42.9487C35.1694 42.9487 34.3333 43.1876 33.7252 43.6654C33.1171 44.1432 32.6937 44.7512 32.4548 45.4896C32.2376 46.228 32.129 46.9881 32.129 47.7699C32.129 48.5517 32.2376 49.3118 32.4548 50.0501C32.6937 50.7668 33.1171 51.364 33.7252 51.8418C34.3333 52.3195 35.1694 52.5584 36.2335 52.5584Z"/>
<path d="M45.2548 54.3175L41.8018 41.5154V40.9942H44.1147L46.9161 52.2978H46.9813L50.2714 40.9942H52.3888L55.744 52.2978H55.8091L58.578 40.9942H60.8909V41.5154L57.4705 54.3175H54.0501L51.3789 45.1639H51.3138L48.6752 54.3175H45.2548Z"/>
<path d="M66.0477 54.6432C65.3962 54.6432 64.7664 54.5455 64.1583 54.3501C63.572 54.1763 63.0399 53.9266 62.5621 53.6008C62.1061 53.2751 61.7043 52.9167 61.3568 52.5258C61.0094 52.1349 60.7379 51.7223 60.5425 51.288C60.3687 50.8319 60.2819 50.3976 60.2819 49.985H62.5621C62.5621 50.0067 62.5838 50.1696 62.6273 50.4736C62.6707 50.7559 62.7902 51.0817 62.9856 51.4509C63.2028 51.8201 63.5502 52.1458 64.028 52.4281C64.5058 52.7104 65.1681 52.8516 66.0151 52.8516C66.6666 52.8516 67.2312 52.7756 67.709 52.6236C68.1868 52.4716 68.556 52.2435 68.8166 51.9395C69.0989 51.6355 69.2292 51.2663 69.2075 50.8319C69.2075 50.2456 68.9903 49.8004 68.556 49.4964C68.1433 49.1706 67.6004 48.9209 66.9272 48.7471C66.2757 48.5517 65.5808 48.3671 64.8424 48.1933C64.1257 48.0196 63.4417 47.7916 62.7902 47.5093C62.1386 47.227 61.6066 46.836 61.194 46.3366C60.7813 45.8154 60.5859 45.1204 60.6076 44.2518C60.6076 43.1008 61.0962 42.2104 62.0735 41.5806C63.0508 40.9508 64.2995 40.6359 65.8196 40.6359C66.5146 40.6359 67.1987 40.7119 67.8719 40.8639C68.5451 41.016 69.1532 41.2766 69.6961 41.6457C70.2607 41.9932 70.7059 42.471 71.0317 43.079C71.3791 43.6654 71.5312 44.4146 71.4877 45.3267H69.2726C69.2943 44.7404 69.1966 44.2626 68.9794 43.8934C68.7623 43.5242 68.4691 43.2419 68.0999 43.0465C67.7307 42.851 67.3398 42.7207 66.9272 42.6556C66.5363 42.5687 66.1671 42.5253 65.8196 42.5253C64.9293 42.5253 64.2017 42.6881 63.6371 43.0139C63.0942 43.3396 62.8227 43.7957 62.8227 44.3821C62.8227 44.9467 63.029 45.3919 63.4417 45.7176C63.8543 46.0217 64.3863 46.2714 65.0378 46.4669C65.7111 46.6406 66.4169 46.8143 67.1552 46.9881C67.8936 47.1401 68.5885 47.3681 69.24 47.6721C69.9133 47.9545 70.4562 48.3562 70.8688 48.8774C71.3031 49.3769 71.5203 50.0827 71.5203 50.9948C71.5203 51.8418 71.2814 52.5367 70.8036 53.0796C70.3476 53.6008 69.7069 53.9917 68.8817 54.2523C68.0565 54.5129 67.1118 54.6432 66.0477 54.6432Z"/>
<path d="M71.6269 54.3175V35.9777H74.3987V44.2192H74.3515C74.395 44.1106 74.2764 43.8934 74.4284 43.5677C74.5804 43.2202 74.8302 42.851 75.1776 42.4601C75.5251 42.0692 75.9811 41.7326 76.5458 41.4503C77.1321 41.168 77.8596 41.0268 78.7283 41.0268C79.6621 41.0268 80.4331 41.168 81.0412 41.4503C81.6492 41.7326 82.1378 42.1235 82.507 42.623C82.8762 43.1008 83.1477 43.6437 83.3214 44.2518C83.4951 44.8598 83.6037 45.4679 83.6472 46.076C83.7123 46.684 83.7449 47.2595 83.7449 47.8024V54.3175H81.3995V47.7699C81.3995 46.8795 81.3018 46.0868 81.1063 45.3919C80.9326 44.6969 80.596 44.154 80.0965 43.7631C79.6187 43.3722 78.9129 43.1768 77.9791 43.1768C77.0235 43.1768 76.2635 43.4048 75.6988 43.8609C75.1342 44.3169 74.7216 44.9141 74.461 45.6525C74.2004 46.3691 74.0701 47.1509 74.0701 47.9979V54.3175H71.6269Z"/>
<path d="M84.5913 54.3175V41.0268H87.0019V54.3175H84.5913ZM85.8292 39.1049C85.2428 39.1049 84.8411 38.9529 84.6239 38.6488C84.4285 38.3448 84.3307 37.9973 84.3307 37.6064C84.3307 37.2155 84.4285 36.8789 84.6239 36.5966C84.8411 36.2926 85.2428 36.1405 85.8292 36.1405C86.4155 36.1405 86.7956 36.2926 86.9693 36.5966C87.1648 36.8789 87.2625 37.2155 87.2625 37.6064C87.2625 37.9973 87.1648 38.3448 86.9693 38.6488C86.7956 38.9529 86.4155 39.1049 85.8292 39.1049Z"/>
<path d="M95.2363 54.6432C94.3893 54.6432 93.6727 54.5021 93.0863 54.2198C92.5217 53.9374 92.0548 53.6117 91.6856 53.2425C91.3164 52.8516 91.0341 52.4933 90.8386 52.1675C90.6649 51.82 90.5563 51.6029 90.5129 51.516H90.4477V59.9204H88.0046V41.0268H90.0568L90.4803 44.2518H90.5455C90.5889 44.1432 90.6866 43.926 90.8386 43.6002C90.9907 43.2528 91.2404 42.8836 91.5879 42.4927C91.9571 42.0801 92.4348 41.7326 93.0212 41.4503C93.6075 41.168 94.335 41.0268 95.2037 41.0268C96.5067 41.0268 97.5817 41.32 98.4286 41.9063C99.2973 42.4927 99.938 43.3071 100.351 44.3495C100.785 45.3702 101.002 46.5537 101.002 47.9002C101.002 49.2249 100.785 50.3976 100.351 51.4183C99.9162 52.439 99.2647 53.2316 98.3961 53.7963C97.5491 54.3609 96.4959 54.6432 95.2363 54.6432ZM94.6499 52.5584C95.6489 52.5584 96.4416 52.3304 97.0279 51.8743C97.6143 51.4183 98.0269 50.8319 98.2658 50.1153C98.5264 49.3986 98.6567 48.6494 98.6567 47.8676C98.6567 47.0641 98.5155 46.3148 98.2332 45.6199C97.9726 44.9033 97.5274 44.3278 96.8976 43.8934C96.2895 43.4374 95.486 43.2093 94.4871 43.2093C93.6618 43.2093 92.9452 43.4048 92.3371 43.7957C91.7507 44.1649 91.2947 44.6969 90.9689 45.3919C90.6649 46.0868 90.5129 46.9121 90.5129 47.8676C90.5129 48.8014 90.6758 49.6267 91.0015 50.3433C91.349 51.06 91.8268 51.6137 92.4348 52.0046C93.0646 52.3738 93.803 52.5584 94.6499 52.5584Z"/>
</mask>
<path d="M2.37799 54.3175H0V35.9777H12.7695V38.095H2.37799V43.6002H10.4892V45.6199H2.37799V54.3175Z" fill="#002453"/>
<path d="M16.9895 54.6432C15.5127 54.6432 14.2966 54.3175 13.3411 53.666C12.3855 52.9928 11.6797 52.1349 11.2237 51.0925C10.7676 50.0284 10.5396 48.9317 10.5396 47.8024C10.5396 46.5429 10.7893 45.3919 11.2888 44.3495C11.7883 43.3071 12.5158 42.4927 13.4714 41.9063C14.4269 41.2983 15.567 40.9942 16.8917 40.9942C18.0645 40.9942 19.096 41.244 19.9864 41.7435C20.8985 42.243 21.6151 42.9487 22.1363 43.8609C22.6793 44.773 22.9833 45.8588 23.0485 47.1184C23.0485 47.1835 23.0485 47.303 23.0485 47.4767C23.0485 47.6504 23.0485 47.8024 23.0485 47.9327H12.8524C12.8524 49.3878 13.2108 50.5279 13.9274 51.3531C14.6441 52.1784 15.643 52.591 16.9243 52.591C17.9016 52.591 18.7268 52.3521 19.4 51.8743C20.095 51.3749 20.5185 50.7016 20.6705 49.8547H23.0159C22.8856 50.7668 22.5598 51.592 22.0386 52.3304C21.5174 53.047 20.8225 53.6117 19.9538 54.0243C19.1069 54.4369 18.1187 54.6432 16.9895 54.6432ZM12.9176 46.6949H20.6053C20.6053 46.4126 20.5402 46.0651 20.4099 45.6525C20.3013 45.2181 20.1058 44.8055 19.8235 44.4146C19.5412 44.002 19.1612 43.6654 18.6834 43.4048C18.2056 43.1225 17.5975 42.9813 16.8592 42.9813C16.186 42.9813 15.6105 43.1008 15.1327 43.3396C14.6549 43.5568 14.264 43.85 13.96 44.2192C13.6559 44.5884 13.4171 44.9901 13.2433 45.4245C13.0913 45.8588 12.9827 46.2823 12.9176 46.6949Z" fill="#002453"/>
<path d="M23.8336 54.3175V35.9777H26.179V54.3175H23.8336Z" fill="#002453"/>
<path d="M27.2158 54.3175V35.9777H29.5612V54.3175H27.2158Z" fill="#002453"/>
<path d="M36.2335 54.6432C34.8002 54.6432 33.6058 54.3501 32.6502 53.7637C31.6947 53.1773 30.978 52.3738 30.5003 51.3531C30.0225 50.3325 29.7836 49.1597 29.7836 47.835C29.7836 46.5103 30.0225 45.3376 30.5003 44.3169C30.978 43.2745 31.6947 42.4601 32.6502 41.8738C33.6275 41.2874 34.8328 40.9942 36.2661 40.9942C38.3509 40.9942 39.9362 41.624 41.0221 42.8836C42.1296 44.1432 42.6834 45.8045 42.6834 47.8676C42.6834 49.1272 42.4554 50.2782 41.9993 51.3206C41.5433 52.3413 40.8375 53.1556 39.8819 53.7637C38.9264 54.3501 37.7102 54.6432 36.2335 54.6432ZM36.2335 52.5584C37.3411 52.5584 38.188 52.3195 38.7744 51.8418C39.3607 51.364 39.7625 50.7668 39.9797 50.0501C40.2185 49.3118 40.338 48.5517 40.338 47.7699C40.338 46.9881 40.2185 46.228 39.9797 45.4896C39.7625 44.7512 39.3607 44.1432 38.7744 43.6654C38.188 43.1876 37.3411 42.9487 36.2335 42.9487C35.1694 42.9487 34.3333 43.1876 33.7252 43.6654C33.1171 44.1432 32.6937 44.7512 32.4548 45.4896C32.2376 46.228 32.129 46.9881 32.129 47.7699C32.129 48.5517 32.2376 49.3118 32.4548 50.0501C32.6937 50.7668 33.1171 51.364 33.7252 51.8418C34.3333 52.3195 35.1694 52.5584 36.2335 52.5584Z" fill="#002453"/>
<path d="M45.2548 54.3175L41.8018 41.5154V40.9942H44.1147L46.9161 52.2978H46.9813L50.2714 40.9942H52.3888L55.744 52.2978H55.8091L58.578 40.9942H60.8909V41.5154L57.4705 54.3175H54.0501L51.3789 45.1639H51.3138L48.6752 54.3175H45.2548Z" fill="#002453"/>
<path d="M66.0477 54.6432C65.3962 54.6432 64.7664 54.5455 64.1583 54.3501C63.572 54.1763 63.0399 53.9266 62.5621 53.6008C62.1061 53.2751 61.7043 52.9167 61.3568 52.5258C61.0094 52.1349 60.7379 51.7223 60.5425 51.288C60.3687 50.8319 60.2819 50.3976 60.2819 49.985H62.5621C62.5621 50.0067 62.5838 50.1696 62.6273 50.4736C62.6707 50.7559 62.7902 51.0817 62.9856 51.4509C63.2028 51.8201 63.5502 52.1458 64.028 52.4281C64.5058 52.7104 65.1681 52.8516 66.0151 52.8516C66.6666 52.8516 67.2312 52.7756 67.709 52.6236C68.1868 52.4716 68.556 52.2435 68.8166 51.9395C69.0989 51.6355 69.2292 51.2663 69.2075 50.8319C69.2075 50.2456 68.9903 49.8004 68.556 49.4964C68.1433 49.1706 67.6004 48.9209 66.9272 48.7471C66.2757 48.5517 65.5808 48.3671 64.8424 48.1933C64.1257 48.0196 63.4417 47.7916 62.7902 47.5093C62.1386 47.227 61.6066 46.836 61.194 46.3366C60.7813 45.8154 60.5859 45.1204 60.6076 44.2518C60.6076 43.1008 61.0962 42.2104 62.0735 41.5806C63.0508 40.9508 64.2995 40.6359 65.8196 40.6359C66.5146 40.6359 67.1987 40.7119 67.8719 40.8639C68.5451 41.016 69.1532 41.2766 69.6961 41.6457C70.2607 41.9932 70.7059 42.471 71.0317 43.079C71.3791 43.6654 71.5312 44.4146 71.4877 45.3267H69.2726C69.2943 44.7404 69.1966 44.2626 68.9794 43.8934C68.7623 43.5242 68.4691 43.2419 68.0999 43.0465C67.7307 42.851 67.3398 42.7207 66.9272 42.6556C66.5363 42.5687 66.1671 42.5253 65.8196 42.5253C64.9293 42.5253 64.2017 42.6881 63.6371 43.0139C63.0942 43.3396 62.8227 43.7957 62.8227 44.3821C62.8227 44.9467 63.029 45.3919 63.4417 45.7176C63.8543 46.0217 64.3863 46.2714 65.0378 46.4669C65.7111 46.6406 66.4169 46.8143 67.1552 46.9881C67.8936 47.1401 68.5885 47.3681 69.24 47.6721C69.9133 47.9545 70.4562 48.3562 70.8688 48.8774C71.3031 49.3769 71.5203 50.0827 71.5203 50.9948C71.5203 51.8418 71.2814 52.5367 70.8036 53.0796C70.3476 53.6008 69.7069 53.9917 68.8817 54.2523C68.0565 54.5129 67.1118 54.6432 66.0477 54.6432Z" fill="#002453"/>
<path d="M71.6269 54.3175V35.9777H74.3987V44.2192H74.3515C74.395 44.1106 74.2764 43.8934 74.4284 43.5677C74.5804 43.2202 74.8302 42.851 75.1776 42.4601C75.5251 42.0692 75.9811 41.7326 76.5458 41.4503C77.1321 41.168 77.8596 41.0268 78.7283 41.0268C79.6621 41.0268 80.4331 41.168 81.0412 41.4503C81.6492 41.7326 82.1378 42.1235 82.507 42.623C82.8762 43.1008 83.1477 43.6437 83.3214 44.2518C83.4951 44.8598 83.6037 45.4679 83.6472 46.076C83.7123 46.684 83.7449 47.2595 83.7449 47.8024V54.3175H81.3995V47.7699C81.3995 46.8795 81.3018 46.0868 81.1063 45.3919C80.9326 44.6969 80.596 44.154 80.0965 43.7631C79.6187 43.3722 78.9129 43.1768 77.9791 43.1768C77.0235 43.1768 76.2635 43.4048 75.6988 43.8609C75.1342 44.3169 74.7216 44.9141 74.461 45.6525C74.2004 46.3691 74.0701 47.1509 74.0701 47.9979V54.3175H71.6269Z" fill="#002453"/>
<path d="M84.5913 54.3175V41.0268H87.0019V54.3175H84.5913ZM85.8292 39.1049C85.2428 39.1049 84.8411 38.9529 84.6239 38.6488C84.4285 38.3448 84.3307 37.9973 84.3307 37.6064C84.3307 37.2155 84.4285 36.8789 84.6239 36.5966C84.8411 36.2926 85.2428 36.1405 85.8292 36.1405C86.4155 36.1405 86.7956 36.2926 86.9693 36.5966C87.1648 36.8789 87.2625 37.2155 87.2625 37.6064C87.2625 37.9973 87.1648 38.3448 86.9693 38.6488C86.7956 38.9529 86.4155 39.1049 85.8292 39.1049Z" fill="#002453"/>
<path d="M95.2363 54.6432C94.3893 54.6432 93.6727 54.5021 93.0863 54.2198C92.5217 53.9374 92.0548 53.6117 91.6856 53.2425C91.3164 52.8516 91.0341 52.4933 90.8386 52.1675C90.6649 51.82 90.5563 51.6029 90.5129 51.516H90.4477V59.9204H88.0046V41.0268H90.0568L90.4803 44.2518H90.5455C90.5889 44.1432 90.6866 43.926 90.8386 43.6002C90.9907 43.2528 91.2404 42.8836 91.5879 42.4927C91.9571 42.0801 92.4348 41.7326 93.0212 41.4503C93.6075 41.168 94.335 41.0268 95.2037 41.0268C96.5067 41.0268 97.5817 41.32 98.4286 41.9063C99.2973 42.4927 99.938 43.3071 100.351 44.3495C100.785 45.3702 101.002 46.5537 101.002 47.9002C101.002 49.2249 100.785 50.3976 100.351 51.4183C99.9162 52.439 99.2647 53.2316 98.3961 53.7963C97.5491 54.3609 96.4959 54.6432 95.2363 54.6432ZM94.6499 52.5584C95.6489 52.5584 96.4416 52.3304 97.0279 51.8743C97.6143 51.4183 98.0269 50.8319 98.2658 50.1153C98.5264 49.3986 98.6567 48.6494 98.6567 47.8676C98.6567 47.0641 98.5155 46.3148 98.2332 45.6199C97.9726 44.9033 97.5274 44.3278 96.8976 43.8934C96.2895 43.4374 95.486 43.2093 94.4871 43.2093C93.6618 43.2093 92.9452 43.4048 92.3371 43.7957C91.7507 44.1649 91.2947 44.6969 90.9689 45.3919C90.6649 46.0868 90.5129 46.9121 90.5129 47.8676C90.5129 48.8014 90.6758 49.6267 91.0015 50.3433C91.349 51.06 91.8268 51.6137 92.4348 52.0046C93.0646 52.3738 93.803 52.5584 94.6499 52.5584Z" fill="#002453"/>
<path d="M2.37799 54.3175H0V35.9777H12.7695V38.095H2.37799V43.6002H10.4892V45.6199H2.37799V54.3175Z" stroke="white" stroke-width="0.503751" mask="url(#path-8-inside-1_3566_5351)"/>
<path d="M16.9895 54.6432C15.5127 54.6432 14.2966 54.3175 13.3411 53.666C12.3855 52.9928 11.6797 52.1349 11.2237 51.0925C10.7676 50.0284 10.5396 48.9317 10.5396 47.8024C10.5396 46.5429 10.7893 45.3919 11.2888 44.3495C11.7883 43.3071 12.5158 42.4927 13.4714 41.9063C14.4269 41.2983 15.567 40.9942 16.8917 40.9942C18.0645 40.9942 19.096 41.244 19.9864 41.7435C20.8985 42.243 21.6151 42.9487 22.1363 43.8609C22.6793 44.773 22.9833 45.8588 23.0485 47.1184C23.0485 47.1835 23.0485 47.303 23.0485 47.4767C23.0485 47.6504 23.0485 47.8024 23.0485 47.9327H12.8524C12.8524 49.3878 13.2108 50.5279 13.9274 51.3531C14.6441 52.1784 15.643 52.591 16.9243 52.591C17.9016 52.591 18.7268 52.3521 19.4 51.8743C20.095 51.3749 20.5185 50.7016 20.6705 49.8547H23.0159C22.8856 50.7668 22.5598 51.592 22.0386 52.3304C21.5174 53.047 20.8225 53.6117 19.9538 54.0243C19.1069 54.4369 18.1187 54.6432 16.9895 54.6432ZM12.9176 46.6949H20.6053C20.6053 46.4126 20.5402 46.0651 20.4099 45.6525C20.3013 45.2181 20.1058 44.8055 19.8235 44.4146C19.5412 44.002 19.1612 43.6654 18.6834 43.4048C18.2056 43.1225 17.5975 42.9813 16.8592 42.9813C16.186 42.9813 15.6105 43.1008 15.1327 43.3396C14.6549 43.5568 14.264 43.85 13.96 44.2192C13.6559 44.5884 13.4171 44.9901 13.2433 45.4245C13.0913 45.8588 12.9827 46.2823 12.9176 46.6949Z" stroke="white" stroke-width="0.503751" mask="url(#path-8-inside-1_3566_5351)"/>
<path d="M23.8336 54.3175V35.9777H26.179V54.3175H23.8336Z" stroke="white" stroke-width="0.503751" mask="url(#path-8-inside-1_3566_5351)"/>
<path d="M27.2158 54.3175V35.9777H29.5612V54.3175H27.2158Z" stroke="white" stroke-width="0.503751" mask="url(#path-8-inside-1_3566_5351)"/>
<path d="M36.2335 54.6432C34.8002 54.6432 33.6058 54.3501 32.6502 53.7637C31.6947 53.1773 30.978 52.3738 30.5003 51.3531C30.0225 50.3325 29.7836 49.1597 29.7836 47.835C29.7836 46.5103 30.0225 45.3376 30.5003 44.3169C30.978 43.2745 31.6947 42.4601 32.6502 41.8738C33.6275 41.2874 34.8328 40.9942 36.2661 40.9942C38.3509 40.9942 39.9362 41.624 41.0221 42.8836C42.1296 44.1432 42.6834 45.8045 42.6834 47.8676C42.6834 49.1272 42.4554 50.2782 41.9993 51.3206C41.5433 52.3413 40.8375 53.1556 39.8819 53.7637C38.9264 54.3501 37.7102 54.6432 36.2335 54.6432ZM36.2335 52.5584C37.3411 52.5584 38.188 52.3195 38.7744 51.8418C39.3607 51.364 39.7625 50.7668 39.9797 50.0501C40.2185 49.3118 40.338 48.5517 40.338 47.7699C40.338 46.9881 40.2185 46.228 39.9797 45.4896C39.7625 44.7512 39.3607 44.1432 38.7744 43.6654C38.188 43.1876 37.3411 42.9487 36.2335 42.9487C35.1694 42.9487 34.3333 43.1876 33.7252 43.6654C33.1171 44.1432 32.6937 44.7512 32.4548 45.4896C32.2376 46.228 32.129 46.9881 32.129 47.7699C32.129 48.5517 32.2376 49.3118 32.4548 50.0501C32.6937 50.7668 33.1171 51.364 33.7252 51.8418C34.3333 52.3195 35.1694 52.5584 36.2335 52.5584Z" stroke="white" stroke-width="0.503751" mask="url(#path-8-inside-1_3566_5351)"/>
<path d="M45.2548 54.3175L41.8018 41.5154V40.9942H44.1147L46.9161 52.2978H46.9813L50.2714 40.9942H52.3888L55.744 52.2978H55.8091L58.578 40.9942H60.8909V41.5154L57.4705 54.3175H54.0501L51.3789 45.1639H51.3138L48.6752 54.3175H45.2548Z" stroke="white" stroke-width="0.503751" mask="url(#path-8-inside-1_3566_5351)"/>
<path d="M66.0477 54.6432C65.3962 54.6432 64.7664 54.5455 64.1583 54.3501C63.572 54.1763 63.0399 53.9266 62.5621 53.6008C62.1061 53.2751 61.7043 52.9167 61.3568 52.5258C61.0094 52.1349 60.7379 51.7223 60.5425 51.288C60.3687 50.8319 60.2819 50.3976 60.2819 49.985H62.5621C62.5621 50.0067 62.5838 50.1696 62.6273 50.4736C62.6707 50.7559 62.7902 51.0817 62.9856 51.4509C63.2028 51.8201 63.5502 52.1458 64.028 52.4281C64.5058 52.7104 65.1681 52.8516 66.0151 52.8516C66.6666 52.8516 67.2312 52.7756 67.709 52.6236C68.1868 52.4716 68.556 52.2435 68.8166 51.9395C69.0989 51.6355 69.2292 51.2663 69.2075 50.8319C69.2075 50.2456 68.9903 49.8004 68.556 49.4964C68.1433 49.1706 67.6004 48.9209 66.9272 48.7471C66.2757 48.5517 65.5808 48.3671 64.8424 48.1933C64.1257 48.0196 63.4417 47.7916 62.7902 47.5093C62.1386 47.227 61.6066 46.836 61.194 46.3366C60.7813 45.8154 60.5859 45.1204 60.6076 44.2518C60.6076 43.1008 61.0962 42.2104 62.0735 41.5806C63.0508 40.9508 64.2995 40.6359 65.8196 40.6359C66.5146 40.6359 67.1987 40.7119 67.8719 40.8639C68.5451 41.016 69.1532 41.2766 69.6961 41.6457C70.2607 41.9932 70.7059 42.471 71.0317 43.079C71.3791 43.6654 71.5312 44.4146 71.4877 45.3267H69.2726C69.2943 44.7404 69.1966 44.2626 68.9794 43.8934C68.7623 43.5242 68.4691 43.2419 68.0999 43.0465C67.7307 42.851 67.3398 42.7207 66.9272 42.6556C66.5363 42.5687 66.1671 42.5253 65.8196 42.5253C64.9293 42.5253 64.2017 42.6881 63.6371 43.0139C63.0942 43.3396 62.8227 43.7957 62.8227 44.3821C62.8227 44.9467 63.029 45.3919 63.4417 45.7176C63.8543 46.0217 64.3863 46.2714 65.0378 46.4669C65.7111 46.6406 66.4169 46.8143 67.1552 46.9881C67.8936 47.1401 68.5885 47.3681 69.24 47.6721C69.9133 47.9545 70.4562 48.3562 70.8688 48.8774C71.3031 49.3769 71.5203 50.0827 71.5203 50.9948C71.5203 51.8418 71.2814 52.5367 70.8036 53.0796C70.3476 53.6008 69.7069 53.9917 68.8817 54.2523C68.0565 54.5129 67.1118 54.6432 66.0477 54.6432Z" stroke="white" stroke-width="0.503751" mask="url(#path-8-inside-1_3566_5351)"/>
<path d="M71.6269 54.3175V35.9777H74.3987V44.2192H74.3515C74.395 44.1106 74.2764 43.8934 74.4284 43.5677C74.5804 43.2202 74.8302 42.851 75.1776 42.4601C75.5251 42.0692 75.9811 41.7326 76.5458 41.4503C77.1321 41.168 77.8596 41.0268 78.7283 41.0268C79.6621 41.0268 80.4331 41.168 81.0412 41.4503C81.6492 41.7326 82.1378 42.1235 82.507 42.623C82.8762 43.1008 83.1477 43.6437 83.3214 44.2518C83.4951 44.8598 83.6037 45.4679 83.6472 46.076C83.7123 46.684 83.7449 47.2595 83.7449 47.8024V54.3175H81.3995V47.7699C81.3995 46.8795 81.3018 46.0868 81.1063 45.3919C80.9326 44.6969 80.596 44.154 80.0965 43.7631C79.6187 43.3722 78.9129 43.1768 77.9791 43.1768C77.0235 43.1768 76.2635 43.4048 75.6988 43.8609C75.1342 44.3169 74.7216 44.9141 74.461 45.6525C74.2004 46.3691 74.0701 47.1509 74.0701 47.9979V54.3175H71.6269Z" stroke="white" stroke-width="0.503751" mask="url(#path-8-inside-1_3566_5351)"/>
<path d="M84.5913 54.3175V41.0268H87.0019V54.3175H84.5913ZM85.8292 39.1049C85.2428 39.1049 84.8411 38.9529 84.6239 38.6488C84.4285 38.3448 84.3307 37.9973 84.3307 37.6064C84.3307 37.2155 84.4285 36.8789 84.6239 36.5966C84.8411 36.2926 85.2428 36.1405 85.8292 36.1405C86.4155 36.1405 86.7956 36.2926 86.9693 36.5966C87.1648 36.8789 87.2625 37.2155 87.2625 37.6064C87.2625 37.9973 87.1648 38.3448 86.9693 38.6488C86.7956 38.9529 86.4155 39.1049 85.8292 39.1049Z" stroke="white" stroke-width="0.503751" mask="url(#path-8-inside-1_3566_5351)"/>
<path d="M95.2363 54.6432C94.3893 54.6432 93.6727 54.5021 93.0863 54.2198C92.5217 53.9374 92.0548 53.6117 91.6856 53.2425C91.3164 52.8516 91.0341 52.4933 90.8386 52.1675C90.6649 51.82 90.5563 51.6029 90.5129 51.516H90.4477V59.9204H88.0046V41.0268H90.0568L90.4803 44.2518H90.5455C90.5889 44.1432 90.6866 43.926 90.8386 43.6002C90.9907 43.2528 91.2404 42.8836 91.5879 42.4927C91.9571 42.0801 92.4348 41.7326 93.0212 41.4503C93.6075 41.168 94.335 41.0268 95.2037 41.0268C96.5067 41.0268 97.5817 41.32 98.4286 41.9063C99.2973 42.4927 99.938 43.3071 100.351 44.3495C100.785 45.3702 101.002 46.5537 101.002 47.9002C101.002 49.2249 100.785 50.3976 100.351 51.4183C99.9162 52.439 99.2647 53.2316 98.3961 53.7963C97.5491 54.3609 96.4959 54.6432 95.2363 54.6432ZM94.6499 52.5584C95.6489 52.5584 96.4416 52.3304 97.0279 51.8743C97.6143 51.4183 98.0269 50.8319 98.2658 50.1153C98.5264 49.3986 98.6567 48.6494 98.6567 47.8676C98.6567 47.0641 98.5155 46.3148 98.2332 45.6199C97.9726 44.9033 97.5274 44.3278 96.8976 43.8934C96.2895 43.4374 95.486 43.2093 94.4871 43.2093C93.6618 43.2093 92.9452 43.4048 92.3371 43.7957C91.7507 44.1649 91.2947 44.6969 90.9689 45.3919C90.6649 46.0868 90.5129 46.9121 90.5129 47.8676C90.5129 48.8014 90.6758 49.6267 91.0015 50.3433C91.349 51.06 91.8268 51.6137 92.4348 52.0046C93.0646 52.3738 93.803 52.5584 94.6499 52.5584Z" stroke="white" stroke-width="0.503751" mask="url(#path-8-inside-1_3566_5351)"/>
<path d="M91.8767 5.26094C91.7418 5.18398 91.7686 4.9777 91.9199 4.94201C92.803 4.73358 93.686 4.52464 94.5691 4.31487C94.7398 4.27433 94.8535 4.49293 94.7236 4.61089C94.2175 5.07066 93.7208 5.54001 93.2008 5.98459C93.1403 6.03625 93.052 6.03765 92.9886 5.9896C92.6357 5.72195 92.2627 5.48101 91.8767 5.26094Z" fill="#002453"/>
<path d="M83.2832 5.26094C83.4182 5.18398 83.3913 4.9777 83.2401 4.94201C82.357 4.73358 81.4739 4.52464 80.5908 4.31487C80.4202 4.27433 80.3065 4.49293 80.4364 4.61089C80.9424 5.07066 81.4391 5.54001 81.9592 5.98459C82.0196 6.03625 82.108 6.03765 82.1713 5.9896C82.5242 5.72195 82.8973 5.48101 83.2832 5.26094Z" fill="#002453"/>
</g>
<defs>
<clipPath id="clip0_3566_5351">
<rect width="101" height="64" fill="white"/>
</clipPath>
</defs>
</svg>
