<svg width="148" height="64" viewBox="0 0 148 64" fill="none" xmlns="http://www.w3.org/2000/svg">
<path d="M112.6 27.3467C112.6 30.4467 115 32.8467 118 32.8467C121.1 32.8467 123.8 30.3467 123.8 27.3467C123.8 24.6467 121.7 21.9467 118.2 21.9467C115.3 21.9467 112.6 24.4467 112.6 27.3467ZM114.5 26.5467C114.5 24.7467 115.6 22.8467 117.7 22.8467C120.3 22.8467 121.9 25.6467 121.9 28.4467C121.9 30.2467 120.7 32.1467 118.7 32.1467C116.1 32.0467 114.5 29.2467 114.5 26.5467ZM111 21.8467H110.7C110.6 21.9467 110.5 22.0467 110 22.0467H102.6C102 22.0467 101.9 21.8467 101.9 21.8467H101.5V21.9467C101.5 22.0467 100.7 23.9467 100.7 24.0467V24.1467L101.2 24.4467V24.3467C101.5 23.4467 101.9 23.0467 103.7 23.0467C104.3 23.0467 104.8 23.0467 105.1 23.1467C105.2 24.5467 105.2 25.9467 105.2 26.9467C105.2 27.9467 105.2 30.8467 105.1 31.5467C105.1 31.7467 105 31.9467 104.1 32.0467L103.4 32.1467H103.1L103.2 32.7467L104.1 32.6467H108.7V32.5467L108.8 32.0467H108.2C107.8 31.9467 107.4 31.8467 107.3 31.7467C107.2 31.6467 107 30.9467 107 27.8467V25.6467L107.1 23.1467C107.1 22.9467 107.1 22.9467 108.1 22.9467H108.8C110.5 22.9467 110.6 23.3467 110.9 24.0467L111 24.2467L111.5 23.9467L111.4 23.3467C111.3 22.7467 111.1 22.0467 111 21.8467ZM95.5 22.0467C95.5 22.0467 96.4 22.1467 96.6 22.1467H98.9V22.7467H98.8C98.2 22.7467 97.6 22.8467 97.5 23.5467C97.4 23.9467 97.4 27.2467 97.4 28.6467C97.4 29.6467 97.4 31.8467 97.5 32.6467V32.7467H96.8L89.2 24.8467V25.4467L89 29.8467C89 31.5467 89 31.7467 91 32.1467H91.1V32.7467L90.3 32.6467L89.1 32.5467L86.6 32.6467V32.0467L87.3 31.9467C87.7 31.8467 87.9 31.8467 88 31.2467C88.1 30.6467 88.2 28.5467 88.2 27.9467V26.1467C88.3 23.1467 88 23.0467 86.6 22.7467H86.5V22.1467L87.2 22.2467H89.2C89.2 22.2467 96.4 29.7467 96.5 29.8467V27.0467C96.4 22.8467 96.8 22.8467 94.7 22.6467H94.6L94.7 22.1467C94.8 22.0467 95.5 22.0467 95.5 22.0467ZM79 21.9467C82.5 21.9467 84.6 24.6467 84.6 27.3467C84.6 30.3467 82 32.8467 78.8 32.8467C75.8 32.8467 73.4 30.4467 73.4 27.3467C73.5 24.4467 76.1 21.9467 79 21.9467ZM79.6 32.0467C81.5 32.0467 82.8 30.1467 82.8 28.3467C82.8 25.6467 81.2 22.7467 78.6 22.7467C76.5 22.7467 75.4 24.6467 75.4 26.4467C75.3 29.2467 76.9 32.0467 79.6 32.0467ZM66.5 22.0467C68.7 22.0467 70.3 23.2467 70.3 24.9467C70.3 26.3467 69.1 27.2467 67.9 27.5467C70 30.5467 70.4 31.0467 71.3 31.7467C71.3 31.7467 72 32.4467 72.8 32.4467H72.9V33.0467H72.8C71 33.0467 70 32.3467 69.5 31.9467C67.9 30.7467 66.3 28.2467 66 27.7467H64.7V29.6467C64.7 30.3467 64.7 31.3467 64.9 31.7467C65 31.9467 65.9 32.1467 66.3 32.3467H66.4V32.9467H66.3C65.7 32.8467 64.7 32.7467 64 32.7467C63.6 32.7467 62 32.8467 61.6 32.8467H61.5L61.4 32.3467H61.5C61.7 32.3467 62.6 32.1467 62.8 31.7467C63 31.4467 63 29.5467 63 28.7467V26.0467C63 22.8467 62.9 22.8467 61.6 22.8467H61.5V22.2467H63.6C63.8 22.2467 64.5 22.1467 65 22.1467L66.5 22.0467ZM64.8 26.9467H65.9C66.8 26.9467 68.4 26.6467 68.4 24.9467C68.4 24.0467 67.7 22.6467 65.9 22.6467C64.9 22.6467 64.9 22.6467 64.8 24.4467V26.9467ZM54 21.9467C57.5 21.9467 59.6 24.6467 59.6 27.3467C59.6 30.3467 57 32.8467 53.9 32.8467C50.9 32.8467 48.5 30.4467 48.5 27.3467C48.4 24.4467 51 21.9467 54 21.9467ZM54.5 32.0467C56.4 32.0467 57.7 30.1467 57.7 28.3467C57.7 25.6467 56.1 22.7467 53.5 22.7467C51.4 22.7467 50.3 24.6467 50.3 26.4467C50.2 29.2467 51.8 32.0467 54.5 32.0467ZM46.7 21.8467H46.4C46.4 21.9467 46.2 22.0467 45.7 22.0467H38.3C37.7 22.0467 37.6 21.8467 37.6 21.8467H37.2V21.9467C37.2 22.0467 36.4 23.9467 36.4 24.0467V24.1467L36.9 24.4467V24.3467C37.2 23.4467 37.6 23.0467 39.4 23.0467C40 23.0467 40.5 23.0467 40.8 23.1467C40.9 24.5467 40.9 25.9467 40.9 26.9467C40.9 27.9467 40.9 30.8467 40.8 31.5467C40.8 31.7467 40.7 31.9467 39.8 32.0467L39.1 32.1467H38.8L38.9 32.7467L39.8 32.6467H44.4V32.5467L44.5 32.0467H43.9C43.5 31.9467 43.1 31.8467 43 31.7467C42.9 31.6467 42.7 30.9467 42.7 27.8467V25.6467L42.8 23.1467C42.8 22.9467 42.8 22.9467 43.8 22.9467H44.5C46.2 22.9467 46.4 23.3467 46.6 24.0467L46.7 24.2467L47.2 23.9467L47.1 23.3467C47 22.7467 46.8 22.0467 46.7 21.8467ZM27 22.0467C25.5 22.2467 25.1 22.2467 23.4 22.2467H21.6L19.7 22.1467H19.1L18.6 22.2467V22.7467H18.7C19.2 22.7467 19.6 22.8467 19.8 23.0467C20.1 23.4467 20.1 23.8467 20.1 27.5467C20.1 29.3467 19.9 31.2467 19.9 31.5467C19.8 31.9467 19.2 32.1467 18.8 32.1467H18.7V32.7467H18.8C19.8 32.6467 21 32.6467 21.3 32.6467H22.2L23.9 32.7467V32.1467H23.8C22.6 32.0467 22.2 31.8467 22 31.6467C21.9 31.4467 21.8 30.8467 21.8 30.1467V29.5467C21.8 29.5467 21.8 27.9467 21.9 27.6467H22.8C23.8 27.6467 25 27.8467 25.3 28.0467C25.5 28.1467 25.6 28.4467 25.7 28.9467V29.0467H26.2V28.9467C26.3 27.8467 26.3 26.7467 26.3 25.9467V25.8467H25.7V25.9467C25.6 26.7467 25.5 27.0467 23.4 27.0467C22.8 27.0467 22.6 27.0467 22 26.9467V23.1467C22.6 23.0467 23.1 23.0467 23.3 23.0467C24.5 23.0467 25.5 23.2467 25.9 23.5467C26.2 23.8467 26.4 24.2467 26.5 24.5467V24.6467H27.1V24.5467C27.1 24.3467 27.1 23.8467 27.2 23.3467L27.3 22.2467L27 22.0467ZM10.9 21.9467C14.4 21.9467 16.5 24.6467 16.5 27.3467C16.5 30.3467 13.9 32.8467 10.7 32.8467C7.7 32.8467 5.3 30.4467 5.3 27.3467C5.3 24.4467 7.89999 21.9467 10.9 21.9467ZM11.5 32.0467C13.4 32.0467 14.7 30.1467 14.7 28.3467C14.7 25.6467 13.1 22.7467 10.5 22.7467C8.4 22.7467 7.3 24.6467 7.3 26.4467C7.2 29.2467 8.8 32.0467 11.5 32.0467ZM-8.39999 22.1467V22.6467H-8.3C-7.8 22.6467 -7 22.7467 -7 23.1467C-7 23.2467 -7.2 23.8467 -9.2 26.7467C-10.1 25.7467 -12 23.2467 -12 22.9467C-12 22.8467 -12 22.6467 -10.8 22.6467H-10.7V22.0467H-15.7V22.6467H-15.6C-15.1 22.6467 -14.8 22.7467 -14.5 22.8467C-13.9 23.2467 -11.6 26.1467 -11.5 26.3467C-11.5 26.3467 -10.6 27.5467 -10.5 27.6467C-10.4 28.3467 -10.4 29.2467 -10.4 30.2467C-10.4 31.8467 -10.4 32.1467 -11.9 32.2467H-12V32.7467H-11.9C-11.7 32.7467 -11 32.7467 -10.3 32.6467L-9.2 32.5467H-8.10001L-6.89999 32.6467V32.1467H-7C-8.5 32.0467 -8.5 31.8467 -8.5 31.5467V31.4467C-8.5 30.7467 -8.60001 30.0467 -8.60001 29.2467V27.3467L-6.5 24.1467C-5.8 23.1467 -6.00001 22.5467 -4.60001 22.5467H-4.5V21.9467H-7.39999C-7.49999 22.1467 -8.29999 22.0467 -8.39999 22.1467ZM-17.8 21.8467H-18.1C-18.2 21.9467 -18.3 22.0467 -18.8 22.0467H-26.2C-26.8 22.0467 -26.9 21.8467 -26.9 21.8467H-27.3V21.9467C-27.3 22.0467 -28.1 23.9467 -28.1 24.0467V24.1467L-27.6 24.4467V24.3467C-27.3 23.4467 -26.9 23.0467 -25.1 23.0467C-24.5 23.0467 -24 23.0467 -23.7 23.1467C-23.6 24.5467 -23.6 25.9467 -23.6 26.9467C-23.6 27.9467 -23.6 30.8467 -23.7 31.5467C-23.7 31.7467 -23.8 31.9467 -24.7 32.0467L-25.4 32.1467H-25.7L-25.6 32.7467L-24.7 32.6467H-20.1V32.5467L-20 32.0467H-20.6C-21.1 31.9467 -21.4 31.8467 -21.5 31.7467C-21.6 31.6467 -21.8 30.9467 -21.8 27.8467L-21.7 25.6467L-21.6 23.1467C-21.6 22.9467 -21.6 22.9467 -20.6 22.9467H-19.9C-18.2 22.9467 -18 23.3467 -17.8 24.0467L-17.7 24.2467L-17.2 23.9467L-17.3 23.3467C-17.5 22.7467 -17.7 22.0467 -17.8 21.8467ZM-35.6 22.2467V22.7467H-35.5C-34.1 22.7467 -33.9 23.0467 -33.8 23.3467C-33.6 23.8467 -33.6 26.8467 -33.6 27.9467V28.1467C-33.6 29.0467 -33.6 31.1467 -33.9 31.6467C-34 31.8467 -34.4 32.0467 -35.7 32.2467H-35.8V32.7467L-34.1 32.6467H-32.6L-30 32.7467V32.1467C-31.1 32.1467 -31.5 32.1467 -31.6 31.6467C-31.7 31.4467 -31.7 30.4467 -31.7 28.6467C-31.7 24.5467 -31.7 23.4467 -31.4 23.0467C-31.1 22.5467 -30.1 22.6467 -29.8 22.6467H-29.7V22.0467H-34.5L-35.6 22.2467ZM-45 25.0467C-45 26.8467 -43.5 27.4467 -42.3 27.9467H-42.2C-40.3 28.7467 -39.4 29.0467 -39.4 30.4467C-39.4 31.2467 -40 32.0467 -41.3 32.0467C-42.4 32.0467 -43.3 31.5467 -43.8 31.1467C-44.4 30.6467 -44.6 29.8467 -44.6 29.6467V29.5467H-45.2V29.6467C-44.8 30.8467 -44.7 31.3467 -44.8 32.6467V32.7467H-44.3V32.6467C-44.3 32.5467 -44.2 32.3467 -44.1 32.3467C-44 32.3467 -43.6 32.4467 -43.4 32.4467H-43.1C-42.8 32.5467 -42.5 32.6467 -41.8 32.6467C-39.2 32.6467 -37.8 31.0467 -37.8 29.6467C-37.8 27.5467 -39.9 26.7467 -41.2 26.2467C-42.5 25.7467 -43.5 25.3467 -43.5 24.2467C-43.5 23.2467 -42.7 22.5467 -41.5 22.5467C-40.4 22.5467 -39.7 23.1467 -39.5 23.3467C-39.1 23.7467 -39 24.2467 -38.9 24.6467V24.7467H-38.3L-38.4 23.3467C-38.4 22.8467 -38.3 22.3467 -38.2 22.1467V22.0467L-38.7 21.9467L-39 22.1467C-40 21.8467 -40.5 21.8467 -41.1 21.8467C-43.4 22.0467 -45 23.2467 -45 25.0467ZM-52.5 22.0467C-50.3 22.0467 -48.7 23.2467 -48.7 24.9467C-48.7 26.3467 -49.9 27.2467 -51.1 27.5467C-49 30.5467 -48.6 31.0467 -47.7 31.7467C-47.7 31.7467 -47 32.4467 -46.2 32.4467H-46.1V33.0467H-46.2C-48 33.0467 -49 32.3467 -49.5 31.9467C-51.1 30.7467 -52.7 28.2467 -53 27.7467H-54.3V29.6467C-54.3 30.3467 -54.3 31.3467 -54.1 31.7467C-54 31.9467 -53.1 32.1467 -52.7 32.3467H-52.6V32.9467H-52.7C-53.3 32.8467 -54.3 32.7467 -55 32.7467C-55.4 32.7467 -57 32.8467 -57.4 32.8467H-57.5L-57.6 32.3467H-57.5C-57.3 32.3467 -56.4 32.1467 -56.2 31.7467C-56 31.4467 -56 29.5467 -56 28.7467V26.0467C-56 22.8467 -56.1 22.8467 -57.4 22.8467H-57.5V22.2467H-55.4C-55.2 22.2467 -54.5 22.1467 -53.9 22.1467L-52.5 22.0467ZM-54.2 26.9467H-53.1C-52.2 26.9467 -50.6 26.6467 -50.6 24.9467C-50.6 24.0467 -51.3 22.6467 -53.1 22.6467C-54.1 22.6467 -54.1 22.6467 -54.2 24.4467V26.9467ZM-60.7 22.0467C-62 22.1467 -64.1 22.1467 -65.4 22.1467C-66.2 22.1467 -68.3 22.1467 -69.1 22.0467H-69.2V22.5467H-69.1C-68.2 22.7467 -68.1 22.7467 -68.1 22.9467C-68 23.1467 -67.9 24.1467 -67.9 27.3467C-67.9 28.7467 -68 30.8467 -68.1 31.5467C-68.2 31.9467 -68.6 32.0467 -69.3 32.0467H-69.4L-69.3 32.6467H-69.2C-67.8 32.4467 -66 32.4467 -65 32.4467L-60.7 32.5467V32.4467C-60.5 32.1467 -60.1 31.5467 -59.9 29.8467V29.7467H-60.4V29.8467C-60.8 30.8467 -61.5 31.8467 -64.1 31.8467C-65 31.8467 -65.4 31.7467 -65.9 31.5467C-65.9 31.2467 -66 30.8467 -66 29.5467V27.6467C-65.3 27.5467 -64.7 27.5467 -64.4 27.5467C-62.3 27.5467 -62.2 27.7467 -61.9 28.9467V29.0467H-61.4V28.9467C-61.4 27.5467 -61.4 27.2467 -61.3 25.7467V25.6467H-62V25.7467C-62.2 26.5467 -62.4 26.6467 -62.7 26.7467C-64.2 26.9467 -65.7 26.8467 -66.1 26.8467V25.4467C-66.1 24.7467 -66 23.7467 -65.9 22.9467C-65.3 22.8467 -64.3 22.7467 -63.9 22.7467C-62.7 22.7467 -62 22.9467 -61.7 23.2467C-61.4 23.5467 -61.4 23.9467 -61.5 24.3467V24.4467L-60.9 24.5467V24.4467C-60.9 24.3467 -60.8 23.9467 -60.8 23.6467L-60.7 23.2467C-60.6 22.7467 -60.6 22.4467 -60.7 22.0467ZM-83.8 22.2467V22.7467H-83.7C-82.3 22.9467 -82.2 22.9467 -81.1 25.2467L-78.7 30.0467C-78.3 30.8467 -77.7 32.1467 -77.5 32.8467V32.9467H-77V32.8467C-76.6 31.7467 -76.4 31.0467 -75.5 29.4467L-72.9 24.4467C-72.3 23.2467 -72 22.9467 -70.9 22.7467H-70.8V22.1467H-72.9L-74.9 22.0467V22.6467H-74.8C-74.3 22.6467 -73.6 22.7467 -73.6 23.2467C-73.6 23.5467 -73.8 24.0467 -74 24.4467V24.5467C-74.5 25.7467 -74.9 26.3467 -75.2 27.0467L-76.4 29.4467L-76.7 30.0467C-77.9 28.2467 -80 23.2467 -80 22.9467C-80 22.8467 -80 22.8467 -79.1 22.7467H-78.8V22.1467H-81.3C-81.8 22.2467 -83 22.1467 -83.8 22.2467ZM-90.9 22.2467V22.7467H-90.8C-89.4 22.7467 -89.2 23.0467 -89.1 23.3467C-88.9 23.8467 -88.9 26.8467 -88.9 27.9467V28.1467C-88.9 29.0467 -88.9 31.1467 -89.2 31.6467C-89.3 31.8467 -89.7 32.0467 -91 32.2467H-91.1V32.7467L-89.4 32.6467H-87.9L-85.3 32.7467V32.1467H-85.4C-86.5 32.1467 -86.9 32.1467 -87 31.6467C-87.1 31.4467 -87.1 30.4467 -87.1 28.6467C-87.1 24.5467 -87.1 23.4467 -86.8 23.0467C-86.5 22.5467 -85.5 22.6467 -85.2 22.6467H-85.1V22.0467H-89.9L-90.9 22.2467ZM-96.3 22.0467C-96.3 22.0467 -95.4 22.1467 -95.2 22.1467H-92.9V22.7467H-93C-93.6 22.7467 -94.2 22.8467 -94.3 23.5467C-94.4 23.9467 -94.4 27.2467 -94.4 28.6467V32.7467H-95.1L-102.7 24.8467V25.4467L-102.8 29.8467C-102.8 31.5467 -102.8 31.7467 -100.8 32.1467H-100.7V32.7467L-101.5 32.6467L-102.7 32.5467L-105.2 32.6467V32.0467L-104.5 31.9467C-104.1 31.8467 -103.9 31.8467 -103.8 31.2467C-103.7 30.6467 -103.6 28.5467 -103.6 27.9467V26.1467C-103.5 23.1467 -103.8 23.0467 -105.2 22.7467H-105.3V22.1467L-104.5 22.2467H-102.5C-102.5 22.2467 -95.3 29.7467 -95.2 29.8467V27.0467C-95.3 22.8467 -94.9 22.8467 -97 22.6467H-97.1L-97 22.1467C-96.9 22.0467 -96.3 22.0467 -96.3 22.0467ZM-114.3 22.1467L-114.2 22.7467H-114.3C-115.9 22.8467 -116.1 22.9467 -116.1 26.5467V28.5467C-116.1 29.6467 -116.1 32.0467 -113.1 32.0467C-109.8 32.0467 -109.6 29.9467 -109.6 26.4467V25.5467C-109.6 24.8467 -109.7 23.4467 -110 23.1467C-110.2 22.9467 -110.8 22.8467 -111.3 22.8467H-111.4V22.2467H-107.3V22.8467H-107.4C-108.6 22.9467 -108.6 23.2467 -108.7 23.9467V25.5467C-108.8 30.5467 -109 33.0467 -113.6 33.0467C-116.5 33.0467 -118 31.7467 -118 29.4467L-117.9 26.0467C-117.9 24.4467 -118 23.2467 -118.3 23.1467C-118.5 23.0467 -118.7 23.0467 -119.4 23.0467H-119.5V22.4467H-119.4C-119.2 22.4467 -117.7 22.3467 -117 22.3467H-116.4C-115.6 22.1467 -114.7 22.1467 -114.3 22.1467Z" fill="#002453"/>
<path d="M-111.602 46.0461C-111.702 46.5461 -111.702 46.6461 -112.202 48.0461C-112.502 47.9461 -112.802 47.9461 -113.202 47.9461H-119.102V47.5461C-118.902 47.5461 -118.502 47.4461 -118.302 47.2461C-118.102 46.9461 -118.102 46.8461 -118.002 43.3461V40.1461C-118.102 39.5461 -118.502 39.5461 -118.902 39.4461V39.1461H-115.302V39.5461C-115.802 39.6461 -116.202 39.6461 -116.302 39.9461C-116.502 40.3461 -116.502 42.9461 -116.502 43.5461V45.7461C-116.502 46.6461 -116.502 47.0461 -116.402 47.2461C-116.302 47.4461 -115.902 47.4461 -115.302 47.4461C-112.502 47.4461 -112.202 46.8461 -112.002 46.1461L-111.602 46.0461ZM-103.402 44.8461H-103.702C-103.902 43.6461 -103.902 43.5461 -106.102 43.5461C-106.702 43.5461 -106.902 43.5461 -107.202 43.6461V45.5461C-107.202 46.3461 -107.102 46.8461 -107.002 47.2461C-106.502 47.3461 -105.802 47.4461 -105.002 47.4461C-102.902 47.4461 -102.502 46.3461 -102.302 45.8461H-102.002C-102.102 46.6461 -102.202 47.0461 -102.602 48.0461C-104.502 47.9461 -105.002 47.9461 -106.302 47.9461C-107.602 47.9461 -108.202 47.9461 -109.602 48.0461V47.6461C-109.102 47.5461 -108.802 47.4461 -108.702 47.0461C-108.602 46.2461 -108.502 43.7461 -108.502 42.8461C-108.502 42.4461 -108.602 40.7461 -108.602 40.3461C-108.702 39.5461 -108.802 39.4461 -109.302 39.3461H-109.502V39.1461H-105.002C-104.002 39.1461 -103.502 39.1461 -102.602 39.0461C-102.602 40.0461 -102.802 40.9461 -103.002 40.9461H-103.302C-103.302 40.7461 -103.202 40.5461 -103.202 40.3461C-103.202 39.8461 -103.802 39.5461 -105.202 39.5461C-105.802 39.5461 -106.402 39.6461 -107.002 39.7461C-107.102 40.6461 -107.102 41.1461 -107.102 41.9461V43.1461H-105.802C-104.802 43.1461 -104.102 43.0461 -103.902 42.9461C-103.702 42.8461 -103.502 42.1461 -103.502 42.1461H-103.202V44.8461H-103.402ZM-99.8016 45.5461C-99.6016 46.2461 -99.4016 46.7461 -98.4016 47.1461C-97.8016 47.4461 -97.0016 47.6461 -96.4016 47.6461C-96.1016 47.6461 -95.0016 47.5461 -95.0016 46.1461C-95.0016 44.9461 -96.0016 44.5461 -97.3016 44.1461C-98.6016 43.6461 -99.7016 43.1461 -99.7016 41.5461C-99.7016 40.0461 -98.5016 39.0461 -96.7016 39.0461C-96.4016 39.0461 -95.0016 39.2461 -94.7016 39.2461C-94.6016 39.2461 -94.4016 39.2461 -94.3016 39.1461L-94.1016 39.2461C-94.1016 39.3461 -94.2016 40.0461 -94.2016 40.0461V41.2461H-94.5016C-94.8016 39.4461 -96.8016 39.4461 -96.9016 39.4461C-98.2016 39.4461 -98.5016 40.3461 -98.5016 41.0461C-98.5016 41.7461 -98.2016 42.2461 -96.5016 42.8461C-95.3016 43.2461 -93.8016 43.8461 -93.8016 45.6461C-93.8016 46.5461 -94.3016 48.1461 -97.1016 48.1461C-97.8016 48.1461 -98.5016 48.0461 -99.1016 47.9461H-99.3016C-99.4016 47.9461 -99.4016 48.0461 -99.4016 48.0461H-99.8016C-99.8016 47.2461 -99.9016 46.8461 -100.202 45.6461L-99.8016 45.5461ZM-84.2016 46.0461C-84.3016 46.5461 -84.3016 46.6461 -84.8016 48.0461C-85.1016 47.9461 -85.4016 47.9461 -85.8016 47.9461H-91.7016V47.5461C-91.5016 47.5461 -91.1016 47.4461 -90.9016 47.2461C-90.7016 46.9461 -90.7016 46.8461 -90.6016 43.3461V40.1461C-90.7016 39.5461 -91.1016 39.5461 -91.5016 39.4461V39.1461H-87.9016V39.5461C-88.4016 39.6461 -88.8016 39.6461 -88.9016 39.9461C-89.1016 40.3461 -89.1016 42.9461 -89.1016 43.5461V45.7461C-89.1016 46.6461 -89.1016 47.0461 -89.0016 47.2461C-88.9016 47.4461 -88.5016 47.4461 -87.9016 47.4461C-85.1016 47.4461 -84.8016 46.8461 -84.6016 46.1461L-84.2016 46.0461ZM-82.5016 47.5461C-82.0016 47.4461 -81.4016 47.4461 -81.2016 47.0461C-80.9016 46.5461 -80.9016 44.1461 -80.9016 43.4461C-80.9016 42.7461 -80.9016 40.1461 -81.1016 39.6461C-81.2016 39.5461 -81.3016 39.2461 -82.4016 39.2461V38.8461H-80.0016C-79.6016 38.8461 -78.4016 38.8461 -78.0016 38.7461V39.1461C-78.7016 39.1461 -78.9016 39.1461 -79.1016 39.3461C-79.4016 39.7461 -79.4016 42.1461 -79.4016 42.9461C-79.4016 43.6461 -79.4016 46.3461 -79.3016 46.7461C-79.2016 47.1461 -79.1016 47.2461 -78.0016 47.3461V47.7461H-82.4016V47.5461H-82.5016ZM-69.8016 44.8461H-70.1016C-70.3016 43.6461 -70.3016 43.5461 -72.5016 43.5461C-73.1016 43.5461 -73.3016 43.5461 -73.6016 43.6461V45.5461C-73.6016 46.3461 -73.5016 46.8461 -73.4016 47.2461C-72.9016 47.3461 -72.2016 47.4461 -71.4016 47.4461C-69.3016 47.4461 -68.9016 46.3461 -68.7016 45.8461H-68.4016C-68.5016 46.6461 -68.6016 47.0461 -69.0016 48.0461C-70.9016 47.9461 -71.4016 47.9461 -72.7016 47.9461C-74.0016 47.9461 -74.6016 47.9461 -76.0016 48.0461V47.6461C-75.5016 47.5461 -75.2016 47.4461 -75.1016 47.0461C-75.0016 46.2461 -74.9016 43.7461 -74.9016 42.8461C-74.9016 42.4461 -75.0016 40.7461 -75.0016 40.3461C-75.1016 39.5461 -75.2016 39.4461 -75.7016 39.3461H-75.9016V39.1461H-71.4016C-70.4016 39.1461 -69.9016 39.1461 -69.0016 39.0461C-69.0016 40.0461 -69.2016 40.9461 -69.4016 40.9461H-69.7016C-69.7016 40.7461 -69.6016 40.5461 -69.6016 40.3461C-69.6016 39.8461 -70.2016 39.5461 -71.6016 39.5461C-72.2016 39.5461 -72.8016 39.6461 -73.4016 39.7461C-73.5016 40.6461 -73.5016 41.1461 -73.5016 41.9461V43.1461H-72.2016C-71.2016 43.1461 -70.5016 43.0461 -70.3016 42.9461C-70.1016 42.8461 -69.9016 42.1461 -69.9016 42.1461H-69.6016V44.8461H-69.8016ZM-60.2016 44.3461C-60.2016 43.8461 -60.2016 41.5461 -60.3016 40.8461C-60.4016 39.6461 -60.4016 39.5461 -61.2016 39.4461V39.0461H-59.0016C-58.4016 39.0461 -57.3016 38.9461 -56.8016 38.9461C-53.8016 38.9461 -51.6016 40.8461 -51.6016 43.4461C-51.6016 45.4461 -53.0016 48.0461 -57.0016 48.0461C-57.4016 48.0461 -58.9016 47.9461 -59.2016 47.9461H-61.3016V47.5461C-60.4016 47.5461 -60.2016 47.4461 -60.2016 45.2461V44.3461ZM-57.1016 39.4461C-57.4016 39.4461 -58.0016 39.4461 -58.6016 39.7461C-58.7016 40.6461 -58.7016 41.4461 -58.7016 43.1461V47.1461C-58.2016 47.3461 -57.6016 47.5461 -56.8016 47.5461C-54.9016 47.5461 -53.4016 45.9461 -53.4016 43.4461C-53.4016 40.4461 -55.6016 39.4461 -57.1016 39.4461ZM-49.6016 45.9461C-49.7016 46.2461 -49.9016 46.7461 -49.9016 46.9461C-49.9016 47.4461 -49.2016 47.5461 -48.8016 47.6461V47.9461H-51.5016V47.6461C-51.3016 47.6461 -50.9016 47.5461 -50.6016 47.0461C-50.1016 46.2461 -47.6016 40.1461 -47.4016 39.6461C-47.3016 39.2461 -47.2016 39.0461 -47.1016 38.7461H-46.7016C-46.6016 39.0461 -46.5016 39.3461 -46.4016 39.8461C-46.1016 40.6461 -44.7016 44.3461 -44.4016 45.1461C-43.6016 47.4461 -43.3016 47.4461 -42.8016 47.5461V47.8461C-43.1016 47.8461 -43.5016 47.7461 -44.1016 47.7461C-45.0016 47.7461 -45.7016 47.8461 -46.1016 47.8461V47.5461C-45.7016 47.4461 -45.4016 47.3461 -45.4016 47.0461C-45.4016 46.8461 -46.1016 44.9461 -46.2016 44.7461H-47.2016C-47.7016 44.7461 -48.4016 44.7461 -49.1016 44.8461L-49.6016 45.9461ZM-48.9016 44.2461C-48.5016 44.3461 -48.0016 44.3461 -47.4016 44.3461C-46.9016 44.3461 -46.7016 44.3461 -46.5016 44.2461C-46.9016 43.1461 -47.3016 42.1461 -47.8016 41.1461L-48.9016 44.2461ZM-32.6016 45.4461V42.5461C-32.6016 39.5461 -32.7016 39.3461 -34.1016 39.2461L-34.0016 38.9461H-32.8016C-32.5016 38.9461 -32.1016 39.0461 -32.0016 39.0461H-30.8016V39.4461C-31.0016 39.4461 -31.4016 39.4461 -31.6016 39.7461C-31.9016 40.2461 -31.9016 42.6461 -31.9016 43.4461V48.0461H-32.3016C-32.8016 47.1461 -33.5016 46.3461 -34.3016 45.6461L-38.7016 41.4461C-38.9016 41.2461 -39.1016 41.0461 -39.3016 40.9461V42.1461L-39.4016 45.4461C-39.4016 46.7461 -39.4016 47.2461 -37.8016 47.5461V47.9461C-38.0016 47.9461 -38.2016 47.9461 -38.4016 47.8461H-39.2016C-39.5016 47.8461 -40.9016 47.9461 -41.2016 47.9461V47.5461C-40.3016 47.5461 -40.2016 47.0461 -40.2016 45.8461L-40.1016 41.6461C-40.1016 40.4461 -40.1016 39.4461 -41.3016 39.3461V38.9461H-39.2016C-38.3016 39.9461 -38.3016 40.0461 -35.9016 42.3461C-35.2016 43.0461 -34.6016 43.6461 -33.9016 44.2461L-32.6016 45.4461ZM-21.2016 43.0461C-20.7016 43.0461 -20.2016 43.1461 -19.8016 43.1461C-18.0016 43.1461 -18.0016 42.9461 -18.0016 42.2461H-17.6016V44.7461H-18.0016C-18.0016 43.9461 -18.0016 43.8461 -18.9016 43.7461C-19.6016 43.6461 -20.2016 43.6461 -21.2016 43.6461V46.2461C-21.2016 47.2461 -21.2016 47.5461 -19.7016 47.6461V48.0461H-23.7016V47.7461C-23.4016 47.6461 -23.0016 47.5461 -22.9016 47.2461C-22.7016 46.6461 -22.7016 44.4461 -22.7016 43.6461C-22.7016 42.9461 -22.7016 40.3461 -22.9016 39.8461C-23.1016 39.5461 -23.5016 39.4461 -23.9016 39.4461V39.1461H-20.0016C-17.9016 39.1461 -17.5016 39.1461 -16.9016 39.0461C-17.0016 39.5461 -17.0016 39.8461 -17.0016 40.9461H-17.4016C-17.5016 40.4461 -17.5016 40.1461 -17.7016 40.0461C-18.2016 39.6461 -19.5016 39.6461 -20.1016 39.6461C-20.5016 39.6461 -20.8016 39.6461 -21.2016 39.7461V43.0461ZM-14.6016 45.9461C-14.7016 46.2461 -14.9016 46.7461 -14.9016 46.9461C-14.9016 47.4461 -14.2016 47.5461 -13.8016 47.6461V47.9461H-16.5016V47.6461C-16.3016 47.6461 -15.9016 47.5461 -15.6016 47.0461C-15.1016 46.2461 -12.6016 40.1461 -12.4016 39.6461C-12.3016 39.2461 -12.2016 39.0461 -12.1016 38.7461H-11.7016C-11.6016 39.0461 -11.5016 39.3461 -11.4016 39.8461C-11.1016 40.6461 -9.70156 44.3461 -9.40156 45.1461C-8.60156 47.4461 -8.30157 47.4461 -7.80157 47.5461V47.8461C-8.10157 47.8461 -8.50157 47.7461 -9.10157 47.7461C-10.0016 47.7461 -10.7016 47.8461 -11.1016 47.8461V47.5461C-10.7016 47.4461 -10.4016 47.3461 -10.4016 47.0461C-10.4016 46.8461 -11.1016 44.9461 -11.2016 44.7461H-12.2016C-12.7016 44.7461 -13.4016 44.7461 -14.1016 44.8461L-14.6016 45.9461ZM-13.9016 44.2461C-13.5016 44.3461 -13.0016 44.3461 -12.4016 44.3461C-11.9016 44.3461 -11.7016 44.3461 -11.5016 44.2461C-11.9016 43.1461 -12.3016 42.1461 -12.8016 41.1461L-13.9016 44.2461ZM0.598442 47.6461C-0.701558 48.0461 -2.00156 48.0461 -2.20156 48.0461C-5.00156 48.0461 -7.10157 46.1461 -7.10157 43.4461C-7.10157 40.3461 -4.60156 38.8461 -1.90156 38.8461C-1.30156 38.8461 -0.80157 38.9461 -0.10157 39.1461C0.0984299 39.2461 0.298436 39.3461 0.498436 39.3461C0.598436 39.3461 0.79843 39.2461 0.89843 39.2461L1.09844 39.3461C0.998442 39.6461 0.698433 40.9461 0.698433 41.2461L0.498436 41.1461C0.398436 40.5461 0.398433 40.3461 0.198433 40.1461C-0.00156708 39.9461 -0.80157 39.3461 -2.10157 39.3461C-5.30157 39.3461 -5.30157 42.6461 -5.30157 43.3461C-5.30157 47.2461 -2.50156 47.5461 -1.90156 47.5461C-0.601558 47.5461 0.398439 46.8461 0.798439 45.6461H1.09844C1.09844 45.8461 1.09844 45.9461 0.998436 46.3461C0.998436 46.4461 0.798439 46.9461 0.798439 47.0461L0.598442 47.6461ZM4.29844 40.9461C4.29844 39.4461 4.09844 39.4461 3.29844 39.3461V39.0461H7.09844L7.19843 39.3461H6.99844C5.79844 39.5461 5.79844 39.5461 5.79844 43.1461C5.79844 45.6461 5.99844 46.3461 6.59844 46.7461C7.19844 47.2461 7.99843 47.3461 8.39843 47.3461C8.59843 47.3461 10.3984 47.3461 10.8984 46.0461C11.1984 45.2461 11.2984 43.6461 11.2984 41.8461C11.2984 39.5461 10.9984 39.5461 10.0984 39.4461L9.99844 39.0461H12.9984V39.4461C12.6984 39.4461 12.2984 39.4461 12.1984 39.7461C12.0984 39.9461 12.0984 41.4461 12.0984 41.8461C12.0984 43.0461 11.8984 45.6461 11.4984 46.5461C10.8984 47.8461 8.99843 48.0461 7.89843 48.0461C6.59843 48.0461 4.29844 47.7461 4.29844 45.2461C4.29844 44.8461 4.39843 43.0461 4.39843 42.6461L4.29844 40.9461ZM22.2984 46.0461C22.1984 46.5461 22.1984 46.6461 21.6984 48.0461C21.3984 47.9461 21.0984 47.9461 20.6984 47.9461H14.7984V47.5461C14.9984 47.5461 15.3984 47.4461 15.5984 47.2461C15.7984 46.9461 15.7984 46.8461 15.8984 43.3461V40.1461C15.7984 39.5461 15.3984 39.5461 14.9984 39.4461V39.1461H18.5984V39.5461C18.0984 39.6461 17.6984 39.6461 17.5984 39.9461C17.3984 40.3461 17.3984 42.9461 17.3984 43.5461V45.7461C17.3984 46.6461 17.3984 47.0461 17.4984 47.2461C17.5984 47.4461 17.9984 47.4461 18.5984 47.4461C21.3984 47.4461 21.6984 46.8461 21.8984 46.1461L22.2984 46.0461ZM30.7984 40.0461C30.2984 39.6461 29.2984 39.6461 28.6984 39.6461H27.7984C27.6984 40.8461 27.6984 43.3461 27.6984 45.7461C27.6984 47.2461 27.7984 47.2461 28.4984 47.4461C28.9984 47.5461 29.0984 47.5461 29.1984 47.5461V47.9461C28.9984 47.9461 27.9984 47.8461 27.7984 47.8461C26.3984 47.8461 26.2984 47.8461 24.7984 48.0461L24.6984 47.6461C24.8984 47.5461 25.9984 47.3461 26.0984 47.1461C26.2984 46.8461 26.2984 44.0461 26.2984 43.5461C26.2984 42.2461 26.2984 40.2461 26.1984 39.6461H24.8984C23.0984 39.6461 22.9984 39.9461 22.6984 40.4461L22.2984 40.3461C22.6984 39.4461 22.7984 38.9461 22.8984 38.7461H23.0984C23.1984 38.8461 23.4984 38.9461 23.6984 38.9461C24.2984 39.0461 26.3984 39.0461 27.0984 39.0461C28.0984 39.0461 30.1984 39.0461 31.0984 38.9461C31.2984 38.9461 31.2984 38.9461 31.3984 38.8461L31.5984 38.9461C31.4984 39.2461 31.2984 39.8461 31.1984 40.4461L30.7984 40.5461V40.0461ZM38.7984 43.7461C38.7984 44.2461 38.7984 46.8461 38.8984 47.1461C38.9984 47.4461 39.7984 47.6461 40.0984 47.6461V47.9461C39.5984 47.9461 38.8984 47.8461 38.2984 47.8461C37.9984 47.8461 36.4984 47.9461 36.1984 47.9461V47.6461C37.0984 47.5461 37.1984 47.3461 37.2984 47.0461C37.3984 46.7461 37.3984 44.7461 37.3984 44.2461V43.7461C36.9984 43.0461 36.5984 42.4461 35.0984 40.4461C34.5984 39.7461 34.0984 39.2461 33.1984 39.2461L33.0984 38.9461H37.0984L36.9984 39.3461C36.8984 39.3461 36.1984 39.3461 36.1984 39.6461C36.1984 39.9461 37.7984 42.0461 38.5984 43.1461C40.3984 40.3461 40.4984 40.1461 40.4984 39.8461C40.4984 39.4461 39.9984 39.4461 39.5984 39.4461V39.0461H42.5984V39.5461C41.5984 39.5461 41.0984 39.9461 39.3984 42.8461L38.7984 43.7461ZM49.9984 41.2461C51.6984 41.2461 52.9984 42.5461 52.9984 44.1461C52.9984 45.6461 51.7984 47.1461 49.9984 47.1461C48.0984 47.1461 46.9984 45.7461 46.9984 44.1461C46.8984 42.3461 48.3984 41.2461 49.9984 41.2461ZM50.1984 46.8461C50.7984 46.8461 51.9984 46.4461 51.9984 44.8461C51.9984 43.6461 51.3984 41.6461 49.7984 41.6461C49.3984 41.6461 47.9984 41.8461 47.9984 43.6461C47.9984 45.1461 48.6984 46.8461 50.1984 46.8461ZM55.9984 43.9461H56.8984C57.9984 43.9461 57.9984 43.8461 57.9984 43.3461H58.2984V44.9461H58.0984C58.0984 44.4461 58.0984 44.3461 57.5984 44.3461C57.1984 44.2461 56.7984 44.2461 56.0984 44.2461V45.8461C56.0984 46.4461 56.0984 46.6461 56.9984 46.7461V46.9461H54.4984V46.7461C54.6984 46.7461 54.9984 46.6461 54.9984 46.4461C55.0984 46.0461 55.0984 44.6461 55.0984 44.1461C55.0984 43.6461 55.0984 42.0461 54.9984 41.7461C54.8984 41.5461 54.5984 41.5461 54.3984 41.5461V41.3461H56.7984C58.1984 41.3461 58.3984 41.3461 58.7984 41.2461C58.7984 41.5461 58.6984 41.7461 58.6984 42.4461H58.4984C58.4984 42.1461 58.3984 41.9461 58.2984 41.8461C57.9984 41.6461 57.1984 41.5461 56.7984 41.5461H56.0984V42.5461L55.9984 43.9461ZM65.6984 45.8461C65.6984 46.4461 65.6984 47.0461 65.7984 47.2461C65.8984 47.5461 66.4984 47.6461 67.0984 47.6461V48.0461C66.8984 48.0461 66.5984 48.0461 66.3984 47.9461H65.1984C64.5984 47.9461 64.0984 48.0461 63.7984 48.0461H63.4984V47.7461C64.2984 47.5461 64.2984 47.4461 64.3984 47.2461C64.4984 46.8461 64.4984 45.2461 64.4984 44.7461C64.4984 44.1461 64.4984 43.8461 64.3984 41.6461C64.3984 39.5461 64.2984 39.4461 63.2984 39.4461V39.0461H66.4984C68.7984 39.0461 70.2984 40.5461 70.2984 42.0461C70.2984 42.9461 69.4984 44.9461 66.2984 44.9461H65.6984V45.8461ZM66.4984 39.4461C66.0984 39.4461 65.8984 39.5461 65.6984 39.6461C65.5984 41.8461 65.5984 42.1461 65.5984 44.2461C65.7984 44.2461 66.0984 44.3461 66.4984 44.3461C66.7984 44.3461 68.4984 44.3461 68.4984 42.0461C68.4984 40.0461 67.3984 39.4461 66.4984 39.4461ZM74.6984 45.3461C74.6984 45.6461 74.6984 46.9461 74.7984 47.1461C74.8984 47.4461 75.3984 47.5461 75.7984 47.6461V47.9461C75.3984 47.9461 73.5984 47.8461 73.4984 47.8461C73.0984 47.8461 72.6984 47.8461 72.2984 47.9461L72.1984 47.6461C73.0984 47.5461 73.1984 47.3461 73.1984 47.0461C73.3984 45.9461 73.3984 43.1461 73.3984 41.8461C73.3984 39.5461 73.2984 39.3461 72.3984 39.3461V38.9461H75.9984V39.2461C75.8984 39.2461 75.2984 39.3461 75.1984 39.4461C74.9984 39.5461 74.9984 39.5461 74.8984 40.1461C74.7984 41.1461 74.6984 41.6461 74.7984 42.9461H79.0984C79.5984 42.9461 79.6984 42.9461 79.9984 42.8461V41.4461C79.9984 39.4461 79.8984 39.2461 78.8984 39.1461L78.9984 38.8461C79.1984 38.8461 79.3984 38.8461 79.6984 38.9461H80.7984C81.6984 38.9461 82.0984 38.8461 82.4984 38.8461V39.1461C82.1984 39.1461 81.7984 39.2461 81.6984 39.6461C81.4984 40.2461 81.4984 44.4461 81.4984 45.3461C81.4984 47.1461 81.5984 47.4461 82.4984 47.4461V47.7461C82.0984 47.7461 81.5984 47.6461 80.6984 47.6461C80.0984 47.6461 79.5984 47.6461 78.9984 47.7461V47.4461C79.5984 47.4461 79.7984 47.2461 79.8984 46.9461C80.0984 46.3461 80.0984 44.8461 80.0984 43.5461C78.9984 43.4461 74.9984 43.4461 74.7984 43.4461L74.6984 45.3461ZM86.2984 45.9461C86.1984 46.2461 85.9984 46.7461 85.9984 46.9461C85.9984 47.4461 86.6984 47.5461 87.0984 47.6461V47.9461H84.3984V47.6461C84.5984 47.6461 84.9984 47.5461 85.2984 47.0461C85.7984 46.2461 88.2984 40.1461 88.4984 39.6461C88.5984 39.2461 88.6984 39.0461 88.7984 38.7461H89.1984C89.2984 39.0461 89.3984 39.3461 89.4984 39.8461C89.7984 40.6461 91.1984 44.3461 91.4984 45.1461C92.2984 47.4461 92.5984 47.4461 93.0984 47.5461V47.8461C92.7984 47.8461 92.3984 47.7461 91.7984 47.7461C90.8984 47.7461 90.1984 47.8461 89.7984 47.8461V47.5461C90.1984 47.4461 90.4984 47.3461 90.4984 47.0461C90.4984 46.8461 89.7984 44.9461 89.6984 44.7461H88.6984C88.1984 44.7461 87.4984 44.7461 86.7984 44.8461L86.2984 45.9461ZM86.9984 44.2461C87.3984 44.3461 87.8984 44.3461 88.4984 44.3461C88.9984 44.3461 89.1984 44.3461 89.3984 44.2461C88.9984 43.1461 88.5984 42.1461 88.0984 41.1461L86.9984 44.2461ZM94.7984 47.7461C95.3984 47.5461 95.5984 47.4461 95.6984 47.0461C95.7984 46.6461 95.7984 43.3461 95.7984 42.6461C95.7984 40.7461 95.7984 40.4461 95.6984 40.1461C95.5984 39.5461 94.9984 39.4461 94.6984 39.4461L94.7984 39.0461H95.9984C96.1984 39.0461 96.6984 39.0461 97.1984 38.9461C97.6984 38.9461 98.1984 38.8461 98.3984 38.8461C100.698 38.8461 101.598 40.1461 101.598 41.2461C101.598 42.3461 100.798 43.1461 99.5984 43.5461C101.198 46.6461 102.298 47.9461 103.698 48.0461V48.4461C102.298 48.4461 100.298 48.4461 97.9984 43.7461C97.5984 43.7461 97.4984 43.7461 97.0984 43.6461V45.0461C97.0984 45.5461 97.0984 46.9461 97.2984 47.2461C97.4984 47.5461 98.0984 47.6461 98.2984 47.6461L98.1984 47.9461C97.6984 47.8461 97.4984 47.8461 97.2984 47.8461H96.3984C95.7984 47.8461 95.6984 47.8461 94.5984 47.9461V47.7461H94.7984ZM98.1984 39.3461C97.4984 39.3461 97.4984 39.5461 97.3984 40.4461C97.2984 41.8461 97.2984 41.9461 97.3984 43.2461C97.5984 43.2461 97.6984 43.3461 98.0984 43.3461C98.7984 43.3461 100.298 43.3461 100.298 41.5461C100.198 40.9461 99.8984 39.3461 98.1984 39.3461ZM107.098 41.9461V40.9461C107.098 39.7461 106.698 39.4461 105.498 39.3461V38.9461H106.198C107.598 39.0461 107.598 39.0461 108.298 39.0461C109.398 41.3461 109.598 41.8461 110.698 43.7461C110.898 44.0461 111.698 45.5461 111.698 45.5461C111.998 44.8461 111.998 44.8461 112.598 43.8461L113.298 42.4461L114.998 39.0461H117.398V39.4461C116.298 39.6461 116.098 39.6461 116.098 41.1461C116.098 41.6461 116.198 46.0461 116.398 46.8461C116.498 47.3461 116.698 47.4461 117.498 47.4461V47.8461H115.698C114.498 47.8461 114.198 47.8461 113.598 47.9461V47.5461C114.598 47.2461 114.898 47.1461 114.898 45.6461C114.898 44.2461 114.798 42.2461 114.698 40.8461C112.898 44.2461 112.198 45.7461 111.298 47.8461H110.998C110.598 46.6461 110.498 46.3461 108.898 43.3461C108.498 42.6461 107.898 41.5461 107.798 41.1461C107.798 41.6461 107.798 41.6461 107.698 42.2461C107.598 43.6461 107.498 44.9461 107.498 46.1461C107.498 47.0461 107.598 47.2461 108.798 47.4461V47.7461H105.298V47.4461C106.698 47.2461 106.698 46.6461 106.798 44.8461L107.098 41.9461ZM121.498 45.9461C121.398 46.2461 121.198 46.7461 121.198 46.9461C121.198 47.4461 121.898 47.5461 122.298 47.6461V47.9461H119.598V47.6461C119.798 47.6461 120.198 47.5461 120.498 47.0461C120.998 46.2461 123.498 40.1461 123.698 39.6461C123.798 39.2461 123.898 39.0461 123.998 38.7461H124.398C124.498 39.0461 124.598 39.3461 124.698 39.8461C124.998 40.6461 126.398 44.3461 126.698 45.1461C127.498 47.4461 127.798 47.4461 128.298 47.5461V47.8461C127.998 47.8461 127.598 47.7461 126.998 47.7461C126.098 47.7461 125.398 47.8461 124.998 47.8461V47.5461C125.398 47.4461 125.698 47.3461 125.698 47.0461C125.698 46.8461 124.998 44.9461 124.898 44.7461H123.898C123.398 44.7461 122.698 44.7461 121.998 44.8461L121.498 45.9461ZM122.098 44.2461C122.498 44.3461 122.998 44.3461 123.598 44.3461C124.098 44.3461 124.298 44.3461 124.498 44.2461C124.098 43.1461 123.698 42.1461 123.198 41.1461L122.098 44.2461ZM136.798 47.6461C135.498 48.0461 134.198 48.0461 133.998 48.0461C131.198 48.0461 129.098 46.1461 129.098 43.4461C129.098 40.3461 131.598 38.8461 134.298 38.8461C134.898 38.8461 135.398 38.9461 136.098 39.1461C136.298 39.2461 136.498 39.3461 136.698 39.3461C136.798 39.3461 136.998 39.2461 137.098 39.2461L137.298 39.3461C137.198 39.6461 136.898 40.9461 136.898 41.2461L136.698 41.1461C136.598 40.5461 136.598 40.3461 136.398 40.1461C136.198 39.9461 135.398 39.3461 134.098 39.3461C130.898 39.3461 130.898 42.6461 130.898 43.3461C130.898 47.2461 133.698 47.5461 134.298 47.5461C135.598 47.5461 136.598 46.8461 136.998 45.6461H137.298C137.298 45.8461 137.298 45.9461 137.198 46.3461C137.198 46.4461 136.998 46.9461 136.998 47.0461L136.798 47.6461ZM143.898 43.7461C143.898 44.2461 143.898 46.8461 143.998 47.1461C144.098 47.4461 144.898 47.6461 145.198 47.6461V47.9461C144.698 47.9461 143.998 47.8461 143.398 47.8461C143.098 47.8461 141.598 47.9461 141.298 47.9461V47.6461C142.198 47.5461 142.298 47.3461 142.398 47.0461C142.498 46.7461 142.498 44.7461 142.498 44.2461V43.7461C142.098 43.0461 141.698 42.4461 140.198 40.4461C139.698 39.7461 139.198 39.2461 138.298 39.2461L138.198 38.9461H142.198L142.098 39.3461C141.998 39.3461 141.298 39.3461 141.298 39.6461C141.298 39.9461 142.898 42.0461 143.698 43.1461C145.498 40.3461 145.598 40.1461 145.598 39.8461C145.598 39.4461 145.098 39.4461 144.698 39.4461V39.0461H147.698V39.5461C146.698 39.5461 146.198 39.9461 144.498 42.8461L143.898 43.7461Z" fill="#002453"/>
</svg>
