<svg width="32" height="32" viewBox="0 0 32 32" fill="none" xmlns="http://www.w3.org/2000/svg">
<path d="M21.333 9.33333C21.333 8.97971 21.4735 8.64057 21.7235 8.39052C21.9736 8.14048 22.3127 8 22.6663 8C23.02 8 23.3591 8.14048 23.6092 8.39052C23.8592 8.64057 23.9997 8.97971 23.9997 9.33333C23.9997 9.68696 23.8592 10.0261 23.6092 10.2761C23.3591 10.5262 23.02 10.6667 22.6663 10.6667C22.3127 10.6667 21.9736 10.5262 21.7235 10.2761C21.4735 10.0261 21.333 9.68696 21.333 9.33333Z" fill="#131313"/>
<path d="M11.6634 11.6624C12.8136 10.5122 14.3737 9.86602 16.0003 9.86602C17.627 9.86602 19.187 10.5122 20.3372 11.6624C21.4875 12.8127 22.1337 14.3727 22.1337 15.9993C22.1337 17.626 21.4875 19.186 20.3372 20.3363C19.187 21.4865 17.627 22.1327 16.0003 22.1327C14.3737 22.1327 12.8136 21.4865 11.6634 20.3363C10.5132 19.186 9.86699 17.626 9.86699 15.9993C9.86699 14.3727 10.5132 12.8127 11.6634 11.6624ZM12.7948 12.7938C11.9446 13.644 11.467 14.797 11.467 15.9993C11.467 17.2017 11.9446 18.3547 12.7948 19.2049C13.6449 20.0551 14.798 20.5327 16.0003 20.5327C17.2026 20.5327 18.3557 20.0551 19.2059 19.2049C20.056 18.3547 20.5337 17.2017 20.5337 15.9993C20.5337 14.797 20.056 13.644 19.2059 12.7938C18.3557 11.9436 17.2026 11.466 16.0003 11.466C14.798 11.466 13.6449 11.9436 12.7948 12.7938Z" fill="#131313" stroke="#F2F6FB" stroke-width="0.4"/>
<path d="M4.02368 8.91073L4.02368 8.91072C4.32735 6.3089 6.41932 4.26687 9.01113 3.97698C13.6559 3.46185 18.3434 3.46184 22.9881 3.97696C25.5813 4.26681 27.672 6.30882 27.9757 8.91072L28.1744 8.88753L27.9757 8.91073C28.5258 13.6215 28.5258 18.3802 27.9757 23.091L28.1744 23.1142L27.9757 23.091C27.672 25.6929 25.58 27.7349 22.9881 28.0248C18.3433 28.5388 13.6559 28.5388 9.01103 28.0247C6.41797 27.7348 4.32735 25.6928 4.02368 23.091L3.82503 23.1142L4.02368 23.091C3.47362 18.3802 3.47362 13.6215 4.02368 8.91073ZM22.8114 5.56613L22.8111 5.56609C18.284 5.06407 13.7154 5.06407 9.18836 5.56608C8.28204 5.6664 7.43624 6.07068 6.78743 6.71084C6.13848 7.35113 5.72433 8.1915 5.61189 9.0962L5.61188 9.0962L5.61171 9.09762C5.07505 13.6841 5.07505 18.3176 5.61171 22.9041L5.61189 22.9055C5.72433 23.8102 6.13848 24.6506 6.78743 25.2909C7.43637 25.9312 8.28221 26.334 9.18832 26.4343C13.7154 26.9363 18.284 26.9363 22.8111 26.4343C23.7172 26.334 24.563 25.9312 25.212 25.2909C25.8609 24.6506 26.2751 23.8102 26.3875 22.9055L26.3877 22.9041C26.9243 18.3176 26.9243 13.6841 26.3877 9.09762L26.3877 9.09751C26.17 7.24637 24.6756 5.77637 22.8114 5.56613Z" fill="#131313" stroke="#F2F6FB" stroke-width="0.4"/>
</svg>
