<svg width="80" height="80" viewBox="0 0 80 80" fill="none" xmlns="http://www.w3.org/2000/svg">
<path d="M40 80C46.2776 80 51.4406 75.2278 52.0591 69.1133C56.8201 72.9996 63.8453 72.7232 68.2843 68.2843C72.7232 63.8453 72.9996 56.8201 69.1133 52.0591C75.2278 51.4406 80 46.2776 80 40C80 33.7224 75.2278 28.5594 69.1133 27.9409C72.9995 23.1799 72.7232 16.1547 68.2843 11.7157C63.8453 7.27679 56.8201 7.00044 52.0591 10.8867C51.4406 4.77219 46.2776 4.96851e-07 40 0C33.7224 -2.74403e-07 28.5594 4.7722 27.9409 10.8867C23.1799 7.00044 16.1547 7.27678 11.7157 11.7157C7.27678 16.1547 7.00045 23.1799 10.8867 27.9409C4.7722 28.5594 -1.40071e-06 33.7224 -1.40071e-06 40C-1.40071e-06 46.2776 4.77219 51.4406 10.8867 52.0591C7.00044 56.8201 7.27678 63.8453 11.7157 68.2843C16.1547 72.7232 23.1799 72.9996 27.9409 69.1133C28.5594 75.2278 33.7224 80 40 80Z" fill="#FFC26C"/>
</svg>
