<svg xmlns="http://www.w3.org/2000/svg" width="32" height="32" fill="none"><path fill="#000" d="M5.333 24q-.566 0-.949-.384a1.3 1.3 0 0 1-.384-.95q0-.565.384-.949.385-.384.95-.384h21.333q.566 0 .95.384t.383.95a1.3 1.3 0 0 1-.384.95 1.27 1.27 0 0 1-.95.383zm0-6.667q-.566 0-.949-.384A1.3 1.3 0 0 1 4 16q0-.565.384-.95.385-.383.95-.383h21.333q.566 0 .95.384T28 16q0 .566-.384.95a1.27 1.27 0 0 1-.95.383zm0-6.666q-.566 0-.949-.384A1.3 1.3 0 0 1 4 9.333q0-.565.384-.949Q4.769 8 5.334 8h21.333q.566 0 .95.384.384.383.383.95 0 .564-.384.95a1.28 1.28 0 0 1-.95.383z" opacity=".7"/></svg>