<svg xmlns="http://www.w3.org/2000/svg" width="101" height="64" fill="none"><g clip-path="url('#clip0_3566_5304')"><path fill="#002453" d="M83.104 7.32c-.257-.248-.236-.668.063-.863 1.344-.877 2.965-1.36 4.588-1.314 1.505.018 2.98.505 4.231 1.31.303.194.327.617.068.867-1.355 1.313-2.706 2.63-4.064 3.941a.587.587 0 0 1-.815 0c-1.36-1.311-2.713-2.629-4.071-3.94M83.45 10.198c.744-.224 1.63.188 1.86.92.282.735-.142 1.64-.925 1.873-.836.314-1.862-.256-1.983-1.12-.146-.71.318-1.483 1.047-1.673M90.81 10.185c.899-.294 1.933.393 1.969 1.309.088.864-.76 1.65-1.642 1.559-.762-.043-1.422-.727-1.388-1.47-.014-.623.45-1.22 1.062-1.398M86.437 14.029c-.178-.194-.042-.519.22-.519H88.5c.26 0 .394.316.217.506-.314.337-.632.686-.947 1.006a.28.28 0 0 1-.401.003c-.314-.313-.624-.662-.932-.997"/><path fill="#002453" d="M88.467 18.088a8.06 8.06 0 0 1 2.681-3.343c.295-.213.701-.117.898.188 2.706 4.193 5.398 8.395 8.094 12.594q.04.064.041.14c0 .093-.05.18-.131.224a8.5 8.5 0 0 1-2.894.966c-1.42.206-2.88.01-4.215-.488a.7.7 0 0 0-.457-.015c-.894.273-1.818.47-2.759.476-1.657.007-3.337-.397-4.741-1.263a8.56 8.56 0 0 1-3.23-3.433c-.956-1.887-1.166-4.12-.541-6.136.334-1.153.95-2.22 1.754-3.127a.63.63 0 0 1 .911-.022q.393.38.785.763c.195.19.254.479.167.737a8.82 8.82 0 0 0 .269 6.345c.833 1.995 2.456 3.63 4.427 4.6.541.267.864-.472.46-.92-.83-.86-1.427-1.92-1.785-3.042-.538-1.71-.424-3.59.266-5.244M88.775 29.45c.846.099 1.704.031 2.54-.119a.47.47 0 0 1 .362.082q.869.64 1.733 1.286c.346.257.184.787-.246.786-.787-.003-1.574-.035-2.36-.014a.43.43 0 0 1-.279-.087c-.218-.174-.408-.38-.607-.578a.41.41 0 0 0-.58 0c-.206.203-.407.412-.623.604-.109.1-.271.065-.404.077-1.51.001-3.019-.043-4.528-.02-.315.018-.386-.468-.086-.566 1.448-.476 2.891-.963 4.34-1.435.236-.1.492-.034.738-.015M9.593 31.78q-2.472 0-4.453-.886A8.7 8.7 0 0 1 1.88 28.34Q.674 26.78.257 24.669a.247.247 0 0 1 .2-.29l1.975-.357a.26.26 0 0 1 .293.19q.621 2.316 2.43 3.668 1.9 1.4 4.537 1.4 1.736 0 3.11-.585 1.376-.602 2.162-1.701t.786-2.606q0-.993-.328-1.684a3.4 3.4 0 0 0-.867-1.17 5.3 5.3 0 0 0-1.18-.762 9 9 0 0 0-1.244-.514l-5.976-1.933a10.4 10.4 0 0 1-1.998-.85 7 7 0 0 1-1.605-1.26 5.5 5.5 0 0 1-1.048-1.736q-.375-.993-.376-2.27 0-2.162 1.048-3.74T5.04 6.041t4.143-.834q2.358 0 4.208.904A8.07 8.07 0 0 1 16.47 8.7q1.148 1.577 1.56 3.71a.25.25 0 0 1-.196.29l-2.021.398a.26.26 0 0 1-.302-.21q-.273-1.501-1.087-2.629a5.85 5.85 0 0 0-2.26-1.879q-1.36-.674-2.996-.69-1.59 0-2.833.584-1.228.567-1.949 1.56a3.76 3.76 0 0 0-.72 2.27q0 1.293.655 2.073.67.78 1.637 1.223a16.5 16.5 0 0 0 1.9.727l4.617 1.471q.72.214 1.687.62.982.39 1.899 1.135.933.727 1.54 1.915.605 1.188.605 3.014 0 1.772-.655 3.173a6.4 6.4 0 0 1-1.817 2.357q-1.163.957-2.735 1.454-1.555.514-3.406.514M26.472 31.248a.25.25 0 0 1-.252-.252V8.473a.25.25 0 0 0-.252-.252h-7.732a.25.25 0 0 1-.252-.252V5.973c0-.139.112-.252.252-.252H36.61c.14 0 .252.113.252.252V7.97c0 .14-.113.252-.252.252H28.88a.25.25 0 0 0-.252.252v22.523c0 .14-.113.252-.252.252zM38.103 31.248a.25.25 0 0 1-.252-.252V5.973c0-.139.113-.252.252-.252h14.233c.14 0 .252.113.252.252V7.97c0 .14-.113.252-.252.252H40.51a.25.25 0 0 0-.252.252v8.324c0 .14.113.252.252.252h9.861c.14 0 .252.113.252.252v1.996c0 .139-.113.251-.252.251h-9.86a.25.25 0 0 0-.253.252v8.697c0 .139.113.252.252.252h11.826c.14 0 .252.112.252.252v1.995c0 .14-.113.252-.252.252zM55.142 31.248a.25.25 0 0 1-.252-.252V5.973c0-.139.113-.252.252-.252h1.793c.1 0 .192.06.232.153l8.97 20.778a.252.252 0 0 0 .463 0l8.922-20.778a.25.25 0 0 1 .231-.153h1.826c.139 0 .252.113.252.252V30.98c0 .139-.113.251-.252.251H75.79a.25.25 0 0 1-.252-.252V12.77c0-.275-.376-.351-.483-.1l-7.851 18.425a.25.25 0 0 1-.232.153h-1.223a.25.25 0 0 1-.231-.153l-7.835-18.422c-.107-.252-.484-.176-.484.099v18.224c0 .14-.112.252-.252.252z"/><mask id="path-8-inside-1_3566_5304" fill="#fff"><path d="M2.378 54.318H0v-18.34h12.77v2.117H2.378V43.6h8.111v2.02H2.378zM16.99 54.643q-2.215 0-3.649-.977a6.1 6.1 0 0 1-2.117-2.573 8.3 8.3 0 0 1-.684-3.29q0-1.89.749-3.453a5.68 5.68 0 0 1 2.182-2.444q1.434-.912 3.42-.912 1.76 0 3.095.75a5.45 5.45 0 0 1 2.15 2.117q.814 1.368.913 3.257v.815H12.852q0 2.183 1.075 3.42 1.076 1.238 2.997 1.238 1.467 0 2.476-.717a3.07 3.07 0 0 0 1.27-2.02h2.346a5.6 5.6 0 0 1-.977 2.476q-.782 1.076-2.085 1.694-1.27.62-2.965.62m-4.072-7.948h7.687q0-.423-.195-1.042a3.6 3.6 0 0 0-.587-1.238 3.2 3.2 0 0 0-1.14-1.01q-.715-.423-1.824-.424-1.01 0-1.726.359-.717.325-1.173.88-.456.552-.717 1.205-.228.65-.325 1.27M23.834 54.318v-18.34h2.345v18.34zM27.216 54.318v-18.34h2.345v18.34zM36.234 54.643q-2.15 0-3.584-.88a5.5 5.5 0 0 1-2.15-2.41q-.716-1.53-.716-3.518t.716-3.518a5.47 5.47 0 0 1 2.15-2.443q1.466-.88 3.616-.88 3.127 0 4.756 1.89 1.662 1.889 1.661 4.984 0 1.89-.684 3.453a5.5 5.5 0 0 1-2.117 2.443q-1.434.88-3.648.88m0-2.085q1.66 0 2.54-.716a3.6 3.6 0 0 0 1.206-1.792 7.4 7.4 0 0 0 .358-2.28q0-1.173-.358-2.28a3.6 3.6 0 0 0-1.206-1.825q-.88-.716-2.54-.716-1.596 0-2.509.716a3.73 3.73 0 0 0-1.27 1.825 8 8 0 0 0-.326 2.28q0 1.173.326 2.28a3.74 3.74 0 0 0 1.27 1.792q.912.716 2.508.716"/><path d="m45.255 54.318-3.453-12.803v-.52h2.313l2.801 11.303h.065l3.29-11.304h2.118l3.355 11.304h.065l2.769-11.304h2.313v.521l-3.42 12.803h-3.42l-2.672-9.154h-.065l-2.639 9.154z"/><path d="M66.048 54.643a6.1 6.1 0 0 1-1.89-.293 5.7 5.7 0 0 1-1.596-.75 7.2 7.2 0 0 1-1.205-1.074 4.9 4.9 0 0 1-.815-1.238 3.7 3.7 0 0 1-.26-1.303h2.28q0 .033.065.489.065.423.359.977.325.555 1.042.977.717.423 1.987.424.977 0 1.694-.228t1.108-.684q.423-.457.39-1.108 0-.88-.651-1.336-.62-.488-1.629-.749a36 36 0 0 0-2.085-.554q-1.074-.26-2.052-.684a4.2 4.2 0 0 1-1.596-1.172q-.62-.783-.586-2.085 0-1.727 1.466-2.671 1.465-.945 3.746-.945 1.043 0 2.052.228a5.3 5.3 0 0 1 1.824.782q.847.52 1.336 1.433.521.88.456 2.248h-2.215q.032-.88-.294-1.434a2.2 2.2 0 0 0-.88-.846 3.7 3.7 0 0 0-1.172-.391q-.586-.13-1.107-.13-1.335 0-2.183.488-.814.489-.814 1.368 0 .847.619 1.336.618.455 1.596.749 1.01.26 2.117.521 1.108.228 2.085.684 1.01.424 1.629 1.205.651.75.651 2.118 0 1.27-.716 2.085-.684.781-1.922 1.172t-2.834.391M71.627 54.318v-18.34h2.772v8.241h-.047c.043-.108-.076-.326.076-.651q.228-.522.75-1.108.52-.585 1.368-1.01.88-.423 2.182-.423 1.401 0 2.313.423a3.74 3.74 0 0 1 1.466 1.173q.554.716.814 1.629.261.912.326 1.824.098.913.098 1.726v6.516h-2.346V47.77q0-1.335-.293-2.378-.26-1.042-1.01-1.629-.716-.585-2.117-.586-1.434 0-2.28.684-.847.684-1.238 1.792a6.8 6.8 0 0 0-.39 2.345v6.32zM84.591 54.318V41.027h2.41v13.29zm1.238-15.213q-.88 0-1.205-.456a1.9 1.9 0 0 1-.293-1.043q0-.585.293-1.01.326-.455 1.205-.455.88 0 1.14.456.294.422.294 1.01 0 .585-.294 1.042-.26.456-1.14.456M95.236 54.643q-1.27 0-2.15-.423-.846-.424-1.4-.977-.555-.587-.847-1.076l-.326-.651h-.065v8.404h-2.443V41.027h2.052l.423 3.225h.066q.064-.163.293-.652.228-.52.749-1.107.555-.619 1.433-1.043.88-.423 2.183-.423 1.954 0 3.225.88 1.302.879 1.922 2.443.651 1.53.651 3.55 0 1.988-.651 3.518-.652 1.532-1.955 2.378-1.27.847-3.16.847m-.586-2.085q1.499 0 2.378-.684a3.63 3.63 0 0 0 1.238-1.759q.39-1.075.39-2.247 0-1.206-.423-2.248a3.5 3.5 0 0 0-1.335-1.727q-.913-.684-2.41-.684-1.24 0-2.15.587-.88.553-1.37 1.596-.455 1.042-.455 2.476 0 1.4.488 2.475.522 1.075 1.434 1.662.945.553 2.215.553"/></mask><path fill="#002453" d="M2.378 54.318H0v-18.34h12.77v2.117H2.378V43.6h8.111v2.02H2.378zM16.99 54.643q-2.215 0-3.649-.977a6.1 6.1 0 0 1-2.117-2.573 8.3 8.3 0 0 1-.684-3.29q0-1.89.749-3.453a5.68 5.68 0 0 1 2.182-2.444q1.434-.912 3.42-.912 1.76 0 3.095.75a5.45 5.45 0 0 1 2.15 2.117q.814 1.368.913 3.257v.815H12.852q0 2.183 1.075 3.42 1.076 1.238 2.997 1.238 1.467 0 2.476-.717a3.07 3.07 0 0 0 1.27-2.02h2.346a5.6 5.6 0 0 1-.977 2.476q-.782 1.076-2.085 1.694-1.27.62-2.965.62m-4.072-7.948h7.687q0-.423-.195-1.042a3.6 3.6 0 0 0-.587-1.238 3.2 3.2 0 0 0-1.14-1.01q-.715-.423-1.824-.424-1.01 0-1.726.359-.717.325-1.173.88-.456.552-.717 1.205-.228.65-.325 1.27M23.834 54.318v-18.34h2.345v18.34zM27.216 54.318v-18.34h2.345v18.34zM36.234 54.643q-2.15 0-3.584-.88a5.5 5.5 0 0 1-2.15-2.41q-.716-1.53-.716-3.518t.716-3.518a5.47 5.47 0 0 1 2.15-2.443q1.466-.88 3.616-.88 3.127 0 4.756 1.89 1.662 1.889 1.661 4.984 0 1.89-.684 3.453a5.5 5.5 0 0 1-2.117 2.443q-1.434.88-3.648.88m0-2.085q1.66 0 2.54-.716a3.6 3.6 0 0 0 1.206-1.792 7.4 7.4 0 0 0 .358-2.28q0-1.173-.358-2.28a3.6 3.6 0 0 0-1.206-1.825q-.88-.716-2.54-.716-1.596 0-2.509.716a3.73 3.73 0 0 0-1.27 1.825 8 8 0 0 0-.326 2.28q0 1.173.326 2.28a3.74 3.74 0 0 0 1.27 1.792q.912.716 2.508.716"/><path fill="#002453" d="m45.255 54.318-3.453-12.803v-.52h2.313l2.801 11.303h.065l3.29-11.304h2.118l3.355 11.304h.065l2.769-11.304h2.313v.521l-3.42 12.803h-3.42l-2.672-9.154h-.065l-2.639 9.154z"/><path fill="#002453" d="M66.048 54.643a6.1 6.1 0 0 1-1.89-.293 5.7 5.7 0 0 1-1.596-.75 7.2 7.2 0 0 1-1.205-1.074 4.9 4.9 0 0 1-.815-1.238 3.7 3.7 0 0 1-.26-1.303h2.28q0 .033.065.489.065.423.359.977.325.555 1.042.977.717.423 1.987.424.977 0 1.694-.228t1.108-.684q.423-.457.39-1.108 0-.88-.651-1.336-.62-.488-1.629-.749a36 36 0 0 0-2.085-.554q-1.074-.26-2.052-.684a4.2 4.2 0 0 1-1.596-1.172q-.62-.783-.586-2.085 0-1.727 1.466-2.671 1.465-.945 3.746-.945 1.043 0 2.052.228a5.3 5.3 0 0 1 1.824.782q.847.52 1.336 1.433.521.88.456 2.248h-2.215q.032-.88-.294-1.434a2.2 2.2 0 0 0-.88-.846 3.7 3.7 0 0 0-1.172-.391q-.586-.13-1.107-.13-1.335 0-2.183.488-.814.489-.814 1.368 0 .847.619 1.336.618.455 1.596.749 1.01.26 2.117.521 1.108.228 2.085.684 1.01.424 1.629 1.205.651.75.651 2.118 0 1.27-.716 2.085-.684.781-1.922 1.172t-2.834.391M71.627 54.318v-18.34h2.772v8.241h-.047c.043-.108-.076-.326.076-.651q.228-.522.75-1.108.52-.585 1.368-1.01.88-.423 2.182-.423 1.401 0 2.313.423a3.74 3.74 0 0 1 1.466 1.173q.554.716.814 1.629.261.912.326 1.824.098.913.098 1.726v6.516h-2.346V47.77q0-1.335-.293-2.378-.26-1.042-1.01-1.629-.716-.585-2.117-.586-1.434 0-2.28.684-.847.684-1.238 1.792a6.8 6.8 0 0 0-.39 2.345v6.32zM84.591 54.318V41.027h2.41v13.29zm1.238-15.213q-.88 0-1.205-.456a1.9 1.9 0 0 1-.293-1.043q0-.585.293-1.01.326-.455 1.205-.455.88 0 1.14.456.294.422.294 1.01 0 .585-.294 1.042-.26.456-1.14.456M95.236 54.643q-1.27 0-2.15-.423-.846-.424-1.4-.977-.555-.587-.847-1.076l-.326-.651h-.065v8.404h-2.443V41.027h2.052l.423 3.225h.066q.064-.163.293-.652.228-.52.749-1.107.555-.619 1.433-1.043.88-.423 2.183-.423 1.954 0 3.225.88 1.302.879 1.922 2.443.651 1.53.651 3.55 0 1.988-.651 3.518-.652 1.532-1.955 2.378-1.27.847-3.16.847m-.586-2.085q1.499 0 2.378-.684a3.63 3.63 0 0 0 1.238-1.759q.39-1.075.39-2.247 0-1.206-.423-2.248a3.5 3.5 0 0 0-1.335-1.727q-.913-.684-2.41-.684-1.24 0-2.15.587-.88.553-1.37 1.596-.455 1.042-.455 2.476 0 1.4.488 2.475.522 1.075 1.434 1.662.945.553 2.215.553"/><path stroke="#fff" stroke-width=".504" d="M2.378 54.318H0v-18.34h12.77v2.117H2.378V43.6h8.111v2.02H2.378zM16.99 54.643q-2.215 0-3.649-.977a6.1 6.1 0 0 1-2.117-2.573 8.3 8.3 0 0 1-.684-3.29q0-1.89.749-3.453a5.68 5.68 0 0 1 2.182-2.444q1.434-.912 3.42-.912 1.76 0 3.095.75a5.45 5.45 0 0 1 2.15 2.117q.814 1.368.913 3.257v.815H12.852q0 2.183 1.075 3.42 1.076 1.238 2.997 1.238 1.467 0 2.476-.717a3.07 3.07 0 0 0 1.27-2.02h2.346a5.6 5.6 0 0 1-.977 2.476q-.782 1.076-2.085 1.694-1.27.62-2.965.62Zm-4.072-7.948h7.687q0-.423-.195-1.042a3.6 3.6 0 0 0-.587-1.238 3.2 3.2 0 0 0-1.14-1.01q-.715-.423-1.824-.424-1.01 0-1.726.359-.717.325-1.173.88-.456.552-.717 1.205-.228.65-.325 1.27ZM23.834 54.318v-18.34h2.345v18.34zM27.216 54.318v-18.34h2.345v18.34zM36.234 54.643q-2.15 0-3.584-.88a5.5 5.5 0 0 1-2.15-2.41q-.716-1.53-.716-3.518t.716-3.518a5.47 5.47 0 0 1 2.15-2.443q1.466-.88 3.616-.88 3.127 0 4.756 1.89 1.662 1.889 1.661 4.984 0 1.89-.684 3.453a5.5 5.5 0 0 1-2.117 2.443q-1.434.88-3.648.88Zm0-2.085q1.66 0 2.54-.716a3.6 3.6 0 0 0 1.206-1.792 7.4 7.4 0 0 0 .358-2.28q0-1.173-.358-2.28a3.6 3.6 0 0 0-1.206-1.825q-.88-.716-2.54-.716-1.596 0-2.509.716a3.73 3.73 0 0 0-1.27 1.825 8 8 0 0 0-.326 2.28q0 1.173.326 2.28a3.74 3.74 0 0 0 1.27 1.792q.912.716 2.508.716Z" mask="url('#path-8-inside-1_3566_5304')"/><path stroke="#fff" stroke-width=".504" d="m45.255 54.318-3.453-12.803v-.52h2.313l2.801 11.303h.065l3.29-11.304h2.118l3.355 11.304h.065l2.769-11.304h2.313v.521l-3.42 12.803h-3.42l-2.672-9.154h-.065l-2.639 9.154z" mask="url('#path-8-inside-1_3566_5304')"/><path stroke="#fff" stroke-width=".504" d="M66.048 54.643a6.1 6.1 0 0 1-1.89-.293 5.7 5.7 0 0 1-1.596-.75 7.2 7.2 0 0 1-1.205-1.074 4.9 4.9 0 0 1-.815-1.238 3.7 3.7 0 0 1-.26-1.303h2.28q0 .033.065.489.065.423.359.977.325.555 1.042.977.717.423 1.987.424.977 0 1.694-.228t1.108-.684q.423-.457.39-1.108 0-.88-.651-1.336-.62-.488-1.629-.749a36 36 0 0 0-2.085-.554q-1.074-.26-2.052-.684a4.2 4.2 0 0 1-1.596-1.172q-.62-.783-.586-2.085 0-1.727 1.466-2.671 1.465-.945 3.746-.945 1.043 0 2.052.228a5.3 5.3 0 0 1 1.824.782q.847.52 1.336 1.433.521.88.456 2.248h-2.215q.032-.88-.294-1.434a2.2 2.2 0 0 0-.88-.846 3.7 3.7 0 0 0-1.172-.391q-.586-.13-1.107-.13-1.335 0-2.183.488-.814.489-.814 1.368 0 .847.619 1.336.618.455 1.596.749 1.01.26 2.117.521 1.108.228 2.085.684 1.01.424 1.629 1.205.651.75.651 2.118 0 1.27-.716 2.085-.684.781-1.922 1.172t-2.834.391ZM71.627 54.318v-18.34h2.772v8.241h-.047c.043-.108-.076-.326.076-.651q.228-.522.75-1.108.52-.585 1.368-1.01.88-.423 2.182-.423 1.401 0 2.313.423a3.74 3.74 0 0 1 1.466 1.173q.554.716.814 1.629.261.912.326 1.824.098.913.098 1.726v6.516h-2.346V47.77q0-1.335-.293-2.378-.26-1.042-1.01-1.629-.716-.585-2.117-.586-1.434 0-2.28.684-.847.684-1.238 1.792a6.8 6.8 0 0 0-.39 2.345v6.32zM84.591 54.318V41.027h2.41v13.29zm1.238-15.213q-.88 0-1.205-.456a1.9 1.9 0 0 1-.293-1.043q0-.585.293-1.01.326-.455 1.205-.455.88 0 1.14.456.294.422.294 1.01 0 .585-.294 1.042-.26.456-1.14.456ZM95.236 54.643q-1.27 0-2.15-.423-.846-.424-1.4-.977-.555-.587-.847-1.076l-.326-.651h-.065v8.404h-2.443V41.027h2.052l.423 3.225h.066q.064-.163.293-.652.228-.52.749-1.107.555-.619 1.433-1.043.88-.423 2.183-.423 1.954 0 3.225.88 1.302.879 1.922 2.443.651 1.53.651 3.55 0 1.988-.651 3.518-.652 1.532-1.955 2.378-1.27.847-3.16.847Zm-.586-2.085q1.499 0 2.378-.684a3.63 3.63 0 0 0 1.238-1.759q.39-1.075.39-2.247 0-1.206-.423-2.248a3.5 3.5 0 0 0-1.335-1.727q-.913-.684-2.41-.684-1.24 0-2.15.587-.88.553-1.37 1.596-.455 1.042-.455 2.476 0 1.4.488 2.475.522 1.075 1.434 1.662.945.553 2.215.553Z" mask="url('#path-8-inside-1_3566_5304')"/><path fill="#002453" d="M91.877 5.26c-.135-.076-.108-.282.043-.318l2.65-.627c.17-.04.284.178.154.296-.506.46-1.003.929-1.523 1.374a.17.17 0 0 1-.212.005 10 10 0 0 0-1.112-.73M83.283 5.26c.135-.076.108-.282-.043-.318l-2.65-.627c-.17-.04-.284.178-.154.296.506.46 1.003.929 1.523 1.374a.17.17 0 0 0 .212.005q.531-.4 1.112-.73"/></g><defs><clipPath id="clip0_3566_5304"><path fill="#fff" d="M0 0h101v64H0z"/></clipPath></defs></svg>