<svg xmlns="http://www.w3.org/2000/svg" width="300" height="64" fill="none"><path fill="#002453" d="M264.6 27.347c0 3.1 2.4 5.5 5.4 5.5 3.1 0 5.8-2.5 5.8-5.5 0-2.7-2.1-5.4-5.6-5.4-2.9 0-5.6 2.5-5.6 5.4m1.9-.8c0-1.8 1.1-3.7 3.2-3.7 2.6 0 4.2 2.8 4.2 5.6 0 1.8-1.2 3.7-3.2 3.7-2.6-.1-4.2-2.9-4.2-5.6m-3.5-4.7h-.3c-.1.1-.2.2-.7.2h-7.4c-.6 0-.7-.2-.7-.2h-.4v.1c0 .1-.8 2-.8 2.1v.1l.5.3v-.1c.3-.9.7-1.3 2.5-1.3.6 0 1.1 0 1.4.1.1 1.4.1 2.8.1 3.8s0 3.9-.1 4.6c0 .2-.1.4-1 .5l-.7.1h-.3l.1.6.9-.1h4.6v-.1l.1-.5h-.6c-.4-.1-.8-.2-.9-.3s-.3-.8-.3-3.9v-2.2l.1-2.5c0-.2 0-.2 1-.2h.7c1.7 0 1.8.4 2.1 1.1l.1.2.5-.3-.1-.6c-.1-.6-.3-1.3-.4-1.5m-15.5.2s.9.1 1.1.1h2.3v.6h-.1c-.6 0-1.2.1-1.3.8-.1.4-.1 3.7-.1 5.1 0 1 0 3.2.1 4v.1h-.7l-7.6-7.9v.6l-.2 4.4c0 1.7 0 1.9 2 2.3h.1v.6l-.8-.1-1.2-.1-2.5.1v-.6l.7-.1c.4-.1.6-.1.7-.7s.2-2.7.2-3.3v-1.8c.1-3-.2-3.1-1.6-3.4h-.1v-.6l.7.1h2s7.2 7.5 7.3 7.6v-2.8c-.1-4.2.3-4.2-1.8-4.4h-.1l.1-.5c.1-.1.8-.1.8-.1m-16.5-.1c3.5 0 5.6 2.7 5.6 5.4 0 3-2.6 5.5-5.8 5.5-3 0-5.4-2.4-5.4-5.5.1-2.9 2.7-5.4 5.6-5.4m.6 10.1c1.9 0 3.2-1.9 3.2-3.7 0-2.7-1.6-5.6-4.2-5.6-2.1 0-3.2 1.9-3.2 3.7-.1 2.8 1.5 5.6 4.2 5.6m-13.1-10c2.2 0 3.8 1.2 3.8 2.9 0 1.4-1.2 2.3-2.4 2.6 2.1 3 2.5 3.5 3.4 4.2 0 0 .7.7 1.5.7h.1v.6h-.1c-1.8 0-2.8-.7-3.3-1.1-1.6-1.2-3.2-3.7-3.5-4.2h-1.3v1.9c0 .7 0 1.7.2 2.1.1.2 1 .4 1.4.6h.1v.6h-.1c-.6-.1-1.6-.2-2.3-.2-.4 0-2 .1-2.4.1h-.1l-.1-.5h.1c.2 0 1.1-.2 1.3-.6.2-.3.2-2.2.2-3v-2.7c0-3.2-.1-3.2-1.4-3.2h-.1v-.6h2.1c.2 0 .9-.1 1.4-.1zm-1.7 4.9h1.1c.9 0 2.5-.3 2.5-2 0-.9-.7-2.3-2.5-2.3-1 0-1 0-1.1 1.8zm-10.8-5c3.5 0 5.6 2.7 5.6 5.4 0 3-2.6 5.5-5.7 5.5-3 0-5.4-2.4-5.4-5.5-.1-2.9 2.5-5.4 5.5-5.4m.5 10.1c1.9 0 3.2-1.9 3.2-3.7 0-2.7-1.6-5.6-4.2-5.6-2.1 0-3.2 1.9-3.2 3.7-.1 2.8 1.5 5.6 4.2 5.6m-7.8-10.2h-.3c0 .1-.2.2-.7.2h-7.4c-.6 0-.7-.2-.7-.2h-.4v.1c0 .1-.8 2-.8 2.1v.1l.5.3v-.1c.3-.9.7-1.3 2.5-1.3.6 0 1.1 0 1.4.1.1 1.4.1 2.8.1 3.8s0 3.9-.1 4.6c0 .2-.1.4-1 .5l-.7.1h-.3l.1.6.9-.1h4.6v-.1l.1-.5h-.6c-.4-.1-.8-.2-.9-.3s-.3-.8-.3-3.9v-2.2l.1-2.5c0-.2 0-.2 1-.2h.7c1.7 0 1.9.4 2.1 1.1l.1.2.5-.3-.1-.6c-.1-.6-.3-1.3-.4-1.5m-19.7.2c-1.5.2-1.9.2-3.6.2h-1.8l-1.9-.1h-.6l-.5.1v.5h.1c.5 0 .9.1 1.1.3.3.4.3.8.3 4.5 0 1.8-.2 3.7-.2 4-.1.4-.7.6-1.1.6h-.1v.6h.1c1-.1 2.2-.1 2.5-.1h.9l1.7.1v-.6h-.1c-1.2-.1-1.6-.3-1.8-.5-.1-.2-.2-.8-.2-1.5v-.6s0-1.6.1-1.9h.9c1 0 2.2.2 2.5.4.2.1.3.4.4.9v.1h.5v-.1c.1-1.1.1-2.2.1-3v-.1h-.6v.1c-.1.8-.2 1.1-2.3 1.1-.6 0-.8 0-1.4-.1v-3.8c.6-.1 1.1-.1 1.3-.1 1.2 0 2.2.2 2.6.5.3.3.5.7.6 1v.1h.6v-.1c0-.2 0-.7.1-1.2l.1-1.1zm-16.1-.1c3.5 0 5.6 2.7 5.6 5.4 0 3-2.6 5.5-5.8 5.5-3 0-5.4-2.4-5.4-5.5 0-2.9 2.6-5.4 5.6-5.4m.6 10.1c1.9 0 3.2-1.9 3.2-3.7 0-2.7-1.6-5.6-4.2-5.6-2.1 0-3.2 1.9-3.2 3.7-.1 2.8 1.5 5.6 4.2 5.6m-19.9-9.9v.5h.1c.5 0 1.3.1 1.3.5 0 .1-.2.7-2.2 3.6-.9-1-2.8-3.5-2.8-3.8 0-.1 0-.3 1.2-.3h.1v-.6h-5v.6h.1c.5 0 .8.1 1.1.2.6.4 2.9 3.3 3 3.5 0 0 .9 1.2 1 1.3.1.7.1 1.6.1 2.6 0 1.6 0 1.9-1.5 2h-.1v.5h.1c.2 0 .9 0 1.6-.1l1.1-.1h1.1l1.2.1v-.5h-.1c-1.5-.1-1.5-.3-1.5-.6v-.1c0-.7-.1-1.4-.1-2.2v-1.9l2.1-3.2c.7-1 .5-1.6 1.9-1.6h.1v-.6h-2.9c-.1.2-.9.1-1 .2m-9.4-.3h-.3c-.1.1-.2.2-.7.2h-7.4c-.6 0-.7-.2-.7-.2h-.4v.1c0 .1-.8 2-.8 2.1v.1l.5.3v-.1c.3-.9.7-1.3 2.5-1.3.6 0 1.1 0 1.4.1.1 1.4.1 2.8.1 3.8s0 3.9-.1 4.6c0 .2-.1.4-1 .5l-.7.1h-.3l.1.6.9-.1h4.6v-.1l.1-.5h-.6q-.75-.15-.9-.3c-.1-.1-.3-.8-.3-3.9l.1-2.2.1-2.5c0-.2 0-.2 1-.2h.7c1.7 0 1.9.4 2.1 1.1l.1.2.5-.3-.1-.6c-.2-.6-.4-1.3-.5-1.5m-17.8.4v.5h.1c1.4 0 1.6.3 1.7.6.2.5.2 3.5.2 4.6v.2c0 .9 0 3-.3 3.5-.1.2-.5.4-1.8.6h-.1v.5l1.7-.1h1.5l2.6.1v-.6c-1.1 0-1.5 0-1.6-.5-.1-.2-.1-1.2-.1-3 0-4.1 0-5.2.3-5.6.3-.5 1.3-.4 1.6-.4h.1v-.6h-4.8zm-9.4 2.8c0 1.8 1.5 2.4 2.7 2.9h.1c1.9.8 2.8 1.1 2.8 2.5 0 .8-.6 1.6-1.9 1.6-1.1 0-2-.5-2.5-.9-.6-.5-.8-1.3-.8-1.5v-.1h-.6v.1c.4 1.2.5 1.7.4 3v.1h.5v-.1c0-.1.1-.3.2-.3s.5.1.7.1h.3c.3.1.6.2 1.3.2 2.6 0 4-1.6 4-3 0-2.1-2.1-2.9-3.4-3.4s-2.3-.9-2.3-2c0-1 .8-1.7 2-1.7 1.1 0 1.8.6 2 .8.4.4.5.9.6 1.3v.1h.6l-.1-1.4c0-.5.1-1 .2-1.2v-.1l-.5-.1-.3.2c-1-.3-1.5-.3-2.1-.3-2.3.2-3.9 1.4-3.9 3.2m-7.5-3c2.2 0 3.8 1.2 3.8 2.9 0 1.4-1.2 2.3-2.4 2.6 2.1 3 2.5 3.5 3.4 4.2 0 0 .7.7 1.5.7h.1v.6h-.1c-1.8 0-2.8-.7-3.3-1.1-1.6-1.2-3.2-3.7-3.5-4.2h-1.3v1.9c0 .7 0 1.7.2 2.1.1.2 1 .4 1.4.6h.1v.6h-.1c-.6-.1-1.6-.2-2.3-.2-.4 0-2 .1-2.4.1h-.1l-.1-.5h.1c.2 0 1.1-.2 1.3-.6.2-.3.2-2.2.2-3v-2.7c0-3.2-.1-3.2-1.4-3.2h-.1v-.6h2.1c.2 0 .9-.1 1.5-.1zm-1.7 4.9h1.1c.9 0 2.5-.3 2.5-2 0-.9-.7-2.3-2.5-2.3-1 0-1 0-1.1 1.8zm-6.5-4.9c-1.3.1-3.4.1-4.7.1-.8 0-2.9 0-3.7-.1h-.1v.5h.1c.9.2 1 .2 1 .4.1.2.2 1.2.2 4.4 0 1.4-.1 3.5-.2 4.2-.1.4-.5.5-1.2.5h-.1l.1.6h.1c1.4-.2 3.2-.2 4.2-.2l4.3.1v-.1c.2-.3.6-.9.8-2.6v-.1h-.5v.1c-.4 1-1.1 2-3.7 2-.9 0-1.3-.1-1.8-.3 0-.3-.1-.7-.1-2v-1.9c.7-.1 1.3-.1 1.6-.1 2.1 0 2.2.2 2.5 1.4v.1h.5v-.1c0-1.4 0-1.7.1-3.2v-.1H90v.1c-.2.8-.4.9-.7 1-1.5.2-3 .1-3.4.1v-1.4c0-.7.1-1.7.2-2.5.6-.1 1.6-.2 2-.2 1.2 0 1.9.2 2.2.5s.3.7.2 1.1v.1l.6.1v-.1c0-.1.1-.5.1-.8l.1-.4c.1-.5.1-.8 0-1.2m-23.1.2v.5h.1c1.4.2 1.5.2 2.6 2.5l2.4 4.8c.4.8 1 2.1 1.2 2.8v.1h.5v-.1c.4-1.1.6-1.8 1.5-3.4l2.6-5c.6-1.2.9-1.5 2-1.7h.1v-.6h-2.1l-2-.1v.6h.1c.5 0 1.2.1 1.2.6 0 .3-.2.8-.4 1.2v.1c-.5 1.2-.9 1.8-1.2 2.5l-1.2 2.4-.3.6c-1.2-1.8-3.3-6.8-3.3-7.1 0-.1 0-.1.9-.2h.3v-.6h-2.5c-.5.1-1.7 0-2.5.1m-7.1 0v.5h.1c1.4 0 1.6.3 1.7.6.2.5.2 3.5.2 4.6v.2c0 .9 0 3-.3 3.5-.1.2-.5.4-1.8.6h-.1v.5l1.7-.1h1.5l2.6.1v-.6h-.1c-1.1 0-1.5 0-1.6-.5-.1-.2-.1-1.2-.1-3 0-4.1 0-5.2.3-5.6.3-.5 1.3-.4 1.6-.4h.1v-.6h-4.8zm-5.4-.2s.9.1 1.1.1h2.3v.6H59c-.6 0-1.2.1-1.3.8-.1.4-.1 3.7-.1 5.1v4.1h-.7l-7.6-7.9v.6l-.1 4.4c0 1.7 0 1.9 2 2.3h.1v.6l-.8-.1-1.2-.1-2.5.1v-.6l.7-.1c.4-.1.6-.1.7-.7s.2-2.7.2-3.3v-1.8c.1-3-.2-3.1-1.6-3.4h-.1v-.6l.8.1h2s7.2 7.5 7.3 7.6v-2.8c-.1-4.2.3-4.2-1.8-4.4h-.1l.1-.5c.1-.1.7-.1.7-.1m-18 .1.1.6h-.1c-1.6.1-1.8.2-1.8 3.8v2c0 1.1 0 3.5 3 3.5 3.3 0 3.5-2.1 3.5-5.6v-.9c0-.7-.1-2.1-.4-2.4-.2-.2-.8-.3-1.3-.3h-.1v-.6h4.1v.6h-.1c-1.2.1-1.2.4-1.3 1.1v1.6c-.1 5-.3 7.5-4.9 7.5-2.9 0-4.4-1.3-4.4-3.6l.1-3.4c0-1.6-.1-2.8-.4-2.9-.2-.1-.4-.1-1.1-.1h-.1v-.6h.1c.2 0 1.7-.1 2.4-.1h.6c.8-.2 1.7-.2 2.1-.2M40.398 46.046c-.1.5-.1.6-.6 2-.3-.1-.6-.1-1-.1h-5.9v-.4c.2 0 .6-.1.8-.3.2-.3.2-.4.3-3.9v-3.2c-.1-.6-.5-.6-.9-.7v-.3h3.6v.4c-.5.1-.9.1-1 .4-.2.4-.2 3-.2 3.6v2.2c0 .9 0 1.3.1 1.5s.5.2 1.1.2c2.8 0 3.1-.6 3.3-1.3zm8.2-1.2h-.3c-.2-1.2-.2-1.3-2.4-1.3-.6 0-.8 0-1.1.1v1.9c0 .8.1 1.3.2 1.7.5.1 1.2.2 2 .2 2.1 0 2.5-1.1 2.7-1.6h.3c-.1.8-.2 1.2-.6 2.2-1.9-.1-2.4-.1-3.7-.1s-1.9 0-3.3.1v-.4c.5-.1.8-.2.9-.6.1-.8.2-3.3.2-4.2 0-.4-.1-2.1-.1-2.5-.1-.8-.2-.9-.7-1h-.2v-.2h4.5c1 0 1.5 0 2.4-.1 0 1-.2 1.9-.4 1.9h-.3c0-.2.1-.4.1-.6 0-.5-.6-.8-2-.8-.6 0-1.2.1-1.8.2-.1.9-.1 1.4-.1 2.2v1.2h1.3c1 0 1.7-.1 1.9-.2s.4-.8.4-.8h.3v2.7zm3.6.7c.2.7.4 1.2 1.4 1.6.6.3 1.4.5 2 .5.3 0 1.4-.1 1.4-1.5 0-1.2-1-1.6-2.3-2-1.3-.5-2.4-1-2.4-2.6 0-1.5 1.2-2.5 3-2.5.3 0 1.7.2 2 .2.1 0 .3 0 .4-.1l.2.1c0 .1-.1.8-.1.8v1.2h-.3c-.3-1.8-2.3-1.8-2.4-1.8-1.3 0-1.6.9-1.6 1.6s.3 1.2 2 1.8c1.2.4 2.7 1 2.7 2.8 0 .9-.5 2.5-3.3 2.5-.7 0-1.4-.1-2-.2h-.2c-.1 0-.1.1-.1.1h-.4c0-.8-.1-1.2-.4-2.4zm15.6.5c-.1.5-.1.6-.6 2-.3-.1-.6-.1-1-.1h-5.9v-.4c.2 0 .6-.1.8-.3.2-.3.2-.4.3-3.9v-3.2c-.1-.6-.5-.6-.9-.7v-.3h3.6v.4c-.5.1-.9.1-1 .4-.2.4-.2 3-.2 3.6v2.2c0 .9 0 1.3.1 1.5s.5.2 1.1.2c2.8 0 3.1-.6 3.3-1.3zm1.7 1.5c.5-.1 1.1-.1 1.3-.5.3-.5.3-2.9.3-3.6s0-3.3-.2-3.8c-.1-.1-.2-.4-1.3-.4v-.4h2.4c.4 0 1.6 0 2-.1v.4c-.7 0-.9 0-1.1.2-.3.4-.3 2.8-.3 3.6 0 .7 0 3.4.1 3.8s.2.5 1.3.6v.4h-4.4v-.2zm12.7-2.7h-.3c-.2-1.2-.2-1.3-2.4-1.3-.6 0-.8 0-1.1.1v1.9c0 .8.1 1.3.2 1.7.5.1 1.2.2 2 .2 2.1 0 2.5-1.1 2.7-1.6h.3c-.1.8-.2 1.2-.6 2.2-1.9-.1-2.4-.1-3.7-.1s-1.9 0-3.3.1v-.4c.5-.1.8-.2.9-.6.1-.8.2-3.3.2-4.2 0-.4-.1-2.1-.1-2.5-.1-.8-.2-.9-.7-1h-.2v-.2h4.5c1 0 1.5 0 2.4-.1 0 1-.2 1.9-.4 1.9h-.3c0-.2.1-.4.1-.6 0-.5-.6-.8-2-.8-.6 0-1.2.1-1.8.2-.1.9-.1 1.4-.1 2.2v1.2h1.3c1 0 1.7-.1 1.9-.2s.4-.8.4-.8h.3v2.7zm9.6-.5c0-.5 0-2.8-.1-3.5-.1-1.2-.1-1.3-.9-1.4v-.4h2.2c.6 0 1.7-.1 2.2-.1 3 0 5.2 1.9 5.2 4.5 0 2-1.4 4.6-5.4 4.6-.4 0-1.9-.1-2.2-.1h-2.1v-.4c.9 0 1.1-.1 1.1-2.3zm3.1-4.9c-.3 0-.9 0-1.5.3-.1.9-.1 1.7-.1 3.4v4c.5.2 1.1.4 1.9.4 1.9 0 3.4-1.6 3.4-4.1 0-3-2.2-4-3.7-4m7.5 6.5c-.1.3-.3.8-.3 1 0 .5.7.6 1.1.7v.3h-2.7v-.3c.2 0 .6-.1.9-.6.5-.8 3-6.9 3.2-7.4.1-.4.2-.6.3-.9h.4c.1.3.2.6.3 1.1.3.8 1.7 4.5 2 5.3.8 2.3 1.1 2.3 1.6 2.4v.3c-.3 0-.7-.1-1.3-.1-.9 0-1.6.1-2 .1v-.3c.4-.1.7-.2.7-.5 0-.2-.7-2.1-.8-2.3h-1c-.5 0-1.2 0-1.9.1zm.7-1.7c.4.1.9.1 1.5.1.5 0 .7 0 .9-.1-.4-1.1-.8-2.1-1.3-3.1zm16.3 1.2v-2.9c0-3-.1-3.2-1.5-3.3l.1-.3h1.2c.3 0 .7.1.8.1h1.2v.4c-.2 0-.6 0-.8.3-.3.5-.3 2.9-.3 3.7v4.6h-.4c-.5-.9-1.2-1.7-2-2.4l-4.4-4.2c-.2-.2-.4-.4-.6-.5v1.2l-.1 3.3c0 1.3 0 1.8 1.6 2.1v.4c-.2 0-.4 0-.6-.1h-.8c-.3 0-1.7.1-2 .1v-.4c.9 0 1-.5 1-1.7l.1-4.2c0-1.2 0-2.2-1.2-2.3v-.4h2.1c.9 1 .9 1.1 3.3 3.4.7.7 1.3 1.3 2 1.9zm11.4-2.4c.5 0 1 .1 1.4.1 1.8 0 1.8-.2 1.8-.9h.4v2.5h-.4c0-.8 0-.9-.9-1-.7-.1-1.3-.1-2.3-.1v2.6c0 1 0 1.3 1.5 1.4v.4h-4v-.3c.3-.1.7-.2.8-.5.2-.6.2-2.8.2-3.6 0-.7 0-3.3-.2-3.8-.2-.3-.6-.4-1-.4v-.3h3.9c2.1 0 2.5 0 3.1-.1-.1.5-.1.8-.1 1.9h-.4c-.1-.5-.1-.8-.3-.9-.5-.4-1.8-.4-2.4-.4-.4 0-.7 0-1.1.1zm6.6 2.9c-.1.3-.3.8-.3 1 0 .5.7.6 1.1.7v.3h-2.7v-.3c.2 0 .6-.1.9-.6.5-.8 3-6.9 3.2-7.4.1-.4.2-.6.3-.9h.4c.1.3.2.6.3 1.1.3.8 1.7 4.5 2 5.3.8 2.3 1.1 2.3 1.6 2.4v.3c-.3 0-.7-.1-1.3-.1-.9 0-1.6.1-2 .1v-.3c.4-.1.7-.2.7-.5 0-.2-.7-2.1-.8-2.3h-1c-.5 0-1.2 0-1.9.1zm.7-1.7c.4.1.9.1 1.5.1.5 0 .7 0 .9-.1-.4-1.1-.8-2.1-1.3-3.1zm14.5 3.4c-1.3.4-2.6.4-2.8.4-2.8 0-4.9-1.9-4.9-4.6 0-3.1 2.5-4.6 5.2-4.6.6 0 1.1.1 1.8.3.2.1.4.2.6.2.1 0 .3-.1.4-.1l.2.1c-.1.3-.4 1.6-.4 1.9l-.2-.1c-.1-.6-.1-.8-.3-1s-1-.8-2.3-.8c-3.2 0-3.2 3.3-3.2 4 0 3.9 2.8 4.2 3.4 4.2 1.3 0 2.3-.7 2.7-1.9h.3c0 .2 0 .3-.1.7 0 .1-.2.6-.2.7zm3.7-6.7c0-1.5-.2-1.5-1-1.6v-.3h3.8l.1.3h-.2c-1.2.2-1.2.2-1.2 3.8 0 2.5.2 3.2.8 3.6.6.5 1.4.6 1.8.6.2 0 2 0 2.5-1.3.3-.8.4-2.4.4-4.2 0-2.3-.3-2.3-1.2-2.4l-.1-.4h3v.4c-.3 0-.7 0-.8.3-.1.2-.1 1.7-.1 2.1 0 1.2-.2 3.8-.6 4.7-.6 1.3-2.5 1.5-3.6 1.5-1.3 0-3.6-.3-3.6-2.8 0-.4.1-2.2.1-2.6zm18 5.1c-.1.5-.1.6-.6 2-.3-.1-.6-.1-1-.1h-5.9v-.4c.2 0 .6-.1.8-.3.2-.3.2-.4.3-3.9v-3.2c-.1-.6-.5-.6-.9-.7v-.3h3.6v.4c-.5.1-.9.1-1 .4-.2.4-.2 3-.2 3.6v2.2c0 .9 0 1.3.1 1.5s.5.2 1.1.2c2.8 0 3.1-.6 3.3-1.3zm8.5-6c-.5-.4-1.5-.4-2.1-.4h-.9c-.1 1.2-.1 3.7-.1 6.1 0 1.5.1 1.5.8 1.7.5.1.6.1.7.1v.4c-.2 0-1.2-.1-1.4-.1-1.4 0-1.5 0-3 .2l-.1-.4c.2-.1 1.3-.3 1.4-.5.2-.3.2-3.1.2-3.6 0-1.3 0-3.3-.1-3.9h-1.3c-1.8 0-1.9.3-2.2.8l-.4-.1c.4-.9.5-1.4.6-1.6h.2c.1.1.4.2.6.2.6.1 2.7.1 3.4.1 1 0 3.1 0 4-.1.2 0 .2 0 .3-.1l.2.1c-.1.3-.3.9-.4 1.5l-.4.1zm8 3.7c0 .5 0 3.1.1 3.4s.9.5 1.2.5v.3c-.5 0-1.2-.1-1.8-.1-.3 0-1.8.1-2.1.1v-.3c.9-.1 1-.3 1.1-.6s.1-2.3.1-2.8v-.5c-.4-.7-.8-1.3-2.3-3.3-.5-.7-1-1.2-1.9-1.2l-.1-.3h4l-.1.4c-.1 0-.8 0-.8.3s1.6 2.4 2.4 3.5c1.8-2.8 1.9-3 1.9-3.3 0-.4-.5-.4-.9-.4v-.4h3v.5c-1 0-1.5.4-3.2 3.3zm11.2-2.5c1.7 0 3 1.3 3 2.9 0 1.5-1.2 3-3 3-1.9 0-3-1.4-3-3-.1-1.8 1.4-2.9 3-2.9m.2 5.6c.6 0 1.8-.4 1.8-2 0-1.2-.6-3.2-2.2-3.2-.4 0-1.8.2-1.8 2 0 1.5.7 3.2 2.2 3.2m5.8-2.9h.9c1.1 0 1.1-.1 1.1-.6h.3v1.6h-.2c0-.5 0-.6-.5-.6-.4-.1-.8-.1-1.5-.1v1.6c0 .6 0 .8.9.9v.2h-2.5v-.2c.2 0 .5-.1.5-.3.1-.4.1-1.8.1-2.3s0-2.1-.1-2.4c-.1-.2-.4-.2-.6-.2v-.2h2.4c1.4 0 1.6 0 2-.1 0 .3-.1.5-.1 1.2h-.2c0-.3-.1-.5-.2-.6-.3-.2-1.1-.3-1.5-.3h-.7v1zm9.7 1.9c0 .6 0 1.2.1 1.4.1.3.7.4 1.3.4v.4c-.2 0-.5 0-.7-.1h-1.2c-.6 0-1.1.1-1.4.1h-.3v-.3c.8-.2.8-.3.9-.5.1-.4.1-2 .1-2.5 0-.6 0-.9-.1-3.1 0-2.1-.1-2.2-1.1-2.2v-.4h3.2c2.3 0 3.8 1.5 3.8 3 0 .9-.8 2.9-4 2.9h-.6zm.8-6.4c-.4 0-.6.1-.8.2-.1 2.2-.1 2.5-.1 4.6.2 0 .5.1.9.1.3 0 2 0 2-2.3 0-2-1.1-2.6-2-2.6m8.2 5.9c0 .3 0 1.6.1 1.8.1.3.6.4 1 .5v.3c-.4 0-2.2-.1-2.3-.1-.4 0-.8 0-1.2.1l-.1-.3c.9-.1 1-.3 1-.6.2-1.1.2-3.9.2-5.2 0-2.3-.1-2.5-1-2.5v-.4h3.6v.3c-.1 0-.7.1-.8.2-.2.1-.2.1-.3.7-.1 1-.2 1.5-.1 2.8h4.3c.5 0 .6 0 .9-.1v-1.4c0-2-.1-2.2-1.1-2.3l.1-.3c.2 0 .4 0 .7.1h1.1c.9 0 1.3-.1 1.7-.1v.3c-.3 0-.7.1-.8.5-.2.6-.2 4.8-.2 5.7 0 1.8.1 2.1 1 2.1v.3c-.4 0-.9-.1-1.8-.1-.6 0-1.1 0-1.7.1v-.3c.6 0 .8-.2.9-.5.2-.6.2-2.1.2-3.4-1.1-.1-5.1-.1-5.3-.1zm11.6.6c-.1.3-.3.8-.3 1 0 .5.7.6 1.1.7v.3h-2.7v-.3c.2 0 .6-.1.9-.6.5-.8 3-6.9 3.2-7.4.1-.4.2-.6.3-.9h.4c.1.3.2.6.3 1.1.3.8 1.7 4.5 2 5.3.8 2.3 1.1 2.3 1.6 2.4v.3c-.3 0-.7-.1-1.3-.1-.9 0-1.6.1-2 .1v-.3c.4-.1.7-.2.7-.5 0-.2-.7-2.1-.8-2.3h-1c-.5 0-1.2 0-1.9.1zm.7-1.7c.4.1.9.1 1.5.1.5 0 .7 0 .9-.1-.4-1.1-.8-2.1-1.3-3.1zm7.8 3.5c.6-.2.8-.3.9-.7s.1-3.7.1-4.4c0-1.9 0-2.2-.1-2.5-.1-.6-.7-.7-1-.7l.1-.4h1.2c.2 0 .7 0 1.2-.1.5 0 1-.1 1.2-.1 2.3 0 3.2 1.3 3.2 2.4s-.8 1.9-2 2.3c1.6 3.1 2.7 4.4 4.1 4.5v.4c-1.4 0-3.4 0-5.7-4.7-.4 0-.5 0-.9-.1v1.4c0 .5 0 1.9.2 2.2s.8.4 1 .4l-.1.3c-.5-.1-.7-.1-.9-.1h-.9c-.6 0-.7 0-1.8.1v-.2zm3.4-8.4c-.7 0-.7.2-.8 1.1-.1 1.4-.1 1.5 0 2.8.2 0 .3.1.7.1.7 0 2.2 0 2.2-1.8-.1-.6-.4-2.2-2.1-2.2m8.9 2.6v-1c0-1.2-.4-1.5-1.6-1.6v-.4h.7c1.4.1 1.4.1 2.1.1 1.1 2.3 1.3 2.8 2.4 4.7.2.3 1 1.8 1 1.8.3-.7.3-.7.9-1.7l.7-1.4 1.7-3.4h2.4v.4c-1.1.2-1.3.2-1.3 1.7 0 .5.1 4.9.3 5.7.1.5.3.6 1.1.6v.4h-1.8c-1.2 0-1.5 0-2.1.1v-.4c1-.3 1.3-.4 1.3-1.9 0-1.4-.1-3.4-.2-4.8-1.8 3.4-2.5 4.9-3.4 7h-.3c-.4-1.2-.5-1.5-2.1-4.5-.4-.7-1-1.8-1.1-2.2 0 .5 0 .5-.1 1.1-.1 1.4-.2 2.7-.2 3.9 0 .9.1 1.1 1.3 1.3v.3h-3.5v-.3c1.4-.2 1.4-.8 1.5-2.6zm14.4 4c-.1.3-.3.8-.3 1 0 .5.7.6 1.1.7v.3h-2.7v-.3c.2 0 .6-.1.9-.6.5-.8 3-6.9 3.2-7.4.1-.4.2-.6.3-.9h.4c.1.3.2.6.3 1.1.3.8 1.7 4.5 2 5.3.8 2.3 1.1 2.3 1.6 2.4v.3c-.3 0-.7-.1-1.3-.1-.9 0-1.6.1-2 .1v-.3c.4-.1.7-.2.7-.5 0-.2-.7-2.1-.8-2.3h-1c-.5 0-1.2 0-1.9.1zm.6-1.7c.4.1.9.1 1.5.1.5 0 .7 0 .9-.1-.4-1.1-.8-2.1-1.3-3.1zm14.7 3.4c-1.3.4-2.6.4-2.8.4-2.8 0-4.9-1.9-4.9-4.6 0-3.1 2.5-4.6 5.2-4.6.6 0 1.1.1 1.8.3.2.1.4.2.6.2.1 0 .3-.1.4-.1l.2.1c-.1.3-.4 1.6-.4 1.9l-.2-.1c-.1-.6-.1-.8-.3-1s-1-.8-2.3-.8c-3.2 0-3.2 3.3-3.2 4 0 3.9 2.8 4.2 3.4 4.2 1.3 0 2.3-.7 2.7-1.9h.3c0 .2 0 .3-.1.7 0 .1-.2.6-.2.7zm7.1-3.9c0 .5 0 3.1.1 3.4s.9.5 1.2.5v.3c-.5 0-1.2-.1-1.8-.1-.3 0-1.8.1-2.1.1v-.3c.9-.1 1-.3 1.1-.6s.1-2.3.1-2.8v-.5c-.4-.7-.8-1.3-2.3-3.3-.5-.7-1-1.2-1.9-1.2l-.1-.3h4l-.1.4c-.1 0-.8 0-.8.3s1.6 2.4 2.4 3.5c1.8-2.8 1.9-3 1.9-3.3 0-.4-.5-.4-.9-.4v-.4h3v.5c-1 0-1.5.4-3.2 3.3zM22.5 11.046v-.2c0-.1 0-.2-.2-.4-.3-.3-.8 0-1.1.1 0-.1-.1-.2-.1-.2v-.1c0-.2-.2-.3-.3-.3.2 0 .6 0 .7-.3v-.2h.2c.3.1.8.2 1-.2v-.1c0-.1-.1-.2-.1-.3.1-.1.5-.3.5-.7 0-.1 0-.2-.1-.3-.2-.4-.6-.3-.8-.2h-.1v-.1c0-.1 0-.2-.1-.3s-.1-.1-.2-.1c.1-.1.2-.2.2-.4 0-.1 0-.2-.1-.3s-.1-.2-.3-.3c-.3-.1-.6 0-.8.1 0 0 0-.1-.1-.1v-.2c0-.1 0-.2-.1-.3.1-.1.4-.3.4-.5v-.1c0-.1 0-.2-.1-.3-.3-.3-.7-.2-.9-.1-.1-.1-.1-.3-.4-.3-.3-.1-.5.2-.7.3l-.1.1-.3-.2c-.3-.1-.6.4-.6.5 0-.1-.1-.1-.2-.2.1-.1.4-.3.4-.6 0-.1-.1-.3-.2-.4-.1-.2-.3-.2-.5-.2-.3 0-.5.3-.7.4 0 0 0-.1-.1-.2v-.4s0-.1-.1-.1c.2-.1.4-.4.4-.6 0-.1 0-.1-.1-.2-.2-.3-.3-.3-.5-.3v-.2c0-.2-.1-.5-.4-.6-.4-.1-.6.2-.8.4-.1-.1-.2-.2-.4-.2-.1-.2-.3-.3-.4-.3-.4 0-.5.4-.6.7 0 0 0 .1-.1.1h-.1c-.1 0-.3-.1-.4 0-.2.1-.2.2-.2.4s.1.5.2.7v.1c-.2 0-.3.1-.4.2 0 .1-.1.1-.1.2l-.1-.1c0-.3.2-1 0-1.3-.1-.1-.1-.1-.2-.1h-.1c0-.3-.1-.7-.4-.8-.2-.1-.4 0-.4.1-.2-.2-.5-.7-.9-.5-.2.1-.2.2-.2.4s.1.4.2.6c-.1 0-.4.1-.4.3v.1c-.2-.2-.5-.3-.9 0-.2.1-.2.3-.2.4 0 .3.1.5.2.7-.1.1-.3.2-.3.4v.1c0 .5.5.6.8.7l-.2.1-.1-.1c-.2-.2-.7-.5-1.2 0-.1.1-.1.2-.1.3 0 .2.2.4.3.6l.1.1v.1l-.1.3v.1h-.1v-.1c0-.3 0-.6-.3-.7-.2-.1-.3.1-.4.1 0-.3-.1-.8-.5-.8-.2 0-.3.2-.4.3-.1-.1-.3-.4-.6-.3s-.3.3-.3.6v.5c-.1.1-.3.1-.3.3v.1c0 .3.4.5.6.7-.1 0-.1.1-.2.2-.2-.1-.4-.1-.6-.1-.2.1-.3.3-.3.4v.1c-.2 0-.5-.1-.7.3-.1.1-.1.2-.1.3s0 .2.1.3c.1.2.4.4.6.4 0 .1-.1.1-.1.2l.1.3c.2.2.5.1.7 0s.3-.1.4 0c0 0-.1.1-.1.2h-.2c-.2 0-.3.2-.3.3-.2-.2-.5-.4-.8-.3-.2.1-.3.2-.3.4v.2c-.2 0-.4-.1-.6 0-.1.1-.2.2-.2.3v.1c0 .4.4.5.7.6-.1.1-.1.2-.1.3s0 .2.1.3c.4.3.7.1.9 0v.3H5c-.1 0-.3.1-.4.3v.4c.1.4.6.4.8.4h.1c0 .1 0 .3.2.4.4.3.9-.1 1.1-.3l.1.1c0 .1.1.2.1.2-.1.1-.4.4-.4.7 0 .1 0 .2.1.3.2.3.6.1.9-.1l.2-.1c0 .1.1.4.5.3.5-.1.6-.5.7-.7 0-.1.1-.1.1-.2l.2.2h.2c.3-.2.5-.8.5-1 .6.3 1.1 1.1 1.2 1.3.1.1.3.5.6 1 .2.3.4.7.5.8-.1.8-.5 1.4-1.1 1.7l-.2.1c-.5.3-1.3.7-1.7 1h-.1c-.3 0-.5.1-.6.2-.2-.1-.4-.2-.6-.2-.6 0-.8.3-1 .5-.2.4-.1.8 0 1.1.2.3.5.5 1 .5.3 0 .5-.1.6-.1.1.1.3.1.6.1s.5-.1.6-.1c.2.1.3.2.5.2.3 0 .4-.1.5-.1.1.1.3.1.5.1.3 0 .5-.1.6-.1.2.1.4.2.5.2.3 0 .4-.1.5-.1.1.1.3.1.5.1.3 0 .5-.1.6-.1.2.1.3.2.5.2.3 0 .4-.1.5-.1.1.1.3.1.5.1.3 0 .5-.1.6-.1.2.1.4.2.5.2.3 0 .4-.1.5-.1.1.1.3.1.5.1.3 0 .5-.1.6-.2.2.1.5.2.7.2.5 0 .8-.2 1-.5.2-.4.1-.8 0-1-.2-.3-.5-.5-1-.5-.3 0-.5.1-.6.1s-.2-.1-.4-.1c-.2-.3-.4-.5-1.3-.8l-.1-.1c-1-.4-1.2-.8-1.4-1.1s-.5-2 .2-3c.4-.6.9-.9 1.2-1 0 .3.1.7.3.8l.2.1s.1 0 .1-.1v.1c.1.3.3.7.6.7s.4-.1.4-.2c.1.1.3.3.6.3.2 0 .4-.2.4-.2.1 0 .5.2.7-.2.1-.1.1-.2.1-.2 0-.2-.2-.3-.3-.4 0 0 .1-.1.1-.3.1 0 .2 0 .3-.1s.2-.2.2-.3c.1 0 .4.1.6-.2v-.2c.1-.1.2-.2.2-.3.2.1.5.2.7.1s.2-.3.3-.5c.2 0 .4.1.6-.1.1-.1.2-.2.2-.4v-.1c.5-.5-.1-.6-.3-.6m-1.6-.7-.2.2-.1.1c-.1.2-.2.5-.8.7v-.1c-.1-.2-.2-.3-.2-.6v-.8c.5-.1.9 0 1.1.2l.2.1c-.1.1-.1.2 0 .2m-3.2 0 .1.2v.1c-.2.1-.5.1-.7 0h-.3c-.1.1-.1.2-.1.2v.1c-.1 0-.6-.1-.8-.2-.1 0-.3-.2-.2-.6.1-.3.3-.7.5-.8.1.1.2.1.2.1l.3-.2c.4-.3.5-.4.5-.4l.1.1c.1 0 .2 0 .3-.1.1 0 .2-.2.3-.1.1 0 .1.1.1.1l.1.2h.3c.1 0 .4-.1.4 0 .1.2 0 .3-.2.4-.1.1-.2.1-.2.2l.1.2v.1c0 .1-.1.1-.1.1h-.7zm-2 1.9-.4.4v-.1c0-.3 0-.7.1-1l.3-.6c.1.1.2.1.4.1 0 .1 0 .1-.1.2l-.3.2c-.2.3-.1.6 0 .8m-.6-2.5c-.1-.1-.1-.1-.2-.3s-.2-.5-.2-.7c0-.1 0-.2.1-.2h.2c.1 0 .1-.1.1-.1 0-.1 0-.1-.1-.2s-.2-.4-.2-.6v-.2c0-.1.1-.1.2-.2h.1q.15.15.3 0l.1-.2c0-.1.1-.6.3-.6h.1s.1.1.2 0l.1-.1c.3-.3.4-.2.4-.2.1 0 .1.2.1.3s0 .2.1.3h.3c.1.3-.1.5-.3.7-.1 0-.1.1-.1.2l.1.1.1.1c0 .1-.4.3-.5.4l-.2.2s-.1 0-.1.1l.1.1.2.1h.1c-.2.4-1.1.8-1.4 1m-.5-.1h-.2c0-.2-.1-.7-.3-.8-.2-.2-.4 0-.6.1-.1-.3-.4-.6-.7-.7-.1-.1-.2-.2-.2-.4 0-.1.1-.1.2-.2.2-.1.1-.2.1-.4 0-.4 0-.6.2-.6.2-.1.5.2.6.5l.2.2c.1 0 .2-.1.3-.1l.1-.1c.1.1.2.2.2.3v.3c0 .2.1.5.2.6-.1 0-.1.1-.2.1-.1.1-.1.3-.1.4-.1.2.1.5.2.8m-.4 1.8c0 .2.1.5.1.7v.2c0 .2-.1.6-.2.9l-.5-.8c-.2-.4-.3-.8-.3-1 .4.1.6.1.9 0m.3-.7c-.1.4-.2.3-.4.4-.3 0-.4.1-.7-.1l-.1-.1v-.3h-.1l-.3.1c-.1.1-.4.2-.5.1 0 0-.1 0-.1-.1-.1-.2 0-.3.1-.4 0 0 .1-.1.1-.2s-.2-.2-.3-.2c-.3 0-.4-.1-.4-.2s.1-.2.2-.3l.1-.1v-.1s-.2-.3 0-.5.3 0 .4 0c0 0 .1.1.2 0 .1 0 .1-.1.1-.1s0-.2.1-.2.4.3.5.6l.1.1c.1 0 .2 0 .3-.1l.2-.1c.1.1.2.6.2.7 0 0 0 .1.1.2s.2 0 .3 0h.1c-.1.3-.1.6-.2.9m-2.5.1v.1c0 .2-.3.4-.4.5-.1-.1-.3-.1-.3-.2-.3-.5-.5-.4-.3-.4h-.1l-.1.1c-.1-.3-.2-.6-.3-.7v-.3l.2-.2c0-.1 0-.2-.1-.3s-.3-.3-.2-.4l.1-.1.1-.1c.1-.1.1-.1.1-.3 0-.3 0-.5.2-.6h.1c.1.1.3.3.3.5v.1c.1.1.2 0 .2 0q.15-.15.3 0c-.1.1-.2.3-.2.4s0 .3.1.4c-.1.1-.2.2-.2.4 0 .4.4.5.7.5-.1.1-.1.2-.1.3-.1.1-.1.2-.1.3m-.1 1c.3.1.9.3 1.2 1.4.1.5.1.9.1 1.1v.3c-.3-.2-1.1-1-1.1-1.9v-.2c-.1-.3-.2-.5-.2-.7m-1.9-1.8c-.1 0-.1.1-.1.2-.1-.2-.3-.4-.5-.5-.2 0-.3.1-.3.2-.1-.1-.4-.2-.6-.2 0 0-.1 0-.1.1-.2-.1-.4-.1-.6-.1v-.1l-.2-.2c-.2-.1-.3-.2-.2-.4 0-.1.1-.2.3-.2h.1l.3-.1v-.1c0-.1 0-.1.1-.2.1.2.2.3.4.5 0 .2.1.4.4.5s.8.1 1.1-.1c.1.1.2.2.2.3l-.1.1c-.1.1-.2.2-.2.3m-2.9.8v-.3c0-.1-.1-.2 0-.2.1-.1.1-.1.2-.1h.1l.1-.1c.1-.1.3-.3.6-.2 0 .1-.1.1-.1.2 0 .2.1.3.2.4l-.5.9c-.1-.1-.4-.2-.5-.4zm1.8-2.2c-.1.1-.2.1-.2.1-.3-.2-.5-.6-.5-.9v-.2h.3c.2 0 .5-.1.9 0 0 .2-.3.7-.5 1m2.1-3v-.2c.1 0 .2.1.2.1h.2c.2 0 .5 0 .8.5-.2.1-.4.2-.7.3-.2.1-.4.2-.5.3-.2-.5-.1-.7 0-.8zm4.1-.4c.2-.1.3-.2.3-.1.1 0 .1.1.1.2v.1c.1.1.2.4.1.8-.1-.1-.8-.3-1.2-.3.2-.4.5-.6.7-.7m2.1 1.6c.1-.1.3-.2.3-.4v-.1c0-.1 0-.2-.1-.2.1 0 .1-.1.2-.1.1.1.2.2.2.3l.2.1c.1 0 .2 0 .4-.1s.4-.2.5-.1.1.2.1.2c-.2.1-.4.4-.4.5-.3 0-.6 0-.8.2-.1 0-.5.1-.8.4-.1.1-.1.2-.1.4l-.1-.1c.2-.2.4-.4.4-.7zm1.9.4v.3c0 .2-.1.5-.3.7-.3-.1-.5-.2-.7-.5l-.1-.2v-.3c.4-.2.8-.1.9-.1zc-.1-.1 0-.1 0-.1.1 0 0 .1 0 .1m-2.6 1.5c0-.1-.1-.1-.1-.2.2-.1.4-.3.5-.5 0 .2.1.4.2.6-.2 0-.5.3-.7.5.1-.1.2-.2.1-.4.1.1.1 0 0 0m5.4-1.2v.2c.1.2.3.1.4.1.3-.1.4-.1.4.1.1.3 0 .4-.3.6l-.2.1c-.1.1 0 .2.1.3 0 .1.1.1.1.2-.1.2-.4.1-.7 0-.2-.1-.4-.1-.5 0s-.1.2-.1.3v.1c0 .1-.2.1-.4.1-.1 0-.2 0-.3.1-.2-.1-.6-.1-1-.1v-.1c-.1 0-.1-.1-.2-.1v-.3c.4 0 1.2 0 1.4-.4v-.1c0-.1 0-.2-.1-.3.4 0 1.1 0 1.1-.4v-.1c0-.3-.1-.4-.3-.4l.1-.1.1-.1c.2 0 .2.1.3.1.2.1.1.2.1.2m-.8-1c.1-.1.4-.2.6-.1 0 0 .1 0 .1.1.1.2 0 .3-.2.5h-.1l-.1.1q-.3.15-.3.3v.1l.1.1c.1 0 .2.1.2.3 0 .1-.1.2-.9.2-.2 0-.3 0-.3.1s0 .2.1.2c0 .1.1.2.1.3-.1.3-.9.3-1.2.2h-.1c-.1 0-.1-.1-.2-.1 0-.1.1-.2.1-.3l.3-.3s.2-.2.2-.4v-.5c0-.1.1-.3 0-.4s-.3-.1-.4 0c.1-.1.2-.3.3-.3s.2 0 .3.1l.2.1c.1 0 .2-.1.4-.2.2-.2.3-.4.5-.3.1 0 .1.1.1.2s.1.2.2.2zm-.8-1.8q-.15 0 0 0m-2.1.6.2-.1c0-.1.2-.3.3-.3l.1.1.2.1.3-.2c.1-.1.3-.3.4-.3s.2.1.2.2l.1.2h.2q.3-.15.6 0v.1c0 .1-.3.3-.4.4l-.1.1v.1c0 .1.1.2.1.3-.4-.1-.7.3-.8.5l-.1.1c-.1-.1-.2-.2-.4-.2 0-.1-.1-.2-.2-.3 0-.1-.2-.1-.3-.2-.3-.1-.5.1-.7.2 0 0-.1 0-.1.1-.1-.1-.1-.2-.2-.3.5-.3.6-.4.6-.6m-1.2-.8.3-.2c.1-.1.3-.3.5-.3.1 0 .2 0 .3.1s.1.1.1.2-.2.3-.3.4l-.2.3c0 .1.1.2.2.2.1.1.1.1.1.2q0 .15-.3.3h-.1c-.1.1-.2.1-.3.2l-.1.1c0 .1 0 .1.1.2 0 .1.1.1.1.2s-.2.2-.3.3H17v-.1c0-.2 0-.4-.2-.5h-.3c-.5.4-.3 0-.3-.1 0-.2-.1-.4-.2-.6 0-.1 0-.1-.1-.2.1-.1.2-.1.3-.1h.1c.1 0 .2-.1.2-.3.1-.2.2-.5.4-.6h.1s.1.1.1.2c-.3-.1-.2.1-.1.1m-1.6-2.3.2.1c.1 0 .2-.1.3-.2.2-.2.3-.4.5-.3.2 0 .2.2.1.5v.3l.2.1c.1 0 .2 0 .3.2.1.1-.2.4-.4.5-.1 0-.1.1-.1.2s.1.1.1.1h.1v.1h-.2c-.3.1-.5.5-.5.8h-.3c.1-.2.1-.4.1-.5v-.1c-.1-.2-.2-.2-.3-.2.1-.2.3-.4.3-.7 0-.2 0-.3-.2-.5-.1-.1-.2-.1-.4-.1v-.3zm-1.9 1.7c.1-.1.2-.1.3-.1s.1 0 .1-.1c.1-.1 0-.2-.1-.4s-.3-.6-.2-.7h.5c.1 0 .1-.2.2-.3.1-.2.2-.5.3-.5s.2.1.2.2c.1.2.1.5 0 .7v.2c.1.1.2 0 .2 0s.1-.1.2-.1c.2.3 0 .7-.2.9-.1.1-.1.2-.1.2.1.1.2.1.2.1.1 0 .2 0 .2.1s-.1.4-.3.7c-.1 0-.1.1-.2.1-.1.1-.4.2-.6.3 0-.1-.3-.1-.4-.1h-.1c.1-.1.2-.4.2-.6q0-.3-.3-.6c.1 0-.1.1-.1 0q0 .15 0 0m-.4.4.2.2c.1 0 .2-.1.2-.1l.1-.1c.3.2.2.4 0 .8l-.1.2c0 .2.3.2.5.2h.2c-.1.1-.1.2-.1.3-.1 0-.2.1-.3.2s-.1.3-.1.4c-.1-.1-.2-.2-.4-.2H13c-.1 0-.2.1-.2.1 0-.1-.1-.2-.1-.2-.1-.1-.1-.1-.2-.1 0-.1-.1-.2-.1-.3l.1-.1c0-.1 0-.1-.1-.2-.2-.3-.3-.5-.3-.5 0-.1.1-.1.1-.1.1 0 .2 0 .2-.1q.15-.15 0-.3c0-.3 0-.5.1-.6.2 0 .5.3.6.5m-2.3-1.5c0-.1.1-.1.2-.1s.2 0 .2-.1c.1-.1 0-.2 0-.3-.1-.2-.2-.6-.1-.6.2-.1.5.3.6.4l.2.1c.1 0 .1 0 .2-.1 0-.1 0-.1.2 0 .1 0 .2.5.1.8 0 .1 0 .1.1.2h.2l.1-.1v.9c-.1-.1-.2-.1-.4-.1-.1 0-.2.1-.2.1-.2-.1-.3-.1-.4 0 0-.3-.1-.9-.5-1-.2 0-.3.1-.4.3-.1-.3-.1-.4-.1-.4m-1.2 1.6c0-.1.1-.1.2-.2.1 0 .1-.1.2-.1l-.1-.2c-.2-.3-.3-.6-.1-.8.3-.2.5 0 .8.3.1.1.2.2.3.2s.2-.1.2-.2.1-.2.2-.2c.2 0 .3.6.3.8 0 .1 0 .2.1.3h.2c.1 0 .1-.1.3 0v.6c-.1 0-.3 0-.4.2v.1c0 .2.1.3.2.5-.1-.1-.2-.1-.3-.1s-.1.1-.4-.1c-.1-.1-.2-.1-.4 0s-.2.3-.2.5l-.4-.1s0-.1.1-.1l.2-.3c0-.2-.2-.2-.4-.3-.3-.5-.6-.6-.6-.8m-.7 1c.2-.2.5-.1.8.1l.3.1h.1c0 .3.3.3.6.4-.1.2-.1.5.1 1-.1.1-.1.2-.1.3 0 .2.3.4.5.5.3.1.7.1.9.1h.1c0 .2.1.3.2.4-.1.1-.1.1-.1.2-.1 0-.2-.1-.3 0-.2-.3-.5-.2-.7-.2-.1-.2-.2-.4-.4-.5h-.3s-.1 0-.1.1c-.1-.3-.3-.4-.5-.5h-.1v-.3c0-.2-.2-.2-.4-.2-.3 0-.4-.1-.4-.2l.1-.2.1-.3-.3-.4c-.2-.2-.2-.3-.1-.4M6 6.646c0-.1.1-.1.2-.1l.2-.1c.1-.1 0-.2 0-.3-.1-.3-.1-.5.1-.6.1 0 .2 0 .3.2l.2.2c.2 0 .3-.1.3-.2s.1-.2.1-.2c.1 0 .2.4.2.5 0 .2 0 .3.2.4.2 0 .3-.1.3-.2l.1-.1c.1 0 .1.3.1.5s0 .3.1.4c.1 0 .2.1.4 0 .2.2.4.2.6.2h.1v.2c-.5-.2-.9-.1-1.1 0h-.2l-.3.1v.8c-.2.1-.2.3-.3.4h-.1c0-.1-.1-.2-.1-.3 0-.2-.1-.3-.2-.4s-.3 0-.5 0c0 0-.1 0-.2.1l-.1-.1c-.1-.1-.2-.3-.2-.3.1-.1.2-.2.3-.2s.1 0 .2-.1c0-.1-.1-.2-.2-.2-.4-.3-.5-.5-.5-.6m-.1 2.9c-.2.1-.3.1-.4.1v-.1c0-.1.1-.2.2-.2 0 0 .1-.1.1-.2s-.1-.1-.1-.1c-.1 0-.5-.1-.6-.3v-.3c.1-.2.2-.2.4-.1h.2c.1-.1.1-.2.1-.3 0-.2 0-.2.1-.2.2-.1.4 0 .5.2l.2.3.1.1c.1.1.3 0 .4 0l.2-.1v.2c0 .1 0 .2.1.3-.1.1-.3.2-.3.4v.1c0 .3.3.5.4.5v.1c-.1 0-.1.1-.2.1s-.4 0-.5.2l-.2-.2c.1-.1.2-.4.1-.5-.3-.3-.6-.1-.8 0m-.4 2.2-.2.1c-.2.1-.3.2-.5.1-.1 0-.1-.1.1-.2.1-.1.1-.2.1-.3l-.2-.1c-.3-.1-.5-.2-.5-.4 0-.1.1-.1.1-.1.1-.1.3 0 .4 0h.3c.1-.1.1-.2.1-.3v-.2c.2 0 .4.2.5.3s.2.2.3.1c.1 0 .1-.1.2-.2 0-.1 0-.1.1-.2.1 0 .4.2.6.5v.1l.1.2.1.2c-.1 0-.4.2-.4.2-.1.1-.1.2-.1.4v.2c-.2-.1-.4-.3-.7-.2-.3-.2-.4-.2-.4-.2m1.8 1.5-.1.1-.1-.1-.2.1c-.1.1-.5.4-.7.3-.1-.1-.1-.1-.1-.2l-.1-.2-.3-.1c-.3 0-.4 0-.5-.2v-.1c0-.1.2-.1.3-.1l.3-.1v-.5c.1-.1.2 0 .4.1.1.1.3.2.4.1s.1-.2.1-.4v-.2c.1-.1.3-.1.5 0 .1.1.3.2.3.3-.1.2 0 .4.2.5.1 0 .1.1.3.2-.1.1-.1.1-.1.2v.1c-.2-.1-.4-.1-.6.2m2.4.8c0-.1-.1-.2-.2-.2h-.2c-.1.1-.2.2-.2.4-.1.2-.2.5-.5.5-.1 0-.1 0-.2-.1 0-.1-.1-.3-.3-.3l-.3.1c-.1.1-.5.2-.5.2-.1-.2 0-.4.2-.6l.1-.1c.1-.1 0-.2-.1-.3s-.1-.1 0-.3.3-.2.5-.1c.1 0 .2 0 .3-.1v-.1c0-.1-.1-.2-.1-.2l-.1-.1h.1c.2-.1.6.1.7.1s.1.1.2 0l.1-.1c0-.1 0-.1-.1-.2l-.1-.2c.1-.1.1-.1.2-.1h.2c0 .1-.1.1-.1.2v.1c.1.1.1.2.2.2.3.2.2.1.5.2-.1.6-.2 1-.3 1.1m-.1-1.4.2-.3c0-.1-.2-.1-.3-.1h-.2c-.2 0-.4-.1-.5-.3l.1-.1c.1-.1.2-.2.1-.3l-.2-.1c-.3 0-.4-.1-.4-.2l.1-.1c.1 0 .2-.1.2-.2l-.1-.2c-.2-.2-.3-.3-.2-.4 0-.1.1-.1.1-.1.1 0 .4.1.5.2l.1.1c.2.1.2-.1.3-.2v-.1c.3.1.4.4.4.5s.1.1.1.1c.1 0 .1 0 .2-.1 0-.1.1-.2.1-.3.1.1.3.4.3.8 0 .1 0 .1.1.2.1 0 .1 0 .2-.1 0-.1.1-.1.1-.1.1 0 .2.3.2.9v.1c0 .2.2.3-.4.5-.6 0-1 0-1.1-.1m-.3 8.2c-.3 0-.5-.1-.5-.1h-.2s-.1.1-.4.1-.5-.1-.7-.3c-.1-.1-.1-.5 0-.7s.4-.3.7-.3.6.1.8.3l.6.9.1.1c-.1-.1-.2 0-.4 0m4.4 0c-.3 0-.4-.1-.5-.1H13s-.1.1-.4.1-.5-.1-.7-.3l-.6-.9-.1-.1h.3c.3 0 .4.1.5.1h.2s.1-.1.4-.1q.45 0 .6.3l.6.9.1.1c0-.1 0 0-.2 0m4.3 0c-.3 0-.4-.1-.5-.1h-.2s-.1.1-.4.1-.5-.1-.7-.3l-.6-.9-.1-.1c.1 0 .2-.1.3-.1.3 0 .4.1.5.1h.2s.1-.1.4-.1.5.1.7.3l.6.9.1.1s-.1.1-.3.1m-2.6-7c-.8 1.2-.4 3-.2 3.4.2.3.4.8 1.5 1.2l.1.1c.7.3 1 .4 1.1.6-.2 0-.3.1-.4.1-.2-.1-.3-.2-.5-.2h-.3c0-.1-.1-.2-.1-.2-.2-.3-.5-.5-.8-.6-.4-.2-.8-.3-1-.9-.1-.3-.5-1.5-.5-1.2 0 .4.1.9.2 1.3.3.7.8.9 1.2 1.1.3.1.5.2.6.5-.1 0-.3-.1-.5-.1-.3 0-.5.1-.6.1-.2-.1-.4-.2-.6-.2-.3 0-.4.2-.4.2 0-.1-.8-.4-1.2-.1 0 0-.4-.2-.5-.1v-.3c0-.1 0-.2.1-.3 0-.1.1-.2.1-.3.4-1.1.2-.9-.2-.2-.1.1-.5 1-.6 1.1s-.7-.3-1.1.1c-.2-.1-.4-.2-.5-.2-.3 0-.4.1-.5.1.4-.3 1-.6 1.5-.8l.2-.1c.7-.3 1.1-1 1.2-2 0-.1 0-.1-.5-.9-.2-.4-.5-.8-.6-.9-.1-.2-.7-1.2-1.5-1.5.1 0 .3-.1.5-.1.1 0 .3-.1.3-.1.1 0 .2-.1.3-.1s0-.4 0-.6v-.4c.1 0 .4.3.4 1.2 0 1.3 1.3 2.3 1.4 2.3h.2c.1-.1.1-.3.1-.6s-.1-.8-.1-1.1c-.2-1.3-1-1.6-1.3-1.7h-.1c.1-.1.3-.2.4-.4.2.1.5 0 .7-.1 0 .3 0 .8.4 1.4l.4.7.2.4c0 .1.1.1.2.1.2-.1.4-1.3.4-1.4v-1c.1-.4.3-.2.2-1.4 0 0 .2.2.4.2l.4-.3c-.1.3-.3.7-.2.8s-.1.5-.2.8-.1.8-.2 1.1c0 .3 0 .5-.1.6v.1c0 .1 0 .1.1.1h.2c.2-.2.3-.6.7-.9.3.3.4.3.9.3-.2.3-.8.6-1.3 1.3m.5-1.8c0-.1-.1-.2 0-.4l.2-.1c.1-.1.3-.1.3-.4h.4c.1-.1.2-.2.2-.3.2.1.7.2 1-.1.1-.1.1-.1.1-.2v-.1h.3v.1c0 .1-.1.1-.2.2l-.2.2v.1c0 .1.1.1.1.2l.1.1c0 .2-.2.2-.5.3l-.3.1-.1.1c0 .1.1.2.1.2l.1.1c-.1 0-.3.1-.4.1l-.2.1c-.5.2-.8.1-1-.3m4.1 2.4c-.1.1-.2.1-.4 0h-.1c-.1 0-.2.1-.2.1-.1.1-.1.1-.2.1s-.3-.2-.4-.2l-.2-.1c-.1 0-.2.1-.2.1 0 .1-.1.1-.2.1s-.3-.4-.4-.5c-.1-.2-.1-.3-.2-.3s-.2 0-.3.1c-.1-.1-.2-.5-.2-.9 0 0 .3-.3.3-.2.6-.2.9-.2 1-.1v.3c0 .1.2.2.5.2.1 0 .4 0 .5.1v.1c0 .1-.1.1-.1.2v.1c0 .1.2.1.3.2.1 0 .3.1.3.1s-.1.1-.1.2l.2.2c.1-.1.1-.1.1.1q0-.15 0 0m-.5-1.3q0 .15 0 0m1.4-.2c0 .1-.1.1-.3.1h-.3l-.1.2v.1h-.4c-.1 0-.2-.1-.2-.1h-.1c0-.1.1-.1.1-.2s0-.1-.1-.2-.3-.2-.7-.2h-.2v-.1c0-.1 0-.2-.1-.2-.1-.1-.4-.1-.8 0 0-.1-.1-.1-.1-.2.2 0 .4-.1.6-.2.5.3 1 .2 1.3.1h.1c0 .1.1.1.2.2h.3c.1 0 .3-.1.4 0s.1.1.1.2v.3c0 .1.1.1.2.2.2-.2.2-.2.1 0m1.5-.7q0-.15 0 0m.6-.5c0 .1 0 .1-.1.2s-.3 0-.4 0h-.2c-.1.1-.1.2-.1.3s0 .2-.1.2-.3-.1-.4-.1q-.15-.15-.3 0l-.1.1v.1c-.1-.1-.2-.2-.3-.2 0 0 .1-.1.1-.2s0-.2-.2-.4q-.3-.15-.6 0h-.2s-.1-.1-.1-.2c.1 0 .1 0 .2-.1.1 0 .1 0 .2-.1.2-.1.2-.1.3-.2.2-.2.3-.4.3-.5 0 0 .1.1.1.2s0 .2.1.2.2 0 .3-.1c.2-.1.6-.3.7-.2q.15.15 0 .3c-.1.1 0 .2.1.3h.1c.4.1.6.2.6.4"/><path fill="#002453" d="m21.6 7.146-.1.2-.1-.1c.1 0 .2 0 .2-.1m4.8 41.7-.4-.8-.5-1.1c-.4-.8-1-1.2-1.8-1.3 1.7-2.9 2.9-6.5 2.9-10.5v-12.9c0-.1-.1-.1-.1-.1H1c-.1 0-.1.1-.1.1v12.9c0 4.1 1.2 7.6 2.9 10.5-.7.1-1.4.5-1.8 1.3l-.5 1.1-.4.8c-.3.7-.7 2.1.7 3.8 1.1 1.4 3.4 2.9 6.2 4l.1.1c.2.1.5.2.7.3-.2.2-.6.5-.8.7l-.2.2c-.1 0-.1.1-.2.1v.1c-.2.3-.4.6-.4 1.1v2.5c0 1 1.4 1.4 2.7 1.4h7.5c1.3 0 2.7-.4 2.7-1.4v-2.5c0-.5-.1-.8-.4-1.1v-.1s-.1-.1-.2-.1l-.2-.2c-.3-.2-.6-.5-.8-.7.2-.1.5-.2.7-.3l.1-.1c2.8-1.1 5.1-2.6 6.2-4 1.6-1.7 1.2-3.1.9-3.8m-1.6-2.2c.3.5.3 1.3 0 2-.1.1-.1.3-.2.4l-.9-1.3-.1-.1c-.1 0-.1.1-.1.1q-.15.3-.6.6c-.3.1-.6.1-.8 0 .6-.7 1.1-1.5 1.6-2.4h.1c.3.1.7.3 1 .7m-8.1 12.7.2.2h-6.2l.2-.2c.4-.3.7-.6.7-1.4v-1.8c0-1.7-1.5-2.4-3.2-3.2l-1.8-.9c-.6-.3-1.3-.8-2.1-1.4l1.3-2c3.6 4.6 7.8 7.1 7.9 7.1h.1c.1 0 4.3-2.5 7.9-7.1l1.4 2c-.7.6-1.5 1.1-2.1 1.4l-1.8.9c-1.7.8-3.2 1.5-3.2 3.2v1.8c0 .8.3 1.1.7 1.4m-12.5-8.8c-.4-.4-.8-.8-1.1-1.2.2-.2.7-1 .8-1.2.1.2.3.4.6.5s.6.1.9.1zm17.9-1.8c.3.1.6 0 .9-.1s.5-.3.6-.5c.2.2.7 1 .8 1.2-.3.4-.7.8-1.1 1.2zm-20.9-26.3h25.2v9.6H1.2zm0 12.7v-2.4h25.2v2.4c0 12.7-11.8 19.9-12.6 20.4-.8-.5-12.6-7.7-12.6-20.4m1.6 11.5c.2-.4.6-.6 1-.7h.1c.5.8 1 1.6 1.6 2.4-.3.1-.6.1-.8 0q-.45-.15-.6-.6c0-.1-.1-.1-.1-.1-.1 0-.1 0-.1.1l-.9 1.3c-.1-.1-.1-.3-.2-.4-.4-.7-.4-1.4 0-2m5.5 9.8-.1-.1c-2.8-1.1-5-2.5-6.1-3.9-1.2-1.5-1-2.7-.7-3.5l.4-.8.5-1c-.1.4-.1 1 .2 1.7.6 1.3 2.4 2.8 3.9 3.6.6.4 1.2.6 1.8.9 1.7.8 3 1.4 3 2.9v2.2c0-.2-.1-.4-.3-.5-.6-.7-1.5-1.1-2.6-1.5m-.5 1.9q0-.15 0 0l.2-.2.2-.2c.3-.2.7-.5.9-.8.6.3 1.2.6 1.5 1 .3.3.3.8.1.9l-.1.1-.4.4H10c-1.2 0-2-.4-2.2-.8-.1-.2-.1-.3 0-.4m12.1.6v2.7c0 .8-1.3 1.1-2.4 1.1H10c-1.1 0-2.4-.3-2.4-1.1v-2.7c.3.5 1.1.9 2.4.9h7.5c1.3 0 2.1-.5 2.4-.9m-.6-1 .2.2.2.2q.15.15 0 .3c-.2.4-1 .8-2.2.8h-.3l-.4-.4-.1-.1c-.2-.2-.2-.6.1-.9.3-.4.9-.7 1.5-1 .3.3.6.6 1 .9m6.2-5.5c-1.1 1.4-3.4 2.8-6.1 3.9l-.1.1c-1.1.4-2 .8-2.6 1.4-.1.1-.2.3-.3.5v-2.2c0-1.5 1.3-2.1 3-2.9l1.8-.9c1.4-.8 3.3-2.2 3.9-3.6.3-.7.3-1.3.2-1.7l.5 1 .4.8c.3.9.5 2.1-.7 3.6"/><path fill="#002453" fill-rule="evenodd" d="M5.6 52.746c0-.1.1-.1.1-.2-.2-.1-.4-.3-.6-.4 0 .1-.1.1-.1.2l.1.1c-.2.4-.4.9-.6 1.3-.1 0-.1-.1-.2-.1 0 .1-.1.1-.1.2.3.2.7.4 1 .6.1-.1.2-.3.3-.4-.1 0-.1-.1-.2-.1-.1.1-.2.2-.3.2s-.3-.1-.4-.2c0-.1.5-1 .6-1.3.3 0 .4 0 .4.1m-1.6.1c.1-.2.2-.3.2-.5l-.1-.1-.1.1s-.2-.2-.3-.2l.3-.6c.1.1.3.2.3.3s-.1.2-.1.3c0 0 .1.1.2.1.1-.1.1-.3.2-.5-.3-.2-.6-.5-.9-.7 0 .1-.1.1-.1.2l.1.1c-.2.5-.4.8-.7 1.3l-.1-.1c0 .1-.1.1-.1.2.3.3.6.5.9.8.1-.1.2-.3.3-.4l-.1-.1-.2.2c-.1 0-.3-.2-.4-.3 0-.1.2-.4.3-.6.1.1.2.1.3.2 0 0 0 .1-.1.2.1 0 .2 0 .2.1m5.4 1.6c-.4-.2-.9-.4-1.4-.7-.1.1-.2.3-.2.4.1 0 .1.1.2.1.1-.1.1-.2.2-.3.1 0 .2.1.3.1-.2.4-.4.9-.6 1.3-.1 0-.1-.1-.2-.1 0 .1-.1.1-.1.2.2.1.5.2.7.3 0-.1 0-.1.1-.2-.1 0-.1-.1-.2-.1.2-.4.4-.9.6-1.3.1 0 .2.1.3.2 0 .1-.1.2-.1.3l.2.1c.1 0 .2-.2.2-.3m-1.6-.8-.6-.3c0 .1-.1.1-.1.2.1 0 .1.1.2.1-.2.4-.5 1.5-1 1.2-.3-.2-.2-.5 0-.8.1-.2.2-.4.3-.7.1 0 .1.1.2.1 0-.1.1-.1.1-.2l-.6-.3c0 .1-.1.1-.1.2l.1.1c0 .1-.2.3-.2.4-.2.5-.4.8-.2 1.1 0 .1.1.1.2.2s.3.1.4.2c.5 0 .8-.7 1.1-1.3 0 0 .1 0 .1.1.1-.2.1-.2.1-.3m-4.4-2.6.1.1c0-.1 0-.1.1-.2-.2-.1-.3-.3-.5-.4 0 .1-.1.1-.1.2s.1.1.2.2c-.1.2-.7.8-.8.8 0 0 .2-1.3.2-1.4l.2.2c0-.1.1-.1.1-.2-.2-.2-.3-.4-.5-.6l-.1.1.1.1c0 .2-.3 1.7-.3 1.9l.2.2c.3-.2 1-.9 1.1-1m16.3 3.6c0-.3 0-.5.1-.8l.3.6c-.1.1-.2.1-.4.2m1.5-.2c0 .1.1.2 0 .3 0 .1-.4.3-.5.3-.1-.2-.2-.4-.2-.5.1 0 .4-.2.4-.2l.1.1c.1 0 .1-.1.2-.1-.1-.2-.1-.3-.2-.5-.1 0-.1.1-.2.1v.2c0 .1-.3.2-.4.2l-.3-.6c.1-.1.4-.2.5-.2s.1.1.2.2c.1 0 .1-.1.2-.1 0 0-.2-.3-.2-.4-.3.2-.8.4-1.1.5 0 .6-.1 1.3-.2 1.9l-.1.1c0 .1 0 .1.1.2l.6-.3c0-.1 0-.1-.1-.2-.1 0-.1.1-.2.1v-.7c.1-.1.3-.1.5-.2.1.2.2.4.2.5-.1 0-.1.1-.2.1 0 .1.1.1.1.2l1.2-.6c0-.1-.1-.3-.1-.4-.2-.1-.2 0-.3 0m1.3-2.2.1-.1c0-.1-.1-.1-.1-.2-.2.1-.4.2-.5.4 0 .1.1.1.1.2.1 0 .1-.1.2-.1.1.3.1 1 .1 1.2v.2l-.2-.2-.5-.5c-.1-.1-.1-.2-.2-.2.1 0 .1-.1.2-.1 0-.1 0-.1-.1-.2-.2.1-.5.3-.7.4 0 .1 0 .1.1.2 0 0 .1 0 .1-.1l.3.3c.2.2.4.4.6.7l.3.3c.1 0 .2-.1.2-.1 0-.4-.1-.9-.1-1.3.2-.4.2-.6.1-.8m-5.1 9v-.7h.3c.2.1.3.4.2.6-.1.1-.3.1-.5.1m.8.5c-.1-.1-.2-.4-.3-.5.3-.1.5-.6.2-.8-.2-.2-.7-.1-1.2-.1v.2h.2v1.4h-.2v.2h.7v-.2h-.2v-.6h.2c.2.1.3.6.4.7h.4v-.2h-.2c.1.1.1 0 0-.1m-4.1 0c0 .2-.2.2-.3.2h-.2v-.7c.2 0 .6.1.5.5m-.6-1.2c.2 0 .4 0 .4.1 0 0 .1.1 0 .2 0 .2-.2.3-.5.3.1-.2.1-.4.1-.6m.5.6c.3-.1.5-.6.1-.8-.2-.1-.8-.1-1.1-.1v.2h.2v1.4H13v.2c.4 0 .9.1 1.2-.1.2-.1.4-.4.2-.7-.1 0-.2 0-.4-.1m-2.3.1v-.7h.3c.2.1.3.4.1.6-.1.1-.3.1-.4.1m.8.5c-.1-.1-.2-.4-.3-.5.3-.1.5-.6.2-.8-.2-.2-.8-.1-1.2-.1v.2h.2v1.4h-.2v.2h.7v-.2h-.2v-.6h.2c.2.1.3.6.4.7h.4v-.2h-.2zm-2.8-.3c.1-.2.2-.5.2-.7l.2.7zm.4-1.1h-.3c-.2.5-.4 1.1-.6 1.6H9v.2h.6v-.2h-.2c0-.1.1-.2.1-.3h.6c0 .1.1.2.1.3H10v.2h.7v-.2h-.2c0-.5-.2-1.1-.4-1.6m14.1-7.4c-.4.3-.8-.2-.9-.6 0-.2 0-.4.1-.6l.1-.1c.1-.1.2-.1.3-.1.4-.1.8 1 .4 1.4m.1-1.5c-.2-.2-.5-.3-.9 0l-.2.2c-.2.2-.2.4-.3.6v.3c0 .1.1.3.2.4.2.4.5.4.9.3.8-.3.8-1.4.3-1.8m-8.6 10.5c-.5.1-.7-.5-.6-1 0-.2.1-.4.3-.5h.1c.1 0 .2 0 .3.1.5.2.5 1.3-.1 1.4m-.1-1.6h-.2c-.2.1-.4.2-.5.4 0 .1-.1.2-.1.3v.4c.1.4.3.7.7.7.7.1 1.2-.7.9-1.4 0-.3-.3-.4-.8-.4" clip-rule="evenodd"/><path fill="#002453" d="M18.599 42.946c-2.4-2.8-5.7-1.4-5.8-1.4-.6.1-1.2.4-1.5.6l-.3.1-.4.1-.7.1c-.4.1-.9.3-1.5.7l-.4.2c-.7.4-.9.7-.9.8q-.3.15-.3.3v.1c0 .1 0 .2.1.3.1.4.5.5.5.5h.1c.2-.1.3-.1.4.2 0 .1-.2.2-.2.2-.1 0-.1.1-.1.1.1.4.6.3.8.3h.3c.3 0 .8-.1 1-.1s.3.1.5.2c0 .1-.1.1-.1.1h-.2c-.3.1-.8.1-1 .6-.2.4-.1.7 0 .8l.1.2c.1 0 .3-.1.4-.2.3-.2.4-.3.4-.4s.1-.2.1-.2h.1c.2.1.6.3.9.1 0 .1-.1.2-.2.3s-.3.1-.5.1c-.1 0-.3 0-.3.1-.1.1-.4.5-.4.6v.2l.1.1h1.1c.3 0 .7 0 .8-.1l.1-.1.5-.4.5-.4.2-.2s.1-.1.1-.2l.6.3c-.1 0-.2 0-.5.1s-.5.3-.7.6v.2c-.1.2.1.3.6.4.1 0 .3 0 .4-.1l.3-.1h1.9l-.4.3c-.4.3-1.1.7-1.8 1.3-.8.6-1.3 1.6-1.3 2.1v.2c0 .2.2.3.5.4 1.5.2 2.5-.8 3.2-1.6l.2-.2c.5-.5.9-1.2 1.2-1.6.1-.2.2-.4.3-.4.7-.5 1.6-1.8 1.8-3.3.4-1.1.1-2.1-.6-2.9m-7.6 4.2c-.1.1-.8-.1-.8-.1l-.2-.1c-.1 0-.3.1-.3.3 0 0 0 .1-.2.2-.1.1-.2.2-.3.2 0 0-.1-.3-.1-.5 0-.1 0-.2.1-.4.1-.3.5-.4.8-.4l.2-.1c.1 0 .2-.1.2-.2.1.1.2.2.3.2q.15.6.3.9m2.9 1.3h-1.2c.1-.3.5-.6.7-.7.3-.1.4-.1.4-.1.1 0 1 .2 1.2.2l.1.1c.4.2.9.3 1.1.3 0 .1 0 .2-.1.2zm5.3-2.6c-.2 1.3-1 2.7-1.7 3.1-.1 0-.1.2-.3.5-.2.4-.6 1.1-1.1 1.6l-.2.2c-.7.8-1.6 1.7-3 1.6-.2 0-.3-.1-.3-.2-.1-.4.3-1.4 1.2-2.1.7-.6 1.3-1 1.8-1.3l.5-.4.1-.1c.1-.2.2-.4.2-.5v-.1h-.1s-.6 0-1.1-.3c-.4-.2-.6-.5-.8-1-.2-.7.1-1.1.5-1.5.3-.3.5-.6.4-1 0-.1-.1-.1-.1-.1-.1 0-.1.1-.1.1v.1c0 .2-.2.5-.4.8-.3.3-.6.7-.6 1.2 0 .1 0 .3.1.5.1.3.2.5.4.7-.4-.1-.9-.3-1.4-.6h-.1c.1-.4 0-1.1 0-1.3 0-.1-.1-.1-.1-.1-.1 0-.1.1-.1.1.1.6.1 1.4 0 1.5l-.2.2-.5.4-.5.4-.2.1c-.1.1-.5.1-.7.1h-.9c.1-.2.2-.4.3-.4h.2c.2 0 .4 0 .6-.1.3-.2.3-.4.4-.5 0-.1-.2-.8-.3-1s-.7-.6-1.1-.7c-.3-.1-.8 0-1.1.1h-.3c-.1 0-.4 0-.5-.1.1 0 .2-.1.2-.2v-.2c-.2-.4-.5-.3-.6-.3h-.1s-.3 0-.3-.3l-.2-.1v-.1c0-.1.1-.2.2-.2l.1-.1s.1-.3.8-.7l.4-.2c.6-.3 1.1-.6 1.4-.7l1.1-.1.4-.2c.3-.2.9-.5 1.5-.6.1 0 3.3-1.4 5.5 1.4.6.7.9 1.7.7 2.7"/><path fill="#002453" d="M9.798 43.046q-.15-.15-.3 0c-.2.1-.3.3-.2.3.1.1.2-.1.2-.1h.1c.1 0 .1.1.1.1s0 .1.1.2c.1 0 .3-.4 0-.5m4.5 8.2c-.3 0-.6 0-.7.1 0 .1.3.2.7.2.2 0 .6 0 .6-.2 0-.1-.4-.1-.6-.1m-.6.7c-.2 0-.5 0-.5.1s.2.1.5.2c.2 0 .5 0 .5-.1-.1-.2-.3-.2-.5-.2m-5.5-7.9c.2-.1.2-.1.2-.2s-.1-.1-.2-.1h-.1c-.1 0-.1.1-.1.2.1 0 .1.1.2.1m4.6-1.6s-.1-.1-.1 0l-.8.3c-.1 0-.1.1-.1.2s.1.1.2.1l.8-.4zm.1.8s.1-.1 0-.1l-.1-.1-.6.1c-.1 0-.1.1-.1.2s.1.2.2.1zm-.1.6h-.5c-.1 0-.1.1-.1.2s.1.2.1.1l.5-.1.1-.1c0-.1 0-.1-.1-.1m-.1.7-.4-.1c-.1 0-.1.1-.1.1 0 .1 0 .1.1.2h.4c.1 0 .1 0 0-.2.1.1.1 0 0 0m3.4-2.6c-.1 0-.2 0-.2.1s0 .2.1.2c0 0 .4.1.8.3.1 0 .1 0 .2-.1 0-.1 0-.1-.1-.2-.3-.1-.7-.3-.8-.3m.2.7c-.1 0-.1 0-.2.1 0 .1 0 .1.1.2l.6.2h.1v-.1c-.3-.3-.6-.4-.6-.4m0 .7c-.1 0-.1 0-.1.1s0 .1.1.1c0 0 .3.1.4.1h.1v-.1c-.3-.2-.4-.2-.5-.2m2 .2c-.3-.3-.5-.4-.5-.4-.1 0-.2 0-.2.1s0 .2.1.2c0 0 .2.1.4.3h.2zm-.6.3c-.1 0-.1 0-.2.1 0 .1 0 .1.1.2 0 0 .1 0 .3.2h.2v-.2zM13.699 29.246c-1.9 0-3.9.5-3.9 1.3 0 .4.8.7.8.7-.3-.2-.5-.5-.5-.7 0-.5 1.5-1 3.6-1s3.6.5 3.6 1c0 .2-.2.5-.5.7 0 0 .8-.3.8-.7 0-.9-2-1.3-3.9-1.3m4.5-1.5c-.2.2-.5.9-.6 1.1l-.6-.3c-.8-.3-2-.5-3.2-.5s-2.4.2-3.2.5q-.45.15-.6.3c0-.2-.4-.8-.6-1.1-.1-.1-.1 0-.1.1.3.6.4 1 .4 1.2 0 .1 0 .2.1.2h.1l.8-.4c.8-.3 1.9-.5 3.1-.5s2.3.2 3.1.5c.4.1.6.3.8.4h.1c.1 0 .1-.1.1-.2 0-.2.1-.7.3-1.3.1 0 0-.1 0 0"/><path fill="#002453" d="M13.7 29.746a1 1 0 1 0 0-2 1 1 0 0 0 0 2"/><path fill="#002453" d="M11.898 29.946a1 1 0 1 0 0-2 1 1 0 0 0 0 2"/><path fill="#002453" d="M10.61 30.407a1 1 0 1 0-.975-1.746 1 1 0 0 0 .976 1.746M15.598 29.946a1 1 0 1 0 0-2 1 1 0 0 0 0 2"/><path fill="#002453" d="M18.289 29.99a1 1 0 1 0-1.747-.973 1 1 0 0 0 1.746.973M13.7 26.546a1 1 0 1 0 0-2 1 1 0 0 0 0 2"/><path fill="#002453" d="M13.7 25.546a1 1 0 1 0 0-2 1 1 0 0 0 0 2M11.498 25.046a1 1 0 1 0 0-2 1 1 0 0 0 0 2"/><path fill="#002453" d="M9.7 25.046a1 1 0 1 0 0-2 1 1 0 0 0 0 2"/><path fill="#002453" d="M8.398 26.346a1 1 0 1 0 0-2 1 1 0 0 0 0 2"/><path fill="#002453" d="M8.799 28.147a1 1 0 1 0 0-2 1 1 0 0 0 0 2M16.798 30.746c0-.7-2-.8-3.1-.8s-3.1.2-3.1.8c0 .7 2 .8 3.1.8s3.1-.2 3.1-.8m-3.1.5c-1.9 0-2.8-.4-2.8-.5 0-.2 1-.5 2.8-.5 1.9 0 2.8.4 2.8.5s-.9.5-2.8.5m-.4-7.8h.3v.3c0 .1.1.2.1.2.1 0 .1-.1.1-.2v-.3h.3c.1 0 .1-.1.1-.1 0-.1-.1-.1-.1-.1h-.3v-.4c0-.1-.1-.1-.1-.1-.1 0-.1.1-.1.1v.3h-.3c-.1 0-.1.1-.1.1 0 .1 0 .2.1.2"/><path fill="#002453" d="M9.798 27.846c.1.3.5.5.9.4.2-.1.4-.1.6-.4.1-.1.1-.3 0-.5 0 0-.1-.1-.2-.1 0 0-.1.1 0 .2s0 .2-.1.3h-.2s.2-.1 0-.2c-.1-.1-.4-.4 0-.5.4-.2.4.4.2-.4 0-.2.1-.4.2-.5h.1c.1 0 .3.2.4.4.2 1-.2.3.4.3.4 0 .3.4.2.5-.1.2.1.2.1.2s-.1.1-.2.1-.2-.1-.2-.2 0-.1-.1-.1-.1.1-.2.2c-.1.2.1.4.2.5.2.2.6.2.7.1.6-.1.6-.4.6-.4-.1.1-.4.2-.4.2-.1 0-.1 0-.1-.1v-1c0-.1 0-.1.1-.1l.4.2-.1-.3c0-.1 0-.1.1-.1h.6c.1 0 .1 0 .1.1l-.1.3.4-.2c.1 0 .1 0 .1.1v.6c0 .1 0 .1-.1.1 0 0-.3-.1-.4-.2 0 0 0 .4.6.4.2 0 .5 0 .7-.1.1-.1.2-.2.2-.5 0-.1-.1-.2-.2-.2l-.1.1c0 .1-.1.2-.2.2s-.2-.1-.2-.1.2 0 .1-.2c-.1-.1-.2-.5.2-.5.5 0 .2.5.4-.3 0-.2.3-.3.4-.4h.1c.1.1.3.3.2.5-.1.7-.1.2.2.4.4.2.1.5 0 .5-.1.1 0 .2 0 .2s-.1.1-.2 0-.2-.2-.1-.3v-.2s-.2 0-.2.1c-.1.2-.1.4 0 .5.1.3.4.3.6.4.4.1.8-.1.9-.3.3-.4.9-1.3.9-2.1s-.7-1.4-1.7-1.4q-.6 0-1.2.3c-.4.2-.8.3-1.2.2v-.8c0-.1-.1-.2-.1-.2-.1 0-.1.1-.1.2v2.2h-1.1v-2.2c0-.1-.1-.2-.1-.2-.1 0-.1.1-.1.2v.8c-.4 0-.8-.1-1.2-.2s-.8-.3-1.2-.3c-.9 0-1.7.6-1.7 1.4.4 1.1 1.1 2 1.4 2.4m6.1-3c.4-.1.7-.3 1.1-.3.8 0 1.4.5 1.4 1.1 0 .2-.1.4-.1.7 0-.2-.1-.3-.2-.4-.2-.3-.7-.5-1.2-.5-.2-.3-.7-.4-1.2-.5h-.1s.1 0 .3-.1m-1.3.9c.3-.3.7-.4 1-.4.5 0 .9.2 1.1.4l.1.1c.5 0 .8.1 1 .4s.2.7.2.9c0 .1-.1.2-.1.2-.5.9-.8.7-.9.7.1-.1.1-.2.1-.3v-.1c.1-.1.2-.3.2-.4v-.1c0-.1-.1-.3-.4-.5h-.1v-.2c0-.3-.2-.6-.4-.7 0 0-.1-.1-.2-.1-.2.1-.6.2-.7.7v.1h-.1c-.2 0-.3.1-.4.2 0-.1-.1-.1-.2-.1s-.1 0-.1-.3zm-2 .8c-.1-.1-.2-.2-.4-.2h-.1v-.1c-.1-.4-.5-.6-.7-.7-.1 0-.2.1-.2.1-.2.1-.4.4-.4.7v.2h-.1c-.3.1-.4.3-.4.5v.1c0 .2.1.3.2.4v.1c0 .1 0 .2.1.3h-.1c-.1 0-.2.1-.8-.7 0-.1-.1-.1-.1-.2-.1-.2-.1-.6.2-.9.2-.3.5-.4 1-.4 0 0 .1 0 .1-.1.1-.2.6-.4 1.1-.4.2 0 .7 0 1 .4v.4c0 .3 0 .3-.1.3-.2 0-.3.1-.3.2m-2.1-1.9c.4 0 .7.1 1.1.3.1.1.3.1.5.2h-.1c-.5 0-1 .2-1.2.5-.5 0-1 .2-1.2.5-.1.1-.2.3-.2.4-.1-.2-.1-.4-.1-.7-.2-.7.4-1.2 1.2-1.2"/><path fill="#002453" d="M15.898 25.046a1 1 0 1 0 0-2 1 1 0 0 0 0 2"/><path fill="#002453" d="M17.799 25.046a1 1 0 1 0 0-2 1 1 0 0 0 0 2"/><path fill="#002453" d="M18.998 26.346a1 1 0 1 0 0-2 1 1 0 0 0 0 2"/><path fill="#002453" d="M18.7 28.147a1 1 0 1 0 0-2 1 1 0 0 0 0 2M16.9 36.046c.1 0 .3 0 .7-.2l.2-.1.5-.2c.3-.1.6 0 .6 0s.1 0 .1-.1c0 0 0-.1-.1-.1 0 0-.3-.1-.7 0l-.5.2-.2.1-.6.2c0 .1-.1.1 0 .2m0-1c.1 0 .3 0 .7-.2l.2-.1.5-.2c.3-.1.6 0 .6 0s.1 0 .1-.1c0 0 0-.1-.1-.1 0 0-.3-.1-.7 0l-.5.2-.2.1-.6.2c0 .1-.1.1 0 .2m0 2c.1 0 .3 0 .7-.2l.2-.1.5-.2c.3-.1.6 0 .6 0s.1 0 .1-.1c0 0 0-.1-.1-.1 0 0-.4-.1-.7 0l-.5.2-.2.1-.6.2s-.1.1 0 .2m3.6-2.5c.1 0 .4-.1.6 0l.5.2.2.1c.3.1.6.2.7.2 0 0 .1 0 .1-.1 0 0 0-.1-.1-.1s-.3 0-.6-.2l-.2-.1-.5-.2c-.4-.1-.7 0-.7 0 0 .1-.1.1 0 .2m.7 1 .5.2.2.1c.3.1.6.2.7.2 0 0 .1 0 .1-.1 0 0 0-.1-.1-.1s-.3 0-.6-.2l-.2-.1-.5-.2c-.4-.1-.7 0-.7 0s-.1 0-.1.1c0 0 0 .1.1.1zm0 1 .5.2.2.1c.3.1.6.2.7.2 0 0 .1 0 .1-.1 0 0 0-.1-.1-.1s-.3 0-.6-.2l-.2-.1-.5-.2c-.4-.1-.7 0-.7 0s-.1 0-.1.1c0 0 0 .1.1.1 0 0 .3-.1.6 0"/><path fill="#002453" d="M13.8 22.347h12.8v12.9c0 13.4-12.8 20.6-12.8 20.6S1 48.547 1 35.247v-12.9zm-6.7 21.8c-.3.1-.3.4-.2.6.1.4.5.4.5.4.1 0 .5-.2.6.2.1.2-.3.4-.3.4.1.3.7.2.8.2s.9-.2 1.3-.1c.2 0 .4.2.6.3v.1c0 .1-.1.2-.2.2-.2.1-.9.1-1.1.5-.2.5 0 .9.1.9s.6-.3.7-.4c0-.2.2-.3.2-.3.1 0 .7.4 1 .1h.1v.1c0 .1 0 .3-.3.5s-.7 0-.8.1-.4.6-.4.6v.1h1c.2 0 .7.1.9-.1.1-.1.4-.3.7-.5.3-.3.6-.5.7-.6s.1-.2.1-.3l.1.1c.8.5 1.8.7 1.8.7-.2 0-1.1-.2-1.1-.2s-.1-.1-.5.1c-.3.1-.5.4-.6.6 0 .1 0 .3.6.4.2 0 .5-.1.7-.1h2.2c0 .1-.1.1-.1.1-.2.2-1.2.7-2.3 1.7-1.1.9-1.7 2.4-.9 2.5 1.6.2 2.5-1 3.3-1.8s1.3-1.9 1.4-2c1.1-.8 2.8-3.8 1-6.1-2.3-2.8-5.6-1.4-5.6-1.4-.9.2-1.6.7-1.9.8-.2.1-.7 0-1.1.1s-1.1.5-1.9.9zm19.4-21.7H1.1v9.9h25.4zm-6.7 15.5c.2-.2.5-.4 1-.4.4 0 .8.2 1.1.3.2.1.5.2.7.2h.6v-4.2h-.6q-.3 0-.6-.3c-.2-.2-.5-.4-1-.4-.9 0-1.1.5-1.1.5-.1.1-.1 4-.1 4.3m-3.6.1h.6c.2 0 .4-.1.7-.2s.7-.3 1.1-.3c.5 0 .8.3 1 .4v-4.2s-.2-.5-1.1-.5c-.5 0-.8.2-1 .4-.2.1-.4.3-.6.3h-.6c-.1.2-.1 3.8-.1 4.1m-.6.9h3.2s.1.1.2.1c0 0 .2.2.6.3h.1c.3 0 .5-.3.6-.3l.1-.1h3.3q.3 0 .3-.3v-4.3c-.1 0-.5-.3-.6-.4v4.2c0 .1-.1.2-.2.2h-.7c-.3 0-.5-.1-.8-.2s-.6-.3-1-.3c-.5 0-.9.4-.9.4l-.1.1h-.2s-.1 0-.1-.1c0 0-.4-.4-.9-.4-.4 0-.7.1-1 .3-.3.1-.5.2-.8.2h-.8c-.1 0-.1-.1-.1-.2v-4.2c-.1.1-.5.3-.6.4v4.3c.1.1.3.3.4.3m-7.7-1c.2-.2.5-.4 1-.4.4 0 .8.2 1.1.3.2.1.5.2.7.2h.6v-4.2h-.6q-.3 0-.6-.3c-.2-.2-.5-.4-1-.4-.9 0-1.1.5-1.1.5-.1.1-.1 4-.1 4.3m-3.6.1h.6c.2 0 .4-.1.7-.2s.7-.3 1.1-.3c.5 0 .8.3 1 .4v-4.2s-.2-.5-1.1-.5c-.5 0-.8.2-1 .4-.2.1-.4.3-.6.3h-.6c-.1.2-.1 3.8-.1 4.1m-.6.9h3.2s.1.1.2.1c0 0 .2.2.6.3h.1c.3 0 .5-.3.5-.3l.1-.1h3.3q.3 0 .3-.3v-4.3c-.1 0-.5-.3-.6-.4v4.2c0 .1-.1.1-.1.1h-.8c-.3 0-.5-.1-.8-.2s-.6-.3-1-.3c-.5 0-.9.4-.9.4l-.1.1h-.2s-.1 0-.1-.1c0 0-.4-.4-.9-.4-.3 0-.7.1-.9.3-.3.1-.5.2-.8.2h-.7c-.1 0-.1-.1-.1-.1v-4.2c-.1.1-.5.3-.6.4v4.3c0 .1.2.3.3.3"/><path fill="#002453" d="M5 36.046c.1 0 .3 0 .7-.2l.2-.1.5-.2c.3-.1.6 0 .6 0s.1 0 .1-.1c0 0 0-.1-.1-.1 0 0-.3-.1-.7 0l-.5.2-.2.1-.6.2c0 .1-.1.1 0 .2m0-1c.1 0 .3 0 .7-.2l.2-.1.5-.2c.3-.1.6 0 .6 0s.1 0 .1-.1c0 0 0-.1-.1-.1 0 0-.3-.1-.7 0l-.5.2-.2.1-.6.2c0 .1-.1.1 0 .2m0 2c.1 0 .3 0 .7-.2l.2-.1.5-.2c.3-.1.6 0 .6 0h.1s0-.1-.1-.1c0 0-.4-.1-.7 0l-.5.2-.2.1-.6.2c0-.1-.1 0 0 .1m3.6-2.5c.1 0 .4-.1.6 0l.5.2.2.1c.3.1.6.2.7.2 0 0 .1 0 .1-.1 0 0 0-.1-.1-.1s-.3 0-.6-.2l-.2-.1-.5-.2c-.4-.1-.7 0-.7 0-.1.1-.1.1 0 .2m.7 1 .5.2.2.1c.3.1.6.2.7.2 0 0 .1 0 .1-.1 0 0 0-.1-.1-.1s-.3 0-.6-.2l-.2-.1-.5-.2c-.4-.1-.7 0-.7 0s-.1 0-.1.1c0 0 0 .1.1.1zm0 1 .5.2.2.1c.3.1.6.2.7.2 0 0 .1 0 .1-.1 0 0 0-.1-.1-.1s-.3 0-.6-.2l-.2-.1-.5-.2c-.4-.1-.7 0-.7 0s-.1 0-.1.1c0 0 0 .1.1.1 0 0 .3-.1.6 0"/></svg>