<svg xmlns="http://www.w3.org/2000/svg" width="79" height="44" fill="none"><g clip-path="url('#clip0_3566_5167')"><path fill="#094045" d="M64.263 2.996c-.197-.19-.181-.514.05-.664a6.2 6.2 0 0 1 3.531-1.012c1.16.014 2.296.389 3.259 1.008.233.15.251.476.052.668-1.043 1.011-2.084 2.026-3.13 3.035a.45.45 0 0 1-.627 0q-1.567-1.517-3.135-3.035M64.532 5.21c.574-.171 1.256.146 1.434.71.216.566-.11 1.262-.713 1.442-.644.242-1.434-.197-1.527-.862a1.13 1.13 0 0 1 .806-1.29M70.2 5.201c.69-.226 1.487.303 1.514 1.008.069.666-.584 1.271-1.264 1.2-.587-.033-1.095-.559-1.068-1.132-.011-.479.346-.939.817-1.076M66.832 8.162c-.137-.149-.032-.399.17-.399h1.419c.2 0 .303.243.167.39-.242.259-.487.528-.73.774a.217.217 0 0 1-.308.003c-.242-.242-.48-.51-.718-.768"/><path fill="#094045" d="M68.395 11.287a6.2 6.2 0 0 1 2.064-2.574.485.485 0 0 1 .692.145c2.083 3.228 4.156 6.464 6.232 9.697a.2.2 0 0 1 .032.108.2.2 0 0 1-.101.172 6.6 6.6 0 0 1-2.23.744c-1.093.159-2.216.008-3.244-.375a.55.55 0 0 0-.352-.012c-.689.21-1.4.361-2.124.366-1.277.006-2.57-.306-3.651-.973a6.6 6.6 0 0 1-2.487-2.643 6.37 6.37 0 0 1-.417-4.724 6.3 6.3 0 0 1 1.35-2.408.485.485 0 0 1 .702-.017q.304.293.604.588c.15.146.196.368.129.567a6.8 6.8 0 0 0 .207 4.885c.641 1.536 1.892 2.796 3.41 3.543.416.205.664-.364.353-.708a6 6 0 0 1-1.374-2.343c-.414-1.317-.326-2.765.205-4.038M68.631 20.036c.652.075 1.313.023 1.957-.092a.36.36 0 0 1 .278.063q.669.494 1.335.99c.266.198.141.606-.19.605-.606-.002-1.212-.027-1.817-.01a.33.33 0 0 1-.215-.068c-.168-.134-.314-.293-.467-.445a.316.316 0 0 0-.446.001c-.16.156-.314.316-.48.464-.084.078-.21.05-.311.06-1.163 0-2.325-.033-3.487-.016-.243.014-.298-.36-.066-.436 1.114-.366 2.226-.741 3.342-1.104.18-.077.378-.027.567-.012M7.662 21.83q-1.904 0-3.43-.682a6.7 6.7 0 0 1-2.508-1.966q-.93-1.2-1.251-2.827a.19.19 0 0 1 .154-.224l1.521-.274a.2.2 0 0 1 .226.146q.477 1.783 1.871 2.824 1.463 1.08 3.493 1.079 1.335 0 2.395-.45 1.058-.465 1.664-1.311t.605-2.007q0-.765-.252-1.296a2.6 2.6 0 0 0-.668-.901 4 4 0 0 0-.908-.587 7 7 0 0 0-.958-.396L5.014 11.47a8 8 0 0 1-1.538-.655 5.5 5.5 0 0 1-1.236-.97 4.2 4.2 0 0 1-.806-1.337q-.29-.765-.29-1.747 0-1.665.806-2.88.807-1.215 2.207-1.87t3.19-.642q1.815 0 3.24.697a6.2 6.2 0 0 1 2.37 1.992q.884 1.215 1.202 2.858a.19.19 0 0 1-.152.223l-1.556.306a.2.2 0 0 1-.233-.161q-.21-1.157-.837-2.024a4.5 4.5 0 0 0-1.74-1.447 5.25 5.25 0 0 0-2.307-.533q-1.222 0-2.181.45-.945.438-1.5 1.202a2.9 2.9 0 0 0-.555 1.747q0 .997.504 1.597.517.6 1.26.942.758.34 1.463.56l3.556 1.133q.555.164 1.299.477.756.3 1.462.874.72.56 1.185 1.474.467.915.467 2.32 0 1.365-.505 2.444a4.95 4.95 0 0 1-1.4 1.815 6.2 6.2 0 0 1-2.105 1.12q-1.197.395-2.622.395M20.658 21.42a.194.194 0 0 1-.194-.193V3.884a.194.194 0 0 0-.194-.194h-5.953a.194.194 0 0 1-.194-.194V1.959c0-.107.086-.194.194-.194h14.149c.107 0 .194.087.194.194v1.537a.194.194 0 0 1-.194.194h-5.954a.194.194 0 0 0-.194.194v17.343a.194.194 0 0 1-.194.194zM29.615 21.42a.194.194 0 0 1-.194-.193V1.959c0-.107.086-.194.194-.194h10.959c.107 0 .194.087.194.194v1.537a.194.194 0 0 1-.194.194h-9.106a.194.194 0 0 0-.194.194v6.41c0 .107.087.193.194.193h7.593c.107 0 .194.087.194.194v1.537a.194.194 0 0 1-.194.194h-7.593a.194.194 0 0 0-.194.194v6.696c0 .107.087.194.194.194h9.106c.107 0 .194.087.194.194v1.537a.194.194 0 0 1-.194.194zM42.735 21.42a.194.194 0 0 1-.194-.193V1.959c0-.107.087-.194.194-.194h1.38c.078 0 .148.046.178.117l6.907 16c.068.156.29.155.357 0l6.87-16c.03-.07.1-.117.178-.117h1.406c.107 0 .194.087.194.194v19.254a.194.194 0 0 1-.194.194h-1.378a.194.194 0 0 1-.194-.194V7.193c0-.212-.29-.271-.372-.077l-6.045 14.187a.19.19 0 0 1-.179.118h-.94a.19.19 0 0 1-.18-.118L44.692 7.118c-.083-.194-.373-.135-.373.076v14.033a.194.194 0 0 1-.193.194z"/><mask id="path-8-inside-1_3566_5167" fill="#fff"><path d="M2.106 39.183H.276V25.062h9.832v1.63H2.106v4.24h6.246v1.554H2.106zM13.357 39.434q-1.705 0-2.809-.752a4.7 4.7 0 0 1-1.63-1.982 6.4 6.4 0 0 1-.527-2.533q0-1.455.577-2.659a4.37 4.37 0 0 1 1.68-1.881q1.104-.703 2.634-.703 1.354 0 2.383.577a4.2 4.2 0 0 1 1.655 1.63q.627 1.055.703 2.509v.627h-7.851q0 1.68.827 2.634.828.953 2.308.953 1.13 0 1.906-.552a2.36 2.36 0 0 0 .979-1.555h1.806a4.3 4.3 0 0 1-.753 1.906q-.602.828-1.605 1.305-.978.476-2.283.476m-3.135-6.12h5.92q0-.326-.151-.803a2.8 2.8 0 0 0-.451-.953 2.5 2.5 0 0 0-.878-.777q-.553-.327-1.405-.326-.777 0-1.33.275a2.5 2.5 0 0 0-.902.678 3.5 3.5 0 0 0-.552.928q-.175.501-.251.978M18.627 39.183V25.062h1.806v14.121zM21.232 39.183V25.062h1.806v14.121zM28.175 39.434q-1.655 0-2.759-.677a4.24 4.24 0 0 1-1.655-1.856q-.552-1.18-.552-2.71t.552-2.708q.552-1.204 1.655-1.881 1.129-.678 2.784-.678 2.409 0 3.662 1.455 1.28 1.456 1.28 3.838 0 1.455-.527 2.659a4.24 4.24 0 0 1-1.63 1.88q-1.104.678-2.81.678m0-1.605q1.28 0 1.957-.552.676-.552.928-1.38a5.7 5.7 0 0 0 .276-1.755q0-.904-.276-1.756a2.8 2.8 0 0 0-.928-1.405q-.678-.552-1.957-.552-1.23 0-1.931.552a2.87 2.87 0 0 0-.978 1.405 6.2 6.2 0 0 0-.251 1.756q0 .903.25 1.755a2.9 2.9 0 0 0 .979 1.38q.702.552 1.931.552"/><path d="m35.122 39.183-2.66-9.857v-.402h1.782l2.157 8.704h.05l2.533-8.704h1.63l2.584 8.704h.05l2.133-8.704h1.78v.402l-2.633 9.857h-2.634l-2.057-7.048h-.05l-2.032 7.048z"/><path d="M51.132 39.434q-.752 0-1.455-.226a4.4 4.4 0 0 1-1.229-.576 5.6 5.6 0 0 1-.928-.828 3.8 3.8 0 0 1-.627-.953 2.8 2.8 0 0 1-.2-1.004h1.755q0 .025.05.377.051.326.276.752.25.426.803.752.552.327 1.53.327.752 0 1.304-.176t.853-.527a1.12 1.12 0 0 0 .301-.852q0-.678-.502-1.029-.476-.376-1.254-.577a28 28 0 0 0-1.605-.426 10 10 0 0 1-1.58-.527 3.2 3.2 0 0 1-1.23-.903q-.476-.602-.45-1.605 0-1.33 1.128-2.057 1.129-.728 2.884-.728.803.001 1.58.176.779.176 1.405.602.653.402 1.029 1.104.4.677.35 1.73h-1.705q.026-.677-.225-1.103a1.7 1.7 0 0 0-.678-.652 2.9 2.9 0 0 0-.903-.301 4 4 0 0 0-.852-.1q-1.029 0-1.681.376-.627.376-.627 1.053 0 .652.477 1.029.476.351 1.229.576.777.201 1.63.402a7.2 7.2 0 0 1 1.605.526q.779.327 1.254.928.502.578.502 1.63 0 .98-.552 1.606-.526.603-1.48.903-.952.3-2.182.301M55.428 39.183V25.062h2.134v6.346h-.036c.033-.084-.058-.251.06-.502q.175-.402.576-.853.402-.45 1.054-.777.676-.327 1.68-.326 1.08 0 1.781.326.703.326 1.129.903.426.552.627 1.254.2.702.25 1.404.075.703.076 1.33v5.016h-1.806v-5.041q0-1.029-.226-1.831-.2-.802-.777-1.255-.553-.45-1.63-.451-1.104 0-1.757.527a3 3 0 0 0-.953 1.38 5.3 5.3 0 0 0-.3 1.805v4.866zM65.41 39.183V28.95h1.857v10.233zm.954-11.713q-.678 0-.928-.351a1.45 1.45 0 0 1-.226-.803q0-.451.226-.778.25-.35.928-.35.677 0 .878.35.225.327.225.778 0 .45-.225.803-.201.35-.878.35M73.607 39.434q-.978 0-1.655-.326a4.1 4.1 0 0 1-1.079-.752 5 5 0 0 1-.652-.828l-.25-.502h-.05v6.472h-1.882V28.95h1.58l.326 2.483h.05q.052-.126.226-.502.176-.402.577-.853a3.5 3.5 0 0 1 1.104-.802q.676-.327 1.68-.326 1.505 0 2.484.677 1.003.676 1.48 1.881.501 1.179.501 2.734 0 1.53-.502 2.709-.501 1.179-1.505 1.831-.978.652-2.433.652m-.451-1.605q1.155 0 1.83-.527.678-.527.954-1.354.3-.829.301-1.731 0-.929-.326-1.73a2.7 2.7 0 0 0-1.028-1.33q-.703-.527-1.857-.527-.953 0-1.655.452-.677.426-1.053 1.229-.352.802-.352 1.906 0 1.078.377 1.906.4.828 1.103 1.28.728.426 1.706.426"/></mask><path fill="#094045" d="M2.106 39.183H.276V25.062h9.832v1.63H2.106v4.24h6.246v1.554H2.106zM13.357 39.434q-1.705 0-2.809-.752a4.7 4.7 0 0 1-1.63-1.982 6.4 6.4 0 0 1-.527-2.533q0-1.455.577-2.659a4.37 4.37 0 0 1 1.68-1.881q1.104-.703 2.634-.703 1.354 0 2.383.577a4.2 4.2 0 0 1 1.655 1.63q.627 1.055.703 2.509v.627h-7.851q0 1.68.827 2.634.828.953 2.308.953 1.13 0 1.906-.552a2.36 2.36 0 0 0 .979-1.555h1.806a4.3 4.3 0 0 1-.753 1.906q-.602.828-1.605 1.305-.978.476-2.283.476m-3.135-6.12h5.92q0-.326-.151-.803a2.8 2.8 0 0 0-.451-.953 2.5 2.5 0 0 0-.878-.777q-.553-.327-1.405-.326-.777 0-1.33.275a2.5 2.5 0 0 0-.902.678 3.5 3.5 0 0 0-.552.928q-.175.501-.251.978M18.627 39.183V25.062h1.806v14.121zM21.232 39.183V25.062h1.806v14.121zM28.175 39.434q-1.655 0-2.759-.677a4.24 4.24 0 0 1-1.655-1.856q-.552-1.18-.552-2.71t.552-2.708q.552-1.204 1.655-1.881 1.129-.678 2.784-.678 2.409 0 3.662 1.455 1.28 1.456 1.28 3.838 0 1.455-.527 2.659a4.24 4.24 0 0 1-1.63 1.88q-1.104.678-2.81.678m0-1.605q1.28 0 1.957-.552.676-.552.928-1.38a5.7 5.7 0 0 0 .276-1.755q0-.904-.276-1.756a2.8 2.8 0 0 0-.928-1.405q-.678-.552-1.957-.552-1.23 0-1.931.552a2.87 2.87 0 0 0-.978 1.405 6.2 6.2 0 0 0-.251 1.756q0 .903.25 1.755a2.9 2.9 0 0 0 .979 1.38q.702.552 1.931.552"/><path fill="#094045" d="m35.122 39.183-2.66-9.857v-.402h1.782l2.157 8.704h.05l2.533-8.704h1.63l2.584 8.704h.05l2.133-8.704h1.78v.402l-2.633 9.857h-2.634l-2.057-7.048h-.05l-2.032 7.048z"/><path fill="#094045" d="M51.132 39.434q-.752 0-1.455-.226a4.4 4.4 0 0 1-1.229-.576 5.6 5.6 0 0 1-.928-.828 3.8 3.8 0 0 1-.627-.953 2.8 2.8 0 0 1-.2-1.004h1.755q0 .025.05.377.051.326.276.752.25.426.803.752.552.327 1.53.327.752 0 1.304-.176t.853-.527a1.12 1.12 0 0 0 .301-.852q0-.678-.502-1.029-.476-.376-1.254-.577a28 28 0 0 0-1.605-.426 10 10 0 0 1-1.58-.527 3.2 3.2 0 0 1-1.23-.903q-.476-.602-.45-1.605 0-1.33 1.128-2.057 1.129-.728 2.884-.728.803.001 1.58.176.779.176 1.405.602.653.402 1.029 1.104.4.677.35 1.73h-1.705q.026-.677-.225-1.103a1.7 1.7 0 0 0-.678-.652 2.9 2.9 0 0 0-.903-.301 4 4 0 0 0-.852-.1q-1.029 0-1.681.376-.627.376-.627 1.053 0 .652.477 1.029.476.351 1.229.576.777.201 1.63.402a7.2 7.2 0 0 1 1.605.526q.779.327 1.254.928.502.578.502 1.63 0 .98-.552 1.606-.526.603-1.48.903-.952.3-2.182.301M55.428 39.183V25.062h2.134v6.346h-.036c.033-.084-.058-.251.06-.502q.175-.402.576-.853.402-.45 1.054-.777.676-.327 1.68-.326 1.08 0 1.781.326.703.326 1.129.903.426.552.627 1.254.2.702.25 1.404.075.703.076 1.33v5.016h-1.806v-5.041q0-1.029-.226-1.831-.2-.802-.777-1.255-.553-.45-1.63-.451-1.104 0-1.757.527a3 3 0 0 0-.953 1.38 5.3 5.3 0 0 0-.3 1.805v4.866zM65.41 39.183V28.95h1.857v10.233zm.954-11.713q-.678 0-.928-.351a1.45 1.45 0 0 1-.226-.803q0-.451.226-.778.25-.35.928-.35.677 0 .878.35.225.327.225.778 0 .45-.225.803-.201.35-.878.35M73.607 39.434q-.978 0-1.655-.326a4.1 4.1 0 0 1-1.079-.752 5 5 0 0 1-.652-.828l-.25-.502h-.05v6.472h-1.882V28.95h1.58l.326 2.483h.05q.052-.126.226-.502.176-.402.577-.853a3.5 3.5 0 0 1 1.104-.802q.676-.327 1.68-.326 1.505 0 2.484.677 1.003.676 1.48 1.881.501 1.179.501 2.734 0 1.53-.502 2.709-.501 1.179-1.505 1.831-.978.652-2.433.652m-.451-1.605q1.155 0 1.83-.527.678-.527.954-1.354.3-.829.301-1.731 0-.929-.326-1.73a2.7 2.7 0 0 0-1.028-1.33q-.703-.527-1.857-.527-.953 0-1.655.452-.677.426-1.053 1.229-.352.802-.352 1.906 0 1.078.377 1.906.4.828 1.103 1.28.728.426 1.706.426"/><path stroke="#fff" stroke-width=".388" d="M2.106 39.183H.276V25.062h9.832v1.63H2.106v4.24h6.246v1.554H2.106zM13.357 39.434q-1.705 0-2.809-.752a4.7 4.7 0 0 1-1.63-1.982 6.4 6.4 0 0 1-.527-2.533q0-1.455.577-2.659a4.37 4.37 0 0 1 1.68-1.881q1.104-.703 2.634-.703 1.354 0 2.383.577a4.2 4.2 0 0 1 1.655 1.63q.627 1.055.703 2.509v.627h-7.851q0 1.68.827 2.634.828.953 2.308.953 1.13 0 1.906-.552a2.36 2.36 0 0 0 .979-1.555h1.806a4.3 4.3 0 0 1-.753 1.906q-.602.828-1.605 1.305-.978.476-2.283.476Zm-3.135-6.12h5.92q0-.326-.151-.803a2.8 2.8 0 0 0-.451-.953 2.5 2.5 0 0 0-.878-.777q-.553-.327-1.405-.326-.777 0-1.33.275a2.5 2.5 0 0 0-.902.678 3.5 3.5 0 0 0-.552.928q-.175.501-.251.978ZM18.627 39.183V25.062h1.806v14.121zM21.232 39.183V25.062h1.806v14.121zM28.175 39.434q-1.655 0-2.759-.677a4.24 4.24 0 0 1-1.655-1.856q-.552-1.18-.552-2.71t.552-2.708q.552-1.204 1.655-1.881 1.129-.678 2.784-.678 2.409 0 3.662 1.455 1.28 1.456 1.28 3.838 0 1.455-.527 2.659a4.24 4.24 0 0 1-1.63 1.88q-1.104.678-2.81.678Zm0-1.605q1.28 0 1.957-.552.676-.552.928-1.38a5.7 5.7 0 0 0 .276-1.755q0-.904-.276-1.756a2.8 2.8 0 0 0-.928-1.405q-.678-.552-1.957-.552-1.23 0-1.931.552a2.87 2.87 0 0 0-.978 1.405 6.2 6.2 0 0 0-.251 1.756q0 .903.25 1.755a2.9 2.9 0 0 0 .979 1.38q.702.552 1.931.552Z" mask="url('#path-8-inside-1_3566_5167')"/><path stroke="#fff" stroke-width=".388" d="m35.122 39.183-2.66-9.857v-.402h1.782l2.157 8.704h.05l2.533-8.704h1.63l2.584 8.704h.05l2.133-8.704h1.78v.402l-2.633 9.857h-2.634l-2.057-7.048h-.05l-2.032 7.048z" mask="url('#path-8-inside-1_3566_5167')"/><path stroke="#fff" stroke-width=".388" d="M51.132 39.434q-.752 0-1.455-.226a4.4 4.4 0 0 1-1.229-.576 5.6 5.6 0 0 1-.928-.828 3.8 3.8 0 0 1-.627-.953 2.8 2.8 0 0 1-.2-1.004h1.755q0 .025.05.377.051.326.276.752.25.426.803.752.552.327 1.53.327.752 0 1.304-.176t.853-.527a1.12 1.12 0 0 0 .301-.852q0-.678-.502-1.029-.476-.376-1.254-.577a28 28 0 0 0-1.605-.426 10 10 0 0 1-1.58-.527 3.2 3.2 0 0 1-1.23-.903q-.476-.602-.45-1.605 0-1.33 1.128-2.057 1.129-.728 2.884-.728.803.001 1.58.176.779.176 1.405.602.653.402 1.029 1.104.4.677.35 1.73h-1.705q.026-.677-.225-1.103a1.7 1.7 0 0 0-.678-.652 2.9 2.9 0 0 0-.903-.301 4 4 0 0 0-.852-.1q-1.029 0-1.681.376-.627.376-.627 1.053 0 .652.477 1.029.476.351 1.229.576.777.201 1.63.402a7.2 7.2 0 0 1 1.605.526q.779.327 1.254.928.502.578.502 1.63 0 .98-.552 1.606-.526.603-1.48.903-.952.3-2.182.301ZM55.428 39.183V25.062h2.134v6.346h-.036c.033-.084-.058-.251.06-.502q.175-.402.576-.853.402-.45 1.054-.777.676-.327 1.68-.326 1.08 0 1.781.326.703.326 1.129.903.426.552.627 1.254.2.702.25 1.404.075.703.076 1.33v5.016h-1.806v-5.041q0-1.029-.226-1.831-.2-.802-.777-1.255-.553-.45-1.63-.451-1.104 0-1.757.527a3 3 0 0 0-.953 1.38 5.3 5.3 0 0 0-.3 1.805v4.866zM65.41 39.183V28.95h1.857v10.233zm.954-11.713q-.678 0-.928-.351a1.45 1.45 0 0 1-.226-.803q0-.451.226-.778.25-.35.928-.35.677 0 .878.35.225.327.225.778 0 .45-.225.803-.201.35-.878.35ZM73.607 39.434q-.978 0-1.655-.326a4.1 4.1 0 0 1-1.079-.752 5 5 0 0 1-.652-.828l-.25-.502h-.05v6.472h-1.882V28.95h1.58l.326 2.483h.05q.052-.126.226-.502.176-.402.577-.853a3.5 3.5 0 0 1 1.104-.802q.676-.327 1.68-.326 1.505 0 2.484.677 1.003.676 1.48 1.881.501 1.179.501 2.734 0 1.53-.502 2.709-.501 1.179-1.505 1.831-.978.652-2.433.652Zm-.451-1.605q1.155 0 1.83-.527.678-.527.954-1.354.3-.829.301-1.731 0-.929-.326-1.73a2.7 2.7 0 0 0-1.028-1.33q-.703-.527-1.857-.527-.953 0-1.655.452-.677.426-1.053 1.229-.352.802-.352 1.906 0 1.078.377 1.906.4.828 1.103 1.28.728.426 1.706.426Z" mask="url('#path-8-inside-1_3566_5167')"/><path fill="#094045" d="M71.02 1.41c-.103-.059-.083-.218.034-.245l2.04-.483c.131-.031.219.137.119.228-.39.354-.772.715-1.173 1.058a.13.13 0 0 1-.163.003 8 8 0 0 0-.856-.56M64.403 1.41c.104-.059.084-.218-.033-.245L62.33.682c-.131-.031-.219.137-.119.228.39.354.772.715 1.173 1.058a.13.13 0 0 0 .163.003c.272-.206.56-.391.856-.56"/></g><defs><clipPath id="clip0_3566_5167"><path fill="#fff" d="M0 0h78.32v44H0z"/></clipPath></defs></svg>