<svg xmlns="http://www.w3.org/2000/svg" width="32" height="32" fill="none"><path fill="#131313" d="M21.333 9.333a1.334 1.334 0 1 1 2.667 0 1.334 1.334 0 0 1-2.667 0"/><path fill="#131313" stroke="#F2F6FB" stroke-width=".4" d="M11.663 11.662a6.133 6.133 0 1 1 8.674 8.674 6.133 6.133 0 0 1-8.674-8.674Zm1.132 1.132a4.533 4.533 0 1 0 6.41 6.41 4.533 4.533 0 0 0-6.41-6.41Z"/><path fill="#131313" stroke="#F2F6FB" stroke-width=".4" d="M4.024 8.91C4.327 6.31 6.419 4.268 9.01 3.978a63.4 63.4 0 0 1 13.977 0c2.593.29 4.684 2.332 4.988 4.934l.198-.023-.198.023c.55 4.71.55 9.47 0 14.18l.198.023-.198-.023c-.304 2.602-2.396 4.644-4.988 4.934a63.5 63.5 0 0 1-13.977 0c-2.593-.29-4.684-2.332-4.987-4.934l-.199.023.199-.023c-.55-4.71-.55-9.47 0-14.18ZM22.81 5.567a61.8 61.8 0 0 0-13.623 0 4.055 4.055 0 0 0-3.576 3.53v.002a59.4 59.4 0 0 0 0 13.806v.002a4.05 4.05 0 0 0 3.576 3.528c4.527.502 9.096.502 13.623 0a4.05 4.05 0 0 0 3.576-3.529c.537-4.587.537-9.22 0-13.807-.217-1.852-1.711-3.322-3.576-3.532Z"/></svg>