<svg xmlns="http://www.w3.org/2000/svg" width="32" height="32" fill="none"><path fill="#131313" d="M27.386 27.495H22.51a.623.623 0 0 1-.623-.623V19.02c0-2.693-1.39-2.693-1.848-2.693-1.233 0-1.757.973-1.927 1.394q-.119.285-.118.959v8.197a.623.623 0 0 1-.624.623h-4.88a.63.63 0 0 1-.444-.184.6.6 0 0 1-.18-.444c0-.132.066-13.3 0-14.646a.625.625 0 0 1 .624-.652h4.88c.345 0 .624.279.624.624v.368c.822-.732 2.008-1.337 3.774-1.337 3.908 0 6.241 2.703 6.241 7.229v8.414a.623.623 0 0 1-.623.623m-4.252-1.247h3.633v-7.79c0-3.804-1.819-5.981-4.994-5.981-2.121 0-3.15 1.058-3.798 2.026a.63.63 0 0 1-.6.444h-.033a.62.62 0 0 1-.543-.32.62.62 0 0 1-.048-.502v-1.308h-3.623c.033 2.603 0 11.026-.01 13.427h3.629v-7.57c0-.627.066-1.08.207-1.426.548-1.356 1.701-2.173 3.08-2.173 1.966 0 3.095 1.436 3.095 3.94v7.233zM9.792 27.495h-4.88a.623.623 0 0 1-.624-.623V12.198c0-.345.279-.624.624-.624h4.88c.345 0 .624.279.624.624v14.674a.623.623 0 0 1-.624.623m-4.257-1.247H9.17V12.821H5.536zm1.82-15.43H7.32C5.398 10.818 4 9.486 4 7.653c0-1.829 1.422-3.16 3.387-3.16 1.933 0 3.312 1.294 3.35 3.146 0 1.847-1.422 3.18-3.383 3.18m.032-5.074c-1.28 0-2.14.77-2.14 1.914 0 1.124.85 1.913 2.074 1.913h.033c1.276 0 2.136-.77 2.136-1.913-.024-1.158-.85-1.914-2.103-1.914"/></svg>