<svg xmlns="http://www.w3.org/2000/svg" width="80" height="80" fill="none"><path fill="#FFC26C" d="M40 80c6.278 0 11.44-4.772 12.06-10.887 4.76 3.887 11.785 3.61 16.224-.829 4.44-4.439 4.716-11.464.83-16.225C75.227 51.441 80 46.278 80 40s-4.772-11.44-10.887-12.06c3.886-4.76 3.61-11.785-.829-16.224C63.845 7.276 56.82 7 52.06 10.886 51.441 4.773 46.278 0 40 0S28.56 4.772 27.94 10.887c-4.76-3.887-11.785-3.61-16.224.829C7.276 16.155 7 23.18 10.886 27.94 4.773 28.559 0 33.722 0 40s4.772 11.44 10.887 12.06c-3.887 4.76-3.61 11.785.829 16.224 4.439 4.44 11.464 4.716 16.225.83C28.559 75.227 33.722 80 40 80"/></svg>