<svg width="16" height="16" viewBox="0 0 16 16" fill="none" xmlns="http://www.w3.org/2000/svg">
<path d="M4.81419 4.38619C4.71306 4.56626 4.56431 4.71501 4.38425 4.81614L0.642845 6.91756C-0.122591 7.34748 -0.122592 8.44939 0.642844 8.87931L4.38424 10.9807C4.56431 11.0819 4.71306 11.2306 4.81419 11.4107L6.91561 15.1521C7.34553 15.9175 8.44744 15.9175 8.87736 15.1521L10.9788 11.4107C11.0799 11.2306 11.2287 11.0819 11.4087 10.9807L15.1501 8.87931C15.9156 8.44939 15.9156 7.34748 15.1501 6.91756L11.4087 4.81614C11.2287 4.71501 11.0799 4.56626 10.9788 4.38619L8.87736 0.644797C8.44744 -0.12064 7.34553 -0.120639 6.91561 0.644797L4.81419 4.38619Z" fill="#273436"></path>
</svg>
