<svg width="79" height="44" viewBox="0 0 79 44" fill="none" xmlns="http://www.w3.org/2000/svg">
<g clip-path="url('#clip0_3566_5167')">
<path d="M64.2635 2.99634C64.0657 2.80521 64.082 2.48207 64.3123 2.33171C65.3469 1.65652 66.5951 1.28401 67.8445 1.31974C69.004 1.33375 70.1401 1.70853 71.1029 2.32821C71.3357 2.47805 71.3542 2.80359 71.1553 2.99621C70.1116 4.00706 69.0712 5.02155 68.0254 6.03079C67.8504 6.19972 67.5731 6.19972 67.398 6.03081C66.3515 5.02113 65.3094 4.00667 64.2635 2.99634Z" fill="#094045"></path>
<path d="M64.5323 5.21094C65.106 5.03876 65.7878 5.3557 65.9655 5.91931C66.1823 6.48573 65.8559 7.18217 65.2525 7.36207C64.6091 7.60382 63.8193 7.1646 63.7257 6.49979C63.6133 5.95305 63.9709 5.35781 64.5323 5.21094Z" fill="#094045"></path>
<path d="M70.1993 5.20146C70.8905 4.97517 71.6869 5.50364 71.7144 6.20921C71.7826 6.87472 71.1299 7.48049 70.4502 7.40952C69.8635 7.37649 69.355 6.85012 69.3819 6.27738C69.371 5.7981 69.7278 5.33849 70.1993 5.20146Z" fill="#094045"></path>
<path d="M66.8324 8.16209C66.6949 8.01327 66.7999 7.76309 67.0024 7.763C67.4752 7.76279 67.9479 7.76247 68.4207 7.76294C68.6209 7.76314 68.7241 8.00623 68.5876 8.1527C68.3461 8.41186 68.101 8.68062 67.8588 8.92735C67.7739 9.0139 67.6355 9.01551 67.5497 8.92977C67.308 8.68812 67.0698 8.41929 66.8324 8.16209Z" fill="#094045"></path>
<path d="M68.3946 11.2873C68.8283 10.2701 69.5499 9.37114 70.4594 8.71312C70.6861 8.54909 70.9989 8.62252 71.1506 8.85765C73.2343 12.0863 75.3073 15.3216 77.3828 18.555C77.4035 18.5872 77.4145 18.6247 77.4145 18.663V18.663C77.4145 18.7345 77.3764 18.8008 77.3137 18.8353C76.6268 19.2136 75.8667 19.4672 75.0848 19.5791C73.9914 19.738 72.8681 19.5867 71.8397 19.2037C71.7267 19.1616 71.603 19.1569 71.4877 19.192C70.7994 19.4019 70.088 19.5535 69.3636 19.558C68.0871 19.5636 66.7939 19.2523 65.7125 18.5854C64.6463 17.9571 63.7839 17.021 63.2261 15.9423C62.4892 14.4897 62.3282 12.7694 62.8091 11.2177C63.066 10.3296 63.541 9.50845 64.1594 8.80972C64.3435 8.60179 64.6617 8.60004 64.8614 8.7929C65.0635 8.98801 65.2642 9.18454 65.4654 9.38074C65.6156 9.52716 65.6614 9.74902 65.594 9.94761C65.0568 11.5306 65.1252 13.2991 65.801 14.8334C66.4425 16.3694 67.6928 17.629 69.2102 18.3759C69.6268 18.581 69.8753 18.012 69.5638 17.6676V17.6676C68.9256 17.0049 68.4657 16.1883 68.1901 15.3246C67.776 14.0083 67.8637 12.5599 68.3946 11.2873Z" fill="#094045"></path>
<path d="M68.6314 20.0359C69.2833 20.1114 69.944 20.0591 70.5879 19.9436C70.6854 19.9261 70.7861 19.9482 70.8659 20.0069C71.3128 20.3348 71.7564 20.6665 72.2009 20.9972C72.4667 21.195 72.3423 21.6029 72.011 21.6019C71.4051 21.6001 70.7992 21.5749 70.1938 21.5915C70.1166 21.5936 70.0399 21.5722 69.9794 21.524C69.8114 21.3902 69.6649 21.2313 69.5121 21.0793C69.3877 20.9556 69.1912 20.9575 69.0657 21.08C68.9063 21.2356 68.7522 21.3963 68.5857 21.544C68.5016 21.622 68.3769 21.5946 68.2746 21.6038C67.1119 21.6045 65.95 21.5707 64.7881 21.5876V21.5876C64.545 21.6022 64.4904 21.2282 64.7217 21.1522C65.8364 20.7859 66.9479 20.411 68.0635 20.0479C68.2448 19.9706 68.4421 20.0212 68.6314 20.0359Z" fill="#094045"></path>
<path d="M7.66189 21.8302C6.39269 21.8302 5.24956 21.6028 4.23251 21.1478C3.22387 20.6837 2.38754 20.0285 1.72352 19.1822C1.10371 18.3822 0.686731 17.4398 0.472584 16.3551C0.451941 16.2505 0.522139 16.1504 0.627026 16.1314L2.148 15.857C2.24936 15.8387 2.34704 15.9031 2.37369 16.0026C2.6922 17.192 3.31601 18.1336 4.24512 18.8273C5.22014 19.5462 6.38428 19.9056 7.73754 19.9056C8.62851 19.9056 9.42702 19.7555 10.1331 19.4552C10.8391 19.1458 11.3939 18.709 11.7973 18.1448C12.2008 17.5807 12.4025 16.9118 12.4025 16.1383C12.4025 15.6288 12.3185 15.1965 12.1503 14.8416C11.9822 14.4776 11.7595 14.1773 11.4821 13.9407C11.2047 13.7042 10.9022 13.5085 10.5743 13.3538C10.2465 13.19 9.92714 13.0581 9.61614 12.958L5.01421 11.4702C4.45946 11.2973 3.94673 11.0789 3.47603 10.815C3.00533 10.542 2.59347 10.2189 2.24045 9.84585C1.89583 9.46366 1.62686 9.01778 1.43353 8.50819C1.24021 7.9986 1.14355 7.41622 1.14355 6.76103C1.14355 5.65086 1.41252 4.69083 1.95046 3.88096C2.4884 3.07108 3.22387 2.44774 4.15687 2.01095C5.08986 1.57416 6.15313 1.36032 7.34669 1.36942C8.55706 1.36942 9.63715 1.60146 10.587 2.06555C11.5452 2.52964 12.3353 3.19392 12.9573 4.0584C13.5461 4.8682 13.9466 5.82072 14.1588 6.91598C14.1788 7.01934 14.1104 7.1185 14.0071 7.13884L12.4509 7.44516C12.3422 7.46656 12.238 7.3926 12.2182 7.28362C12.0782 6.51247 11.7992 5.83779 11.3813 5.25957C10.9274 4.63169 10.3474 4.1494 9.64135 3.81271C8.94371 3.46692 8.17462 3.28947 7.33409 3.28037C6.51877 3.28037 5.79171 3.43052 5.1529 3.73081C4.5225 4.022 4.02238 4.42239 3.65254 4.93198C3.28271 5.44157 3.09779 6.02395 3.09779 6.67913C3.09779 7.34342 3.2659 7.87575 3.60211 8.27614C3.94673 8.67653 4.367 8.99048 4.86291 9.21797C5.36723 9.44546 5.85475 9.63201 6.32544 9.77761L9.88091 10.9105C10.2507 11.0197 10.6836 11.179 11.1795 11.3883C11.6839 11.5885 12.1714 11.8797 12.6421 12.2618C13.1212 12.6349 13.5162 13.1263 13.8272 13.736C14.1382 14.3457 14.2937 15.1192 14.2937 16.0564C14.2937 16.9664 14.1256 17.7809 13.7894 18.4997C13.4616 19.2186 12.9951 19.8237 12.3899 20.3151C11.7931 20.8065 11.0913 21.1796 10.2844 21.4344C9.48585 21.6983 8.6117 21.8302 7.66189 21.8302Z" fill="#094045"></path>
<path d="M20.6583 21.4208C20.5512 21.4208 20.4644 21.3339 20.4644 21.2268V3.88381C20.4644 3.77669 20.3775 3.68986 20.2704 3.68986H14.3165C14.2094 3.68986 14.1225 3.60303 14.1225 3.49592V1.9592C14.1225 1.85209 14.2094 1.76526 14.3165 1.76526H28.4656C28.5727 1.76526 28.6596 1.85209 28.6596 1.9592V3.49592C28.6596 3.60303 28.5727 3.68986 28.4656 3.68986H22.5117C22.4046 3.68986 22.3177 3.77669 22.3177 3.88381V21.2268C22.3177 21.3339 22.2309 21.4208 22.1238 21.4208H20.6583Z" fill="#094045"></path>
<path d="M29.6145 21.4208C29.5074 21.4208 29.4206 21.3339 29.4206 21.2268V1.9592C29.4206 1.85209 29.5074 1.76526 29.6145 1.76526H40.5738C40.681 1.76526 40.7678 1.85209 40.7678 1.9592V3.49592C40.7678 3.60303 40.681 3.68986 40.5738 3.68986H31.4679C31.3608 3.68986 31.274 3.77669 31.274 3.88381V10.2934C31.274 10.4006 31.3608 10.4874 31.4679 10.4874H39.0609C39.168 10.4874 39.2548 10.5742 39.2548 10.6813V12.218C39.2548 12.3252 39.168 12.412 39.0609 12.412H31.4679C31.3608 12.412 31.274 12.4988 31.274 12.6059V19.3022C31.274 19.4093 31.3608 19.4962 31.4679 19.4962H40.5738C40.681 19.4962 40.7678 19.583 40.7678 19.6901V21.2268C40.7678 21.3339 40.681 21.4208 40.5738 21.4208H29.6145Z" fill="#094045"></path>
<path d="M42.7347 21.4208C42.6276 21.4208 42.5408 21.3339 42.5408 21.2268V1.9592C42.5408 1.85209 42.6276 1.76526 42.7347 1.76526H44.1154C44.1928 1.76526 44.2627 1.81128 44.2934 1.88233L51.2005 17.8814C51.2679 18.0377 51.4896 18.0375 51.5567 17.8811L58.4269 1.88268C58.4575 1.81143 58.5276 1.76526 58.6051 1.76526H60.0107C60.1178 1.76526 60.2046 1.85209 60.2046 1.9592V21.2132C60.2046 21.3203 60.1178 21.4071 60.0107 21.4071H58.6334C58.5263 21.4071 58.4395 21.3203 58.4395 21.2132V7.19221C58.4395 6.98108 58.1499 6.92195 58.0671 7.11618L52.0218 21.3028C51.9914 21.3744 51.9211 21.4208 51.8434 21.4208H50.9021C50.8243 21.4208 50.7541 21.3743 50.7236 21.3027L44.6909 7.11801C44.6083 6.92366 44.3185 6.98271 44.3185 7.19392V21.2268C44.3185 21.3339 44.2317 21.4208 44.1246 21.4208H42.7347Z" fill="#094045"></path>
<mask id="path-8-inside-1_3566_5167" fill="white">
<path d="M2.10644 39.1833H0.275391V25.0617H10.1079V26.6921H2.10644V30.9311H8.35208V32.4862H2.10644V39.1833Z"></path>
<path d="M13.3573 39.4342C12.2202 39.4342 11.2838 39.1833 10.548 38.6817C9.81224 38.1633 9.26878 37.5028 8.91762 36.7001C8.56646 35.8808 8.39088 35.0363 8.39088 34.1668C8.39088 33.1969 8.58318 32.3106 8.96778 31.508C9.35239 30.7053 9.91257 30.0783 10.6483 29.6268C11.3841 29.1586 12.262 28.9244 13.282 28.9244C14.185 28.9244 14.9793 29.1167 15.6649 29.5014C16.3672 29.886 16.9191 30.4294 17.3204 31.1317C17.7384 31.8341 17.9725 32.6702 18.0227 33.64C18.0227 33.6902 18.0227 33.7822 18.0227 33.9159C18.0227 34.0497 18.0227 34.1668 18.0227 34.2671H10.1718C10.1718 35.3875 10.4477 36.2654 10.9995 36.9008C11.5513 37.5362 12.3205 37.854 13.3071 37.854C14.0596 37.854 14.695 37.67 15.2134 37.3021C15.7485 36.9175 16.0746 36.3991 16.1917 35.747H17.9976C17.8973 36.4493 17.6465 37.0847 17.2451 37.6533C16.8438 38.2051 16.3087 38.6399 15.6398 38.9576C14.9877 39.2753 14.2268 39.4342 13.3573 39.4342ZM10.2219 33.3139H16.1415C16.1415 33.0966 16.0913 32.829 15.991 32.5113C15.9074 32.1769 15.7569 31.8591 15.5395 31.5581C15.3221 31.2404 15.0295 30.9812 14.6616 30.7806C14.2937 30.5632 13.8255 30.4545 13.257 30.4545C12.7386 30.4545 12.2954 30.5465 11.9276 30.7304C11.5597 30.8976 11.2587 31.1234 11.0246 31.4077C10.7905 31.6919 10.6065 32.0013 10.4728 32.3357C10.3557 32.6702 10.2721 32.9962 10.2219 33.3139Z"></path>
<path d="M18.6272 39.1833V25.0617H20.4332V39.1833H18.6272Z"></path>
<path d="M21.2315 39.1833V25.0617H23.0375V39.1833H21.2315Z"></path>
<path d="M28.1752 39.4342C27.0715 39.4342 26.1518 39.2084 25.4161 38.7569C24.6803 38.3054 24.1285 37.6867 23.7606 36.9008C23.3927 36.1149 23.2088 35.2119 23.2088 34.1919C23.2088 33.1718 23.3927 32.2688 23.7606 31.4829C24.1285 30.6802 24.6803 30.0532 25.4161 29.6017C26.1686 29.1502 27.0966 28.9244 28.2003 28.9244C29.8056 28.9244 31.0263 29.4094 31.8624 30.3793C32.7152 31.3491 33.1416 32.6284 33.1416 34.2169C33.1416 35.1868 32.966 36.0731 32.6149 36.8757C32.2637 37.6616 31.7202 38.2887 30.9845 38.7569C30.2487 39.2084 29.3123 39.4342 28.1752 39.4342ZM28.1752 37.8289C29.028 37.8289 29.6802 37.6449 30.1317 37.277C30.5832 36.9092 30.8925 36.4493 31.0597 35.8975C31.2437 35.3289 31.3356 34.7437 31.3356 34.1417C31.3356 33.5397 31.2437 32.9544 31.0597 32.3859C30.8925 31.8173 30.5832 31.3491 30.1317 30.9812C29.6802 30.6134 29.028 30.4294 28.1752 30.4294C27.3558 30.4294 26.712 30.6134 26.2438 30.9812C25.7756 31.3491 25.4495 31.8173 25.2656 32.3859C25.0984 32.9544 25.0148 33.5397 25.0148 34.1417C25.0148 34.7437 25.0984 35.3289 25.2656 35.8975C25.4495 36.4493 25.7756 36.9092 26.2438 37.277C26.712 37.6449 27.3558 37.8289 28.1752 37.8289Z"></path>
<path d="M35.1216 39.1833L32.4628 29.3258V28.9244H34.2437L36.4008 37.6282H36.451L38.9843 28.9244H40.6147L43.1983 37.6282H43.2484L45.3805 28.9244H47.1614V29.3258L44.5277 39.1833H41.894L39.8372 32.1351H39.787L37.7553 39.1833H35.1216Z"></path>
<path d="M51.1321 39.4342C50.6304 39.4342 50.1455 39.3589 49.6773 39.2084C49.2258 39.0747 48.8161 38.8823 48.4482 38.6315C48.0971 38.3807 47.7877 38.1048 47.5202 37.8038C47.2526 37.5028 47.0436 37.1851 46.8931 36.8506C46.7593 36.4995 46.6924 36.165 46.6924 35.8473H48.4482C48.4482 35.864 48.465 35.9895 48.4984 36.2236C48.5318 36.4409 48.6238 36.6918 48.7743 36.976C48.9415 37.2603 49.2091 37.5112 49.577 37.7285C49.9448 37.9459 50.4549 38.0546 51.107 38.0546C51.6087 38.0546 52.0434 37.9961 52.4113 37.879C52.7792 37.762 53.0635 37.5864 53.2641 37.3523C53.4815 37.1182 53.5819 36.8339 53.5651 36.4995C53.5651 36.048 53.3979 35.7052 53.0635 35.4711C52.7458 35.2202 52.3277 35.0279 51.8093 34.8942C51.3077 34.7437 50.7726 34.6015 50.204 34.4678C49.6522 34.334 49.1255 34.1584 48.6238 33.941C48.1222 33.7236 47.7125 33.4226 47.3948 33.038C47.077 32.6367 46.9265 32.1016 46.9433 31.4327C46.9433 30.5465 47.3195 29.8609 48.072 29.3759C48.8245 28.891 49.786 28.6485 50.9565 28.6485C51.4916 28.6485 52.0184 28.7071 52.5367 28.8241C53.0551 28.9412 53.5233 29.1418 53.9414 29.4261C54.3762 29.6937 54.7189 30.0615 54.9698 30.5298C55.2373 30.9812 55.3544 31.5581 55.3209 32.2605H53.6153C53.632 31.809 53.5568 31.4411 53.3896 31.1568C53.2223 30.8725 52.9966 30.6552 52.7123 30.5047C52.428 30.3542 52.1271 30.2538 51.8093 30.2037C51.5083 30.1368 51.2241 30.1033 50.9565 30.1033C50.2709 30.1033 49.7107 30.2288 49.276 30.4796C48.8579 30.7304 48.6489 31.0816 48.6489 31.5331C48.6489 31.9678 48.8078 32.3106 49.1255 32.5615C49.4432 32.7956 49.8529 32.9879 50.3545 33.1384C50.8729 33.2721 51.4164 33.4059 51.9849 33.5397C52.5535 33.6567 53.0886 33.8323 53.5902 34.0664C54.1086 34.2838 54.5267 34.5932 54.8444 34.9945C55.1788 35.3791 55.346 35.9226 55.346 36.6249C55.346 37.277 55.1621 37.8121 54.7942 38.2302C54.443 38.6315 53.9497 38.9325 53.3143 39.1332C52.6789 39.3338 51.9515 39.4342 51.1321 39.4342Z"></path>
<path d="M55.4281 39.1833V25.0617H57.5624V31.4077H57.5261C57.5595 31.324 57.4682 31.1568 57.5853 30.906C57.7023 30.6384 57.8946 30.3542 58.1622 30.0532C58.4297 29.7522 58.7809 29.493 59.2156 29.2756C59.6671 29.0582 60.2273 28.9495 60.8962 28.9495C61.6152 28.9495 62.2089 29.0582 62.6771 29.2756C63.1453 29.493 63.5215 29.794 63.8058 30.1786C64.0901 30.5465 64.2991 30.9645 64.4329 31.4327C64.5667 31.9009 64.6503 32.3692 64.6837 32.8374C64.7339 33.3056 64.759 33.7487 64.759 34.1668V39.1833H62.953V34.1417C62.953 33.4561 62.8777 32.8457 62.7272 32.3106C62.5935 31.7755 62.3343 31.3575 61.9497 31.0565C61.5818 30.7555 61.0383 30.605 60.3193 30.605C59.5835 30.605 58.9983 30.7806 58.5635 31.1317C58.1287 31.4829 57.811 31.9428 57.6103 32.5113C57.4097 33.0631 57.3093 33.6651 57.3093 34.3173V39.1833H55.4281Z"></path>
<path d="M65.4107 39.1833V28.9495H67.2669V39.1833H65.4107ZM66.3639 27.4696C65.9124 27.4696 65.603 27.3526 65.4358 27.1185C65.2853 26.8844 65.2101 26.6168 65.2101 26.3158C65.2101 26.0148 65.2853 25.7556 65.4358 25.5383C65.603 25.3042 65.9124 25.1871 66.3639 25.1871C66.8154 25.1871 67.108 25.3042 67.2418 25.5383C67.3923 25.7556 67.4675 26.0148 67.4675 26.3158C67.4675 26.6168 67.3923 26.8844 67.2418 27.1185C67.108 27.3526 66.8154 27.4696 66.3639 27.4696Z"></path>
<path d="M73.6073 39.4342C72.9552 39.4342 72.4034 39.3255 71.9519 39.1081C71.5171 38.8907 71.1576 38.6399 70.8733 38.3556C70.589 38.0546 70.3716 37.7787 70.2211 37.5279C70.0874 37.2603 70.0038 37.0931 69.9703 37.0262H69.9202V43.4976H68.0389V28.9495H69.6192L69.9452 31.4327H69.9954C70.0288 31.3491 70.1041 31.1819 70.2211 30.9311C70.3382 30.6635 70.5305 30.3793 70.7981 30.0783C71.0823 29.7605 71.4502 29.493 71.9017 29.2756C72.3532 29.0582 72.9134 28.9495 73.5823 28.9495C74.5856 28.9495 75.4133 29.1753 76.0655 29.6268C76.7343 30.0783 77.2276 30.7053 77.5453 31.508C77.8798 32.2939 78.047 33.2053 78.047 34.242C78.047 35.2621 77.8798 36.165 77.5453 36.951C77.2109 37.7369 76.7093 38.3472 76.0404 38.782C75.3882 39.2168 74.5772 39.4342 73.6073 39.4342ZM73.1558 37.8289C73.9251 37.8289 74.5354 37.6533 74.9869 37.3021C75.4384 36.951 75.7561 36.4995 75.94 35.9477C76.1407 35.3958 76.241 34.8189 76.241 34.2169C76.241 33.5982 76.1323 33.0213 75.915 32.4862C75.7143 31.9344 75.3715 31.4913 74.8866 31.1568C74.4183 30.8057 73.7996 30.6301 73.0304 30.6301C72.395 30.6301 71.8432 30.7806 71.375 31.0816C70.9235 31.3658 70.5723 31.7755 70.3215 32.3106C70.0874 32.8457 69.9703 33.4812 69.9703 34.2169C69.9703 34.936 70.0957 35.5714 70.3466 36.1232C70.6141 36.6751 70.982 37.1015 71.4502 37.4025C71.9351 37.6867 72.5037 37.8289 73.1558 37.8289Z"></path>
</mask>
<path d="M2.10644 39.1833H0.275391V25.0617H10.1079V26.6921H2.10644V30.9311H8.35208V32.4862H2.10644V39.1833Z" fill="#094045"></path>
<path d="M13.3573 39.4342C12.2202 39.4342 11.2838 39.1833 10.548 38.6817C9.81224 38.1633 9.26878 37.5028 8.91762 36.7001C8.56646 35.8808 8.39088 35.0363 8.39088 34.1668C8.39088 33.1969 8.58318 32.3106 8.96778 31.508C9.35239 30.7053 9.91257 30.0783 10.6483 29.6268C11.3841 29.1586 12.262 28.9244 13.282 28.9244C14.185 28.9244 14.9793 29.1167 15.6649 29.5014C16.3672 29.886 16.9191 30.4294 17.3204 31.1317C17.7384 31.8341 17.9725 32.6702 18.0227 33.64C18.0227 33.6902 18.0227 33.7822 18.0227 33.9159C18.0227 34.0497 18.0227 34.1668 18.0227 34.2671H10.1718C10.1718 35.3875 10.4477 36.2654 10.9995 36.9008C11.5513 37.5362 12.3205 37.854 13.3071 37.854C14.0596 37.854 14.695 37.67 15.2134 37.3021C15.7485 36.9175 16.0746 36.3991 16.1917 35.747H17.9976C17.8973 36.4493 17.6465 37.0847 17.2451 37.6533C16.8438 38.2051 16.3087 38.6399 15.6398 38.9576C14.9877 39.2753 14.2268 39.4342 13.3573 39.4342ZM10.2219 33.3139H16.1415C16.1415 33.0966 16.0913 32.829 15.991 32.5113C15.9074 32.1769 15.7569 31.8591 15.5395 31.5581C15.3221 31.2404 15.0295 30.9812 14.6616 30.7806C14.2937 30.5632 13.8255 30.4545 13.257 30.4545C12.7386 30.4545 12.2954 30.5465 11.9276 30.7304C11.5597 30.8976 11.2587 31.1234 11.0246 31.4077C10.7905 31.6919 10.6065 32.0013 10.4728 32.3357C10.3557 32.6702 10.2721 32.9962 10.2219 33.3139Z" fill="#094045"></path>
<path d="M18.6272 39.1833V25.0617H20.4332V39.1833H18.6272Z" fill="#094045"></path>
<path d="M21.2315 39.1833V25.0617H23.0375V39.1833H21.2315Z" fill="#094045"></path>
<path d="M28.1752 39.4342C27.0715 39.4342 26.1518 39.2084 25.4161 38.7569C24.6803 38.3054 24.1285 37.6867 23.7606 36.9008C23.3927 36.1149 23.2088 35.2119 23.2088 34.1919C23.2088 33.1718 23.3927 32.2688 23.7606 31.4829C24.1285 30.6802 24.6803 30.0532 25.4161 29.6017C26.1686 29.1502 27.0966 28.9244 28.2003 28.9244C29.8056 28.9244 31.0263 29.4094 31.8624 30.3793C32.7152 31.3491 33.1416 32.6284 33.1416 34.2169C33.1416 35.1868 32.966 36.0731 32.6149 36.8757C32.2637 37.6616 31.7202 38.2887 30.9845 38.7569C30.2487 39.2084 29.3123 39.4342 28.1752 39.4342ZM28.1752 37.8289C29.028 37.8289 29.6802 37.6449 30.1317 37.277C30.5832 36.9092 30.8925 36.4493 31.0597 35.8975C31.2437 35.3289 31.3356 34.7437 31.3356 34.1417C31.3356 33.5397 31.2437 32.9544 31.0597 32.3859C30.8925 31.8173 30.5832 31.3491 30.1317 30.9812C29.6802 30.6134 29.028 30.4294 28.1752 30.4294C27.3558 30.4294 26.712 30.6134 26.2438 30.9812C25.7756 31.3491 25.4495 31.8173 25.2656 32.3859C25.0984 32.9544 25.0148 33.5397 25.0148 34.1417C25.0148 34.7437 25.0984 35.3289 25.2656 35.8975C25.4495 36.4493 25.7756 36.9092 26.2438 37.277C26.712 37.6449 27.3558 37.8289 28.1752 37.8289Z" fill="#094045"></path>
<path d="M35.1216 39.1833L32.4628 29.3258V28.9244H34.2437L36.4008 37.6282H36.451L38.9843 28.9244H40.6147L43.1983 37.6282H43.2484L45.3805 28.9244H47.1614V29.3258L44.5277 39.1833H41.894L39.8372 32.1351H39.787L37.7553 39.1833H35.1216Z" fill="#094045"></path>
<path d="M51.1321 39.4342C50.6304 39.4342 50.1455 39.3589 49.6773 39.2084C49.2258 39.0747 48.8161 38.8823 48.4482 38.6315C48.0971 38.3807 47.7877 38.1048 47.5202 37.8038C47.2526 37.5028 47.0436 37.1851 46.8931 36.8506C46.7593 36.4995 46.6924 36.165 46.6924 35.8473H48.4482C48.4482 35.864 48.465 35.9895 48.4984 36.2236C48.5318 36.4409 48.6238 36.6918 48.7743 36.976C48.9415 37.2603 49.2091 37.5112 49.577 37.7285C49.9448 37.9459 50.4549 38.0546 51.107 38.0546C51.6087 38.0546 52.0434 37.9961 52.4113 37.879C52.7792 37.762 53.0635 37.5864 53.2641 37.3523C53.4815 37.1182 53.5819 36.8339 53.5651 36.4995C53.5651 36.048 53.3979 35.7052 53.0635 35.4711C52.7458 35.2202 52.3277 35.0279 51.8093 34.8942C51.3077 34.7437 50.7726 34.6015 50.204 34.4678C49.6522 34.334 49.1255 34.1584 48.6238 33.941C48.1222 33.7236 47.7125 33.4226 47.3948 33.038C47.077 32.6367 46.9265 32.1016 46.9433 31.4327C46.9433 30.5465 47.3195 29.8609 48.072 29.3759C48.8245 28.891 49.786 28.6485 50.9565 28.6485C51.4916 28.6485 52.0184 28.7071 52.5367 28.8241C53.0551 28.9412 53.5233 29.1418 53.9414 29.4261C54.3762 29.6937 54.7189 30.0615 54.9698 30.5298C55.2373 30.9812 55.3544 31.5581 55.3209 32.2605H53.6153C53.632 31.809 53.5568 31.4411 53.3896 31.1568C53.2223 30.8725 52.9966 30.6552 52.7123 30.5047C52.428 30.3542 52.1271 30.2538 51.8093 30.2037C51.5083 30.1368 51.2241 30.1033 50.9565 30.1033C50.2709 30.1033 49.7107 30.2288 49.276 30.4796C48.8579 30.7304 48.6489 31.0816 48.6489 31.5331C48.6489 31.9678 48.8078 32.3106 49.1255 32.5615C49.4432 32.7956 49.8529 32.9879 50.3545 33.1384C50.8729 33.2721 51.4164 33.4059 51.9849 33.5397C52.5535 33.6567 53.0886 33.8323 53.5902 34.0664C54.1086 34.2838 54.5267 34.5932 54.8444 34.9945C55.1788 35.3791 55.346 35.9226 55.346 36.6249C55.346 37.277 55.1621 37.8121 54.7942 38.2302C54.443 38.6315 53.9497 38.9325 53.3143 39.1332C52.6789 39.3338 51.9515 39.4342 51.1321 39.4342Z" fill="#094045"></path>
<path d="M55.4281 39.1833V25.0617H57.5624V31.4077H57.5261C57.5595 31.324 57.4682 31.1568 57.5853 30.906C57.7023 30.6384 57.8946 30.3542 58.1622 30.0532C58.4297 29.7522 58.7809 29.493 59.2156 29.2756C59.6671 29.0582 60.2273 28.9495 60.8962 28.9495C61.6152 28.9495 62.2089 29.0582 62.6771 29.2756C63.1453 29.493 63.5215 29.794 63.8058 30.1786C64.0901 30.5465 64.2991 30.9645 64.4329 31.4327C64.5667 31.9009 64.6503 32.3692 64.6837 32.8374C64.7339 33.3056 64.759 33.7487 64.759 34.1668V39.1833H62.953V34.1417C62.953 33.4561 62.8777 32.8457 62.7272 32.3106C62.5935 31.7755 62.3343 31.3575 61.9497 31.0565C61.5818 30.7555 61.0383 30.605 60.3193 30.605C59.5835 30.605 58.9983 30.7806 58.5635 31.1317C58.1287 31.4829 57.811 31.9428 57.6103 32.5113C57.4097 33.0631 57.3093 33.6651 57.3093 34.3173V39.1833H55.4281Z" fill="#094045"></path>
<path d="M65.4107 39.1833V28.9495H67.2669V39.1833H65.4107ZM66.3639 27.4696C65.9124 27.4696 65.603 27.3526 65.4358 27.1185C65.2853 26.8844 65.2101 26.6168 65.2101 26.3158C65.2101 26.0148 65.2853 25.7556 65.4358 25.5383C65.603 25.3042 65.9124 25.1871 66.3639 25.1871C66.8154 25.1871 67.108 25.3042 67.2418 25.5383C67.3923 25.7556 67.4675 26.0148 67.4675 26.3158C67.4675 26.6168 67.3923 26.8844 67.2418 27.1185C67.108 27.3526 66.8154 27.4696 66.3639 27.4696Z" fill="#094045"></path>
<path d="M73.6073 39.4342C72.9552 39.4342 72.4034 39.3255 71.9519 39.1081C71.5171 38.8907 71.1576 38.6399 70.8733 38.3556C70.589 38.0546 70.3716 37.7787 70.2211 37.5279C70.0874 37.2603 70.0038 37.0931 69.9703 37.0262H69.9202V43.4976H68.0389V28.9495H69.6192L69.9452 31.4327H69.9954C70.0288 31.3491 70.1041 31.1819 70.2211 30.9311C70.3382 30.6635 70.5305 30.3793 70.7981 30.0783C71.0823 29.7605 71.4502 29.493 71.9017 29.2756C72.3532 29.0582 72.9134 28.9495 73.5823 28.9495C74.5856 28.9495 75.4133 29.1753 76.0655 29.6268C76.7343 30.0783 77.2276 30.7053 77.5453 31.508C77.8798 32.2939 78.047 33.2053 78.047 34.242C78.047 35.2621 77.8798 36.165 77.5453 36.951C77.2109 37.7369 76.7093 38.3472 76.0404 38.782C75.3882 39.2168 74.5772 39.4342 73.6073 39.4342ZM73.1558 37.8289C73.9251 37.8289 74.5354 37.6533 74.9869 37.3021C75.4384 36.951 75.7561 36.4995 75.94 35.9477C76.1407 35.3958 76.241 34.8189 76.241 34.2169C76.241 33.5982 76.1323 33.0213 75.915 32.4862C75.7143 31.9344 75.3715 31.4913 74.8866 31.1568C74.4183 30.8057 73.7996 30.6301 73.0304 30.6301C72.395 30.6301 71.8432 30.7806 71.375 31.0816C70.9235 31.3658 70.5723 31.7755 70.3215 32.3106C70.0874 32.8457 69.9703 33.4812 69.9703 34.2169C69.9703 34.936 70.0957 35.5714 70.3466 36.1232C70.6141 36.6751 70.982 37.1015 71.4502 37.4025C71.9351 37.6867 72.5037 37.8289 73.1558 37.8289Z" fill="#094045"></path>
<path d="M2.10644 39.1833H0.275391V25.0617H10.1079V26.6921H2.10644V30.9311H8.35208V32.4862H2.10644V39.1833Z" stroke="white" stroke-width="0.387888" mask="url('#path-8-inside-1_3566_5167')"></path>
<path d="M13.3573 39.4342C12.2202 39.4342 11.2838 39.1833 10.548 38.6817C9.81224 38.1633 9.26878 37.5028 8.91762 36.7001C8.56646 35.8808 8.39088 35.0363 8.39088 34.1668C8.39088 33.1969 8.58318 32.3106 8.96778 31.508C9.35239 30.7053 9.91257 30.0783 10.6483 29.6268C11.3841 29.1586 12.262 28.9244 13.282 28.9244C14.185 28.9244 14.9793 29.1167 15.6649 29.5014C16.3672 29.886 16.9191 30.4294 17.3204 31.1317C17.7384 31.8341 17.9725 32.6702 18.0227 33.64C18.0227 33.6902 18.0227 33.7822 18.0227 33.9159C18.0227 34.0497 18.0227 34.1668 18.0227 34.2671H10.1718C10.1718 35.3875 10.4477 36.2654 10.9995 36.9008C11.5513 37.5362 12.3205 37.854 13.3071 37.854C14.0596 37.854 14.695 37.67 15.2134 37.3021C15.7485 36.9175 16.0746 36.3991 16.1917 35.747H17.9976C17.8973 36.4493 17.6465 37.0847 17.2451 37.6533C16.8438 38.2051 16.3087 38.6399 15.6398 38.9576C14.9877 39.2753 14.2268 39.4342 13.3573 39.4342ZM10.2219 33.3139H16.1415C16.1415 33.0966 16.0913 32.829 15.991 32.5113C15.9074 32.1769 15.7569 31.8591 15.5395 31.5581C15.3221 31.2404 15.0295 30.9812 14.6616 30.7806C14.2937 30.5632 13.8255 30.4545 13.257 30.4545C12.7386 30.4545 12.2954 30.5465 11.9276 30.7304C11.5597 30.8976 11.2587 31.1234 11.0246 31.4077C10.7905 31.6919 10.6065 32.0013 10.4728 32.3357C10.3557 32.6702 10.2721 32.9962 10.2219 33.3139Z" stroke="white" stroke-width="0.387888" mask="url('#path-8-inside-1_3566_5167')"></path>
<path d="M18.6272 39.1833V25.0617H20.4332V39.1833H18.6272Z" stroke="white" stroke-width="0.387888" mask="url('#path-8-inside-1_3566_5167')"></path>
<path d="M21.2315 39.1833V25.0617H23.0375V39.1833H21.2315Z" stroke="white" stroke-width="0.387888" mask="url('#path-8-inside-1_3566_5167')"></path>
<path d="M28.1752 39.4342C27.0715 39.4342 26.1518 39.2084 25.4161 38.7569C24.6803 38.3054 24.1285 37.6867 23.7606 36.9008C23.3927 36.1149 23.2088 35.2119 23.2088 34.1919C23.2088 33.1718 23.3927 32.2688 23.7606 31.4829C24.1285 30.6802 24.6803 30.0532 25.4161 29.6017C26.1686 29.1502 27.0966 28.9244 28.2003 28.9244C29.8056 28.9244 31.0263 29.4094 31.8624 30.3793C32.7152 31.3491 33.1416 32.6284 33.1416 34.2169C33.1416 35.1868 32.966 36.0731 32.6149 36.8757C32.2637 37.6616 31.7202 38.2887 30.9845 38.7569C30.2487 39.2084 29.3123 39.4342 28.1752 39.4342ZM28.1752 37.8289C29.028 37.8289 29.6802 37.6449 30.1317 37.277C30.5832 36.9092 30.8925 36.4493 31.0597 35.8975C31.2437 35.3289 31.3356 34.7437 31.3356 34.1417C31.3356 33.5397 31.2437 32.9544 31.0597 32.3859C30.8925 31.8173 30.5832 31.3491 30.1317 30.9812C29.6802 30.6134 29.028 30.4294 28.1752 30.4294C27.3558 30.4294 26.712 30.6134 26.2438 30.9812C25.7756 31.3491 25.4495 31.8173 25.2656 32.3859C25.0984 32.9544 25.0148 33.5397 25.0148 34.1417C25.0148 34.7437 25.0984 35.3289 25.2656 35.8975C25.4495 36.4493 25.7756 36.9092 26.2438 37.277C26.712 37.6449 27.3558 37.8289 28.1752 37.8289Z" stroke="white" stroke-width="0.387888" mask="url('#path-8-inside-1_3566_5167')"></path>
<path d="M35.1216 39.1833L32.4628 29.3258V28.9244H34.2437L36.4008 37.6282H36.451L38.9843 28.9244H40.6147L43.1983 37.6282H43.2484L45.3805 28.9244H47.1614V29.3258L44.5277 39.1833H41.894L39.8372 32.1351H39.787L37.7553 39.1833H35.1216Z" stroke="white" stroke-width="0.387888" mask="url('#path-8-inside-1_3566_5167')"></path>
<path d="M51.1321 39.4342C50.6304 39.4342 50.1455 39.3589 49.6773 39.2084C49.2258 39.0747 48.8161 38.8823 48.4482 38.6315C48.0971 38.3807 47.7877 38.1048 47.5202 37.8038C47.2526 37.5028 47.0436 37.1851 46.8931 36.8506C46.7593 36.4995 46.6924 36.165 46.6924 35.8473H48.4482C48.4482 35.864 48.465 35.9895 48.4984 36.2236C48.5318 36.4409 48.6238 36.6918 48.7743 36.976C48.9415 37.2603 49.2091 37.5112 49.577 37.7285C49.9448 37.9459 50.4549 38.0546 51.107 38.0546C51.6087 38.0546 52.0434 37.9961 52.4113 37.879C52.7792 37.762 53.0635 37.5864 53.2641 37.3523C53.4815 37.1182 53.5819 36.8339 53.5651 36.4995C53.5651 36.048 53.3979 35.7052 53.0635 35.4711C52.7458 35.2202 52.3277 35.0279 51.8093 34.8942C51.3077 34.7437 50.7726 34.6015 50.204 34.4678C49.6522 34.334 49.1255 34.1584 48.6238 33.941C48.1222 33.7236 47.7125 33.4226 47.3948 33.038C47.077 32.6367 46.9265 32.1016 46.9433 31.4327C46.9433 30.5465 47.3195 29.8609 48.072 29.3759C48.8245 28.891 49.786 28.6485 50.9565 28.6485C51.4916 28.6485 52.0184 28.7071 52.5367 28.8241C53.0551 28.9412 53.5233 29.1418 53.9414 29.4261C54.3762 29.6937 54.7189 30.0615 54.9698 30.5298C55.2373 30.9812 55.3544 31.5581 55.3209 32.2605H53.6153C53.632 31.809 53.5568 31.4411 53.3896 31.1568C53.2223 30.8725 52.9966 30.6552 52.7123 30.5047C52.428 30.3542 52.1271 30.2538 51.8093 30.2037C51.5083 30.1368 51.2241 30.1033 50.9565 30.1033C50.2709 30.1033 49.7107 30.2288 49.276 30.4796C48.8579 30.7304 48.6489 31.0816 48.6489 31.5331C48.6489 31.9678 48.8078 32.3106 49.1255 32.5615C49.4432 32.7956 49.8529 32.9879 50.3545 33.1384C50.8729 33.2721 51.4164 33.4059 51.9849 33.5397C52.5535 33.6567 53.0886 33.8323 53.5902 34.0664C54.1086 34.2838 54.5267 34.5932 54.8444 34.9945C55.1788 35.3791 55.346 35.9226 55.346 36.6249C55.346 37.277 55.1621 37.8121 54.7942 38.2302C54.443 38.6315 53.9497 38.9325 53.3143 39.1332C52.6789 39.3338 51.9515 39.4342 51.1321 39.4342Z" stroke="white" stroke-width="0.387888" mask="url('#path-8-inside-1_3566_5167')"></path>
<path d="M55.4281 39.1833V25.0617H57.5624V31.4077H57.5261C57.5595 31.324 57.4682 31.1568 57.5853 30.906C57.7023 30.6384 57.8946 30.3542 58.1622 30.0532C58.4297 29.7522 58.7809 29.493 59.2156 29.2756C59.6671 29.0582 60.2273 28.9495 60.8962 28.9495C61.6152 28.9495 62.2089 29.0582 62.6771 29.2756C63.1453 29.493 63.5215 29.794 63.8058 30.1786C64.0901 30.5465 64.2991 30.9645 64.4329 31.4327C64.5667 31.9009 64.6503 32.3692 64.6837 32.8374C64.7339 33.3056 64.759 33.7487 64.759 34.1668V39.1833H62.953V34.1417C62.953 33.4561 62.8777 32.8457 62.7272 32.3106C62.5935 31.7755 62.3343 31.3575 61.9497 31.0565C61.5818 30.7555 61.0383 30.605 60.3193 30.605C59.5835 30.605 58.9983 30.7806 58.5635 31.1317C58.1287 31.4829 57.811 31.9428 57.6103 32.5113C57.4097 33.0631 57.3093 33.6651 57.3093 34.3173V39.1833H55.4281Z" stroke="white" stroke-width="0.387888" mask="url('#path-8-inside-1_3566_5167')"></path>
<path d="M65.4107 39.1833V28.9495H67.2669V39.1833H65.4107ZM66.3639 27.4696C65.9124 27.4696 65.603 27.3526 65.4358 27.1185C65.2853 26.8844 65.2101 26.6168 65.2101 26.3158C65.2101 26.0148 65.2853 25.7556 65.4358 25.5383C65.603 25.3042 65.9124 25.1871 66.3639 25.1871C66.8154 25.1871 67.108 25.3042 67.2418 25.5383C67.3923 25.7556 67.4675 26.0148 67.4675 26.3158C67.4675 26.6168 67.3923 26.8844 67.2418 27.1185C67.108 27.3526 66.8154 27.4696 66.3639 27.4696Z" stroke="white" stroke-width="0.387888" mask="url('#path-8-inside-1_3566_5167')"></path>
<path d="M73.6073 39.4342C72.9552 39.4342 72.4034 39.3255 71.9519 39.1081C71.5171 38.8907 71.1576 38.6399 70.8733 38.3556C70.589 38.0546 70.3716 37.7787 70.2211 37.5279C70.0874 37.2603 70.0038 37.0931 69.9703 37.0262H69.9202V43.4976H68.0389V28.9495H69.6192L69.9452 31.4327H69.9954C70.0288 31.3491 70.1041 31.1819 70.2211 30.9311C70.3382 30.6635 70.5305 30.3793 70.7981 30.0783C71.0823 29.7605 71.4502 29.493 71.9017 29.2756C72.3532 29.0582 72.9134 28.9495 73.5823 28.9495C74.5856 28.9495 75.4133 29.1753 76.0655 29.6268C76.7343 30.0783 77.2276 30.7053 77.5453 31.508C77.8798 32.2939 78.047 33.2053 78.047 34.242C78.047 35.2621 77.8798 36.165 77.5453 36.951C77.2109 37.7369 76.7093 38.3472 76.0404 38.782C75.3882 39.2168 74.5772 39.4342 73.6073 39.4342ZM73.1558 37.8289C73.9251 37.8289 74.5354 37.6533 74.9869 37.3021C75.4384 36.951 75.7561 36.4995 75.94 35.9477C76.1407 35.3958 76.241 34.8189 76.241 34.2169C76.241 33.5982 76.1323 33.0213 75.915 32.4862C75.7143 31.9344 75.3715 31.4913 74.8866 31.1568C74.4183 30.8057 73.7996 30.6301 73.0304 30.6301C72.395 30.6301 71.8432 30.7806 71.375 31.0816C70.9235 31.3658 70.5723 31.7755 70.3215 32.3106C70.0874 32.8457 69.9703 33.4812 69.9703 34.2169C69.9703 34.936 70.0957 35.5714 70.3466 36.1232C70.6141 36.6751 70.982 37.1015 71.4502 37.4025C71.9351 37.6867 72.5037 37.8289 73.1558 37.8289Z" stroke="white" stroke-width="0.387888" mask="url('#path-8-inside-1_3566_5167')"></path>
<path d="M71.0206 1.41041C70.9166 1.35115 70.9373 1.19231 71.0538 1.16483C71.7337 1.00434 72.4137 0.843457 73.0937 0.681936C73.2251 0.65072 73.3126 0.81904 73.2127 0.909868C72.823 1.26389 72.4405 1.62529 72.0401 1.96762C71.9935 2.0074 71.9255 2.00847 71.8767 1.97147C71.605 1.76539 71.3177 1.57986 71.0206 1.41041Z" fill="#094045"></path>
<path d="M64.4033 1.41041C64.5072 1.35115 64.4865 1.19231 64.3701 1.16483C63.6901 1.00434 63.0101 0.843457 62.3301 0.681936C62.1987 0.65072 62.1112 0.81904 62.2112 0.909868C62.6008 1.26389 62.9833 1.62529 63.3837 1.96762C63.4303 2.0074 63.4983 2.00847 63.5471 1.97147C63.8188 1.76539 64.1061 1.57986 64.4033 1.41041Z" fill="#094045"></path>
</g>
<defs>
<clipPath id="clip0_3566_5167">
<rect width="78.32" height="44" fill="white"></rect>
</clipPath>
</defs>
</svg>
